/* XPM */
static char *result[] = {
/* columns rows colors chars-per-pixel */
"120 40 184 2 ",
"   c #BF570B",
".  c #BF5D0D",
"X  c #BB630D",
"o  c #BC620D",
"O  c #B66A0C",
"+  c #B66E0D",
"@  c #B8690D",
"#  c #AE770C",
"$  c #AF770D",
"%  c #AE7B0D",
"&  c #AD7C0D",
"*  c #B2730D",
"=  c #B0780D",
"-  c #B77911",
";  c #BD7813",
":  c #B87F13",
">  c #C7460A",
",  c #C6470A",
"<  c #CB440B",
"1  c #CB450C",
"2  c #C74C0B",
"3  c #C74D0C",
"4  c #C94B0C",
"5  c #C84C0C",
"6  c #C4530C",
"7  c #C3540C",
"8  c #CB500E",
"9  c #C8520E",
"0  c #C15A0C",
"q  c #C05B0C",
"w  c #D24E11",
"e  c #D24F11",
"r  c #CD5410",
"t  c #CE5511",
"y  c #CF5E14",
"u  c #D05712",
"i  c #D05713",
"p  c #D35A15",
"a  c #D65F17",
"s  c #D85B17",
"d  c #C76212",
"f  c #C36711",
"g  c #CD6916",
"h  c #D16015",
"j  c #D56117",
"k  c #D76319",
"l  c #D86319",
"z  c #DA631A",
"x  c #DC691D",
"c  c #DE6D1F",
"v  c #C77A18",
"b  c #C87C19",
"n  c #CD7F1C",
"m  c #DA751F",
"M  c #DF6E20",
"N  c #DC7520",
"B  c #DE7922",
"V  c #E26E21",
"C  c #E36F22",
"Z  c #E47223",
"A  c #E37423",
"S  c #E87024",
"D  c #E87626",
"F  c #E47B25",
"G  c #E87B27",
"H  c #EC7F2A",
"J  c #77D70E",
"K  c #7DD10F",
"L  c #7ED410",
"P  c #7BD910",
"I  c #9F940D",
"U  c #9F970E",
"Y  c #9E9A0E",
"T  c #9C9D0E",
"R  c #AA830E",
"E  c #A9840E",
"W  c #A68B0E",
"Q  c #A58C0E",
"!  c #A2910E",
"~  c #A1920E",
"^  c #AF8711",
"/  c #B38512",
"(  c #B28B13",
")  c #B09816",
"_  c #97A50F",
"`  c #96A60F",
"'  c #99A10F",
"]  c #98A40F",
"[  c #95AA0F",
"{  c #93AC0F",
"}  c #8FB50F",
"|  c #85BD0D",
" . c #8BBB0F",
".. c #8CBA0F",
"X. c #90B10F",
"o. c #91B10F",
"O. c #99A510",
"+. c #99A710",
"@. c #99A810",
"#. c #9EAE14",
"$. c #8BBD10",
"%. c #8CBC10",
"&. c #94B010",
"*. c #90B710",
"=. c #9EB516",
"-. c #96BA14",
";. c #9CBA17",
":. c #A4A715",
">. c #A3AA15",
",. c #AFA319",
"<. c #B1A319",
"1. c #A1B718",
"2. c #A8BE1D",
"3. c #BEB123",
"4. c #BEB324",
"5. c #B7B922",
"6. c #C6811A",
"7. c #D58020",
"8. c #D98022",
"9. c #D58C23",
"0. c #C89420",
"q. c #D79326",
"w. c #DA9528",
"e. c #ED832C",
"r. c #EE862D",
"t. c #EE8B2E",
"y. c #EB8D2D",
"u. c #F0852E",
"i. c #F2842E",
"p. c #F1882F",
"a. c #F2892F",
"s. c #E39B2E",
"d. c #F68E33",
"f. c #F78E33",
"g. c #F88E33",
"h. c #FA8E34",
"j. c #EA9730",
"k. c #F79034",
"l. c #F59434",
"z. c #FA9436",
"x. c #FB9437",
"c. c #FA9636",
"v. c #F19C34",
"b. c #F39D35",
"n. c #FA9937",
"m. c #FF9739",
"M. c #FF963A",
"N. c #FB9838",
"B. c #FC9838",
"V. c #FD9A39",
"C. c #FF9E3B",
"Z. c #C4A021",
"A. c #C8A424",
"S. c #C2A923",
"D. c #CFAF2A",
"F. c #DCA92E",
"G. c #CAB229",
"H. c #E2A32F",
"J. c #E9A232",
"K. c #ECA033",
"L. c #FFA03C",
"P. c #86C20F",
"I. c #87C30F",
"U. c #86C40F",
"Y. c #82C90F",
"T. c #86C410",
"R. c #87C410",
"E. c #86C510",
"W. c #88C010",
"Q. c #88C110",
"!. c #83CA10",
"~. c #83CB10",
"^. c #84C910",
"/. c #82CC10",
"(. c #81CE10",
"). c #8AC912",
"_. c #97C417",
"`. c #91CD17",
"'. c #9FC71B",
"]. c #80D010",
"[. c #81D110",
"{. c #A8C01E",
"}. c #ADC220",
"|. c None",
/* pixels */
"|.|.|.|.|.|.|.|.|.|.].].].].].].].].].].].].].].].].].].].].|.|.|.|.|.|.|.|.|.|.|.|.|.|.|.|.|.|.|.|.].].].].].].].].].].].].].].].].].].].].|.|.|.|.|.|.|.|.|.|.|.|.|.|.|.|.|.|.|.|.|.|.|.|.|.5 5 5 |.|.|.|.|.|.|.|.|.|.|.|.|.|.|.|.|.|.|.|.|.|.",
"|.|.|.|.|.|.|.|.|.|.].].].].].].].].].].].].].].].].].].].].|.|.|.|.|.|.|.|.|.|.|.|.|.|.|.|.|.|.|.|.].].].].].].].].].].].].].].].].].].].].|.|.|.|.|.|.|.|.|.|.|.|.|.|.|.|.|.|.|.|.|.|.|.|.5 5 5 2 5 |.|.|.|.|.|.|.|.|.|.|.|.|.|.|.|.|.|.|.|.|.",
"|.|.|.|.|.|.|.|.].].].].].].].].].].].].].].].].].].].].].].].].|.|.|.|.|.|.|.|.|.|.|.|.|.|.|.|.].].].].].].].].].].].].].].].].].].].].].].].].|.|.|.|.|.|.|.|.|.|.|.|.|.|.|.|.|.|.|.|.5 2 2 5 5 5 5 5 |.|.|.|.|.|.|.|.|.|.|.|.|.|.|.|.|.|.|.|.",
"|.|.|.|.|.|.|.].].].].].].].].].].].].].].].].].].].].].].].].].].|.|.|.|.|.|.|.|.|.|.|.|.|.|.].].].].].].].].].].].].].].].].].].].].].].].].].].|.|.|.|.|.|.|.|.|.|.|.|.|.|.|.|.|.|.|.5 8 5 2 5 5 2 5 |.|.|.|.|.|.|.|.|.|.|.|.|.|.|.|.|.|.|.|.",
"|.|.|.|.|.|.|.L ].].].].].].].].].].].].].].].].].].].].].].].].L |.|.|.|.|.|.|.|.|.|.|.|.|.|.L ].].].].].].].].].].].].].].].].].].].].].].].].L |.|.|.|.|.|.|.|.|.|.|.|.|.|.|.|.|.|.|.5 5 5 5 5 2 5 2 |.|.|.|.|.|.|.|.|.|.|.|.|.|.|.|.|.|.|.|.",
"B.B.M.|.|.|.|.K ].].].].].].].].].].].].].].].].].].].].].].].].K |.|.|.|.M.B.B.B.B.M.|.|.|.|.K ].].].].].].].].].].].].].].].].].].].].].].].].K |.|.|.|.M.B.B.|.|.|.|.|.|.|.|.|.|.|.|.5 2 5 5 5 5 5 5 |.|.|.|.|.|.|.|.|.|.|.|.|.|.|.|.|.|.|.|.",
"B.N.n.|.|.|.|.K ].].].].].].].].].].].].].].].].].].].].].].].].K |.|.|.|.n.N.B.B.N.n.|.|.|.|.K ].].].].].].].].].].].].].].].].].].].].].].].].K |.|.|.|.n.N.B.|.|.|.|.|.|.|.|.|.|.|.|.5 5 2 5 5 2 5 5 |.|.|.|.|.|.|.|.|.|.|.|.|.|.|.|.|.|.|.|.",
"M.n.K.D.'.P J K ].].].].].].].].].].].].].].].].].].].].].].].].K J P '.D.K.n.M.M.n.K.D.'.P J K ].].].].].].].].].].].].].].].].].].].].].].].].K J P '.D.K.n.M.|.|.|.|.|.|.|.|.|.|.|.|.5 2 5 5 8 2 2 5 |.|.|.|.|.|.|.|.|.|.|.|.|.|.|.|.|.|.|.|.",
"M.n.H.4._.(.K K ].].].].].].].].].].].].].].(.].].].].].].].].].K K (._.4.H.n.M.M.n.H.4._.(.K K ].].].].].].].].].].].].].].(.].].].].].].].].].K K (._.4.H.n.M.|.|.|.|.|.|.|.|.|.|.|.|.5 5 2 5 5 2 5 5 |.|.|.|.|.|.|.|.|.|.|.|.|.|.|.|.|.|.|.|.",
"M.n.s.Z.:.X.| Y.L P P L L L ].].].].].].].].].].].].L L L P P L Y.| X.:.Z.s.n.M.M.n.s.Z.:.X.| Y.L P P L L L ].].].].].].].].].].].].L L L P P L Y.| X.:.Z.s.n.M.|.|.|.|.|.|.|.|.|.|.|.|.5 5 5 5 5 5 5 5 |.|.|.|.|.|.|.|.|.|.|.|.|.|.|.|.|.|.|.|.",
"B.c.y.7.; R T  .].P P P L L ].].].].].].(.].].].].].L L P P P ]. .T R ; 7.y.c.B.B.c.y.7.; R T  .].P P P L L ].].].].].].(.].].].].].L L P P P ]. .T R ; 7.y.c.B.|.|.|.|.|.|.|.|.|.|.|.|.2 5 5 5 5 5 5 5 |.|.|.|.|.|.|.|.|.|.|.|.|.|.|.|.|.|.|.|.",
"B.c.p.Z j f R ] $.U.I.Q.T.^.(.].].].].].].].].].].(.^.T.Q.I.U.$.] R f j Z p.c.B.B.c.p.Z j f R ] $.U.I.Q.T.^.(.].].].].].].].].].].(.^.T.Q.I.U.$.] R f j Z p.c.B.|.|.|.|.|.|.|.|.|.|.|.|.5 5 5 2 2 5 5 5 |.|.|.|.|.|.|.|.|.|.|.|.|.|.|.|.|.|.|.|.",
"B.c.g.i.D m v / W W W ~ T } !.P P L ].].(.].L P P !.} T W W W W / v m D i.g.c.B.B.c.g.i.D m v / W W W ~ T } !.P P L ].].(.].L P P !.} T W W W W / v m D i.g.c.B.|.|.|.|.|.|.|.|.|.|.|.|.5 5 5 5 5 5 5 2 |.|.|.|.|.|.|.|.|.|.|.|.|.|.|.|.|.|.|.|.",
"B.B.n.c.k.r.B g 0   7 . = T  .(.L L ].].].].L L (. .T = . 7   0 g B r.k.c.c.B.B.B.B.n.c.k.r.B g 0   7 . = T  .(.L L ].].].].L L (. .T = . 7   0 g B r.k.c.c.B.B.|.|.|.|.|.|.|.|.|.|.|.|.5 5 5 5 5 5 5 5 |.|.|.|.|.|.|.|.|.|.|.|.|.|.|.|.|.|.|.|.",
"B.B.B.C.B.f.D s < < < 4 . & T X.Q.!.L P P L !.Q.X.T & . 4 < < 4 s D f.B.C.B.B.B.B.B.B.C.B.f.D s < < < 4 . & T X.Q.!.L P P L !.Q.X.T & . 4 < < 4 s D f.B.C.B.B.B.|.|.|.|.|.|.|.|.|.|.|.|.|.5 5 1 1 5 5 1 |.|.|.|.|.|.|.|.|.|.|.|.|.|.|.|.|.|.|.|.",
"|.|.|.L.C.f.D s 4 < < 4 7 . + R T  .].P P ]. .T R + . 7 4 < < 4 s D f.C.L.|.|.|.|.|.|.L.C.f.D s 4 < < 4 7 . + R T  .].P P ]. .T R + . 7 4 < < 4 s D f.C.L.|.|.|.|.|.|.|.|.|.|.|.|.|.|.|.Q % = = = = = E O.|.|.|.|.|.|.|.|.|.|.|.|.|.|.|.|.|.|.|.",
"|.|.|.z.f.r.B g 0 7 7 3 4 4 3 . R ]  .T.T. .] R . 3 4 4 3 7 7 0 g B r.f.z.|.|.|.|.|.|.z.f.r.B g 0 7 7 3 4 4 3 . R ]  .T.T. .] R . 3 4 4 3 7 7 0 g B r.f.z.|.|.|.|.|.|.|.|.|.|.|.W././././././././././././.L ].]./.|.|.|.|.|.|.|.|.|.|.|.|.|.|.|.",
"|.|.|.Z Z m 6.( R $ o 3 < < < 3 o = R W W R = o 3 < < < 3 o & W ( 6.m Z C |.|.|.|.|.|.C Z m 6.( W $ o 3 < < < 3 o = R W W R = o 3 < < < 3 o $ R ( 6.m Z Z |.|.|.|.|.|.|.|.|.|.X O Q o./.L ].L L ].L L ].].].].].].|.|.|.|.|.|.|.|.|.|.|.|.|.|.|.",
"|.|.|.w t f ^ @.X.T = 7 4 4 3 7 7 0 . . . 0 0 7 7 3 4 4 7 = T X.+.^ f t w |.|.|.|.|.|.w t f ^ +.X.T = 7 4 4 3 3 7 0 . . . 0 0 7 7 3 4 4 7 = T X.@.^ f t w |.|.|.|.|.|.|.|.|.|.|.E ! %./.L ].].].].].].].].].].].].|.|.|.|.|.|.|.|.|.|.|.|.|.|.|.",
"|.|.|.< 4 o W } T.} ~ & + + * * * + + + + + + * * * * * = W T ` U $   4 < |.|.|.|.|.|.< 4   $ U ` T W = * * * * * + + + + + + * * * + * $ U } T.} W o 4 < |.|.|.|.|.m.m.x.|.|.P.].L ].].].].].]./.].].].].].].].].|.|.|.|.|.|.|.|.|.|.|.|.|.|.|.",
"3 3 4 < 4 o W X.!.^.} [ [ [ [ [ [ [ ` ` ` ` [ [ [ [ [ [ ` T W = @ . 7 4 > |.|.|.|.|.|.> 4 7 . @ = W T ` [ [ [ [ [ [ ` ` ` ` [ [ [ [ [ [ [  .^.!.X.W o 4 < 4 3 3 |.|.|.V.u.p q ! E.L L ].].].].].].].].].].].].].].].].|.|.|.|.|.|.|.|.|.|.|.|.|.",
"3 3 4 < 3 o R X.(.P L (.(.(.(.(.(.(.(.(.(.(.(.(.(.(.L L T.] & 0 4 4 4 3 t |.|.|.|.|.|.t 3 4 4 4 0 $ ] T.].L (.(.(.(.(.(.(.(.(.(.(.(.(.(.(.L P (.X.R o 3 < 4 3 3 |.|.|.m.h.H 8.<.).L L ].].].].].].].].].].].]./.L L L |.|.|.|.|.|.|.|.|.|.|.|.|.",
"3 3 4 < 3 o W } ].P P P P P P P P P P P P P P P P P P P ^.] = 7 < < 4 t l G z.|.|.z.G l t 4 < < 7 = ] ^.P P P P P P P P P P P P P P P P P P P ].} W o 3 < 4 3 3 |.|.|.t.d.x.v.A.#...Y.L ]./.L /.].].].].L ].L L E...&.>.|.|.m.m.m.|.|.|.|.|.|.|.",
"3 3 4 < 3 o R [ !.L P ].(.(.(.(.].].].].].(.].].].L P L T.] = 7 4 < 4 t c r.c.C.C.c.r.c t 4 < > 7 = ] T.L P L (.].].].].].(.].].].(.].].].L L !.[ R o 3 < 4 3 3 |.|.|.r x e.d.A d # _ /.L L /.L ].].].]././././.{ # d M l.m.V.V.|.|.|.|.|.|.|.|.",
"3 3 4 < 4 0 * W [ } T.(.P P L L L L ].].L L L L L L P P T.] = 7 < < 4 u C p.c.C.C.c.p.C u > < < 7 = ] T.P P L L ].L ].].L L L L L L P L (.T. .` W * 0 4 < 4 3 3 |.|.|.5 k u.h.S e 2 O E { /.P L ].L L %.I # = # O 2 e V h.V.V.|.|.|.|.|.|.|.m.V.",
"|.|.|.< 4 3 7 o = ~ X.(.P P P P L L L L P P P P P P P P T.] = 7 < < 4 t M p.c.C.C.c.p.M t 4 < < 7 = ] ^.P P P P L L L L P P P P L P P P !.X.~ = o 7 3 4 < |.|.|.|.|.|.5 i A F n - O 6 2 O I &././.W._ E X 1 1 1 . O : 9.l.V.|.|.|.|.|.|.|.u.H e.",
"|.|.|.0 0 0 0 0 o & T } R.R.Q.Q.Q.Q.$.$.Q.Q.Q.Q.Q.Q.R.Q.} T & o 7 9 t a Z p.c.B.B.c.p.Z a t 9 7 o & T  .R.R.Q.Q.Q.Q.$.$.Q.Q.Q.Q.Q.Q.R.R. .T & o 0 0 0 0 0 |.|.|.|.|.|.5 5 5 q ! %.{ % 6 2 6 = O.%.Q q 8 5 5 6 6 # _ -.3.j.h.|.|.|.|.|.x.a.A r 5 ",
"|.|.|.~ W W W W W W W W W W W W W W W W W W W W W W W W W W W W / b N D i.g.c.B.B.c.g.i.D N b / W W W W W W W W W W W W W W W W W W W W W W W W W W W W ~ |.|.|.|.|.|.5 5 1 . ! E./.W.O.# 6 5 . X q 5 1 1 6 % ' Y E O d h i r r A l.a.M p r 5 5 ",
"|.|.|.Q.Q.Q.T.R.} T & o 0 0 . . . . . . . . . . . . 0 0 o R ] *.1.S.s.k.z.z.B.B.B.B.z.z.k.s.S.1.*.] R o 0 0 . . . . . . . . . . . . 0 0 o & T  .R.T.Q.Q.Q.|.|.|.|.|.|.|.1 1 q Q W.P P /.&.! E E E E E E E Q } /.&.* , 1 , r z M F A x i , 2 5 5 ",
"|.|.|.P P P P P (.} ~ & + + + + + + + + + + + + + + + + = ~ } ~.`.}.G.F.J.b.n.M.M.n.b.J.F.G.}.`.~.} ~ = + @ + + + + + + + + + + + + + + $ ~ } (.P P P P P |.|.|.|.|.|.|.|.1 q Q W.L L ]./.].].].]./.].L /./.P /._ * 5 1 i x e.e.M 8 5 5 5 5 5 5 ",
"|.|.|.P P P P P L ^.} [ [ [ [ ` ` ` ` ` ` ` ` ` ` ` ` ` [ } U.].[.`.'.{.5.|.|.|.|.|.|.5.{.'.`.[.].U. .[ ` ` ` ` ` ` ` ` ` ` ` ` ` [ [ [ [  .^.L P P P P P |.|.|.|.|.|.|.|.1 q Q W.L L ].].].].].].].].].L L L L { O r V e.e.x r 8 8 2 8 5 5 5 5 ",
"|.|.|.Q.Q.Q.Q.Q.Q.Q. .Q.R.^.(.(.(.(.(.(.(.(.(.(.(.(.(.(.(.^.T.Q.R.^.(.(.|.|.|.|.|.|.|.|.(.(.^.R.Q.T.^.(.(.(.(.(.(.(.(.(.(.(.(.(.(.(.^.R.Q. .Q.Q.Q.Q.Q.Q.Q.|.|.|.|.|.|.|.|.Y ! Q E Y %.L P L P L L P L L P L P L ;.0.F S M z r 5 , 5 2 5 5 2 5 |.",
"|.|.|.W W W W W W W W ~ ] } (.P P P P P P P P P P P P P L  .] ~ ~ ` | |.|.|.|.|.|.|.|.|.|.| ` ~ ~ ]  .L P P P P P P P P P P P P P (. .] ~ W W W W W W W W |.|.|.|.|.|.|.|./.E.Y = # Y &.o.{ { { { { o.{ { { o.{ ,.q.e.S p i 8 2 2 5 5 5 5 |.|.|.",
"|.|.|.0 0 0 0 0 0 0 0 . = T  .(.P L ].].].].(.(.(.(.L L T.` R o . o |.|.|.|.|.|.|.|.|.|.|.|.o . o R ` T.L L (.(.(.].].].].].L L (. .T = . 0 0 0 0 0 0 0 0 |.|.|.|.|.|.5 * { /.]./._ # . q q q . . . . q . . . . q 6 y A t.H z 8 , 5 5 |.|.|.|.|.",
"|.|.|.4 4 4 4 4 4 < < 4 . & T [ } T.(.L L (.R.} [ [ [ [ ] W + 7 < |.|.|.|.|.|.|.|.|.|.|.|.|.|.< 7 + W ] [ [ [ [ } R.(.L L (.T. .[ T & . 4 < < 4 4 4 4 4 4 |.|.|.5 5 5 5 * &.L P ].E.&.' ' ' ' ' O.Y Y ' ' Y ' ' _ Y O.=.2.3.w.e.A |.|.|.|.|.|.|.",
"|.|.|.4 4 4 4 4 4 4 4 4 7 . + = R |.|.|.|.|.|.R = * * * * + o |.|.|.|.|.|.|.|.|.|.|.|.|.|.|.|.|.|.o @ * * * * = R |.|.|.|.|.|.R = @ . 7 4 4 4 4 4 4 4 4 4 |.|.|.5 5 5 5 X Q _ &./.].L P P L P P P L P L L L L L P P L P.{ ) 9.e.|.|.|.|.|.|.|.|.",
"|.|.|.|.3 3 3 3 3 3 3 3 3 3 3 3 |.|.|.|.|.|.|.|.3 3 3 3 3 3 |.|.|.|.|.|.|.|.|.|.|.|.|.|.|.|.|.|.|.|.3 3 3 3 3 3 |.|.|.|.|.|.|.|.3 3 3 3 3 3 3 3 3 3 3 3 |.|.|.|.5 5 5 5 2 6 6 |.|.|.|.|.|.|.|.|.|.|.].].].].].]././...Q . 5 5 5 5 |.|.|.|.|.|.|.",
"|.|.|.|.|.3 3 3 3 3 3 3 4 4 < |.|.|.|.|.|.|.|.|.|.|.< < |.|.|.|.|.|.|.|.|.|.|.|.|.|.|.|.|.|.|.|.|.|.|.|.< < |.|.|.|.|.|.|.|.|.|.|.< 4 4 3 3 3 3 3 3 3 |.|.|.|.|.|.|.|.|.|.|.|.|.|.|.|.|.|.|.|.|.|.|.|.|.|.|.|.|.|.# X q 5 5 5 , 5 5 5 |.|.|.|.|.",
"|.|.|.|.|.|.3 3 3 3 3 3 3 3 |.|.|.|.|.|.|.|.|.|.|.|.|.|.|.|.|.|.|.|.|.|.|.|.|.|.|.|.|.|.|.|.|.|.|.|.|.|.|.|.|.|.|.|.|.|.|.|.|.|.|.|.3 3 3 3 3 3 3 3 |.|.|.|.|.|.|.|.|.|.|.|.|.|.|.|.|.|.|.|.|.|.|.|.|.|.|.|.|.|.|.1 5 5 5 5 5 5 5 5 5 |.|.|.|.|.",
"|.|.|.|.|.|.|.3 3 3 3 3 3 |.|.|.|.|.|.|.|.|.|.|.|.|.|.|.|.|.|.|.|.|.|.|.|.|.|.|.|.|.|.|.|.|.|.|.|.|.|.|.|.|.|.|.|.|.|.|.|.|.|.|.|.|.|.3 3 3 3 3 3 |.|.|.|.|.|.|.|.|.|.|.|.|.|.|.|.|.|.|.|.|.|.|.|.|.|.|.|.|.|.|.|.5 5 5 5 5 5 5 5 5 5 |.|.|.|.|."
};
