/* XPM */
static char *result[] = {
/* columns rows colors chars-per-pixel */
"120 40 191 2 ",
"   c #BF570B",
".  c #BE5D0C",
"X  c #AF6F0A",
"o  c #BB640D",
"O  c #B56D0C",
"+  c #B8680D",
"@  c #AF760C",
"#  c #AD7C0D",
"$  c #B3720D",
"%  c #B8710F",
"&  c #BF6C11",
"*  c #B77510",
"=  c #BD7111",
"-  c #BB7C14",
";  c #B67C11",
":  c #C24307",
">  c #C54609",
",  c #CB440B",
"<  c #C64B0B",
"1  c #C94C0C",
"2  c #C4530C",
"3  c #CB510F",
"4  c #C15A0C",
"5  c #CF4F10",
"6  c #D34E12",
"7  c #CE5411",
"8  c #CC5C12",
"9  c #D15412",
"0  c #D35A15",
"q  c #D75D18",
"w  c #DA5C18",
"e  c #C56411",
"r  c #CC6414",
"t  c #C26D12",
"y  c #CB6915",
"u  c #CF6C18",
"i  c #D36417",
"p  c #D66218",
"a  c #D9641A",
"s  c #D16E1A",
"d  c #DD6B1E",
"f  c #C57315",
"g  c #C27A16",
"h  c #CB7719",
"j  c #CD781A",
"k  c #D1721A",
"l  c #DA751F",
"z  c #D47C1E",
"x  c #E0661E",
"c  c #E06A1F",
"v  c #DE7621",
"b  c #DC7921",
"n  c #E26E21",
"m  c #E47423",
"M  c #E87626",
"N  c #E67A26",
"B  c #E87A27",
"V  c #E77E28",
"C  c #EA7E29",
"Z  c #F27F2C",
"A  c #F2772B",
"S  c #7FCC0E",
"D  c #76D70D",
"F  c #7DD20F",
"G  c #77DA0F",
"H  c #79D90F",
"J  c #7ED310",
"K  c #7BDA10",
"L  c #9E8F0C",
"P  c #979209",
"I  c #9F940D",
"U  c #9C9C0E",
"Y  c #A7860E",
"T  c #AB820E",
"R  c #A48C0E",
"E  c #A2920E",
"W  c #AD8D12",
"Q  c #B48313",
"!  c #BB8115",
"~  c #B28A14",
"^  c #BD8D19",
"/  c #AB9213",
"(  c #AE9815",
")  c #BB951A",
"_  c #B59C1A",
"`  c #B89E1B",
"'  c #B59217",
"]  c #8FAD0D",
"[  c #96A50E",
"{  c #99A30F",
"}  c #94AB0F",
"|  c #8DB50E",
" . c #86BE0E",
".. c #8BBB0F",
"X. c #91B20F",
"o. c #9DA712",
"O. c #97AC10",
"+. c #9CAA12",
"@. c #8BBF10",
"#. c #97B613",
"$. c #9CB515",
"%. c #96BB14",
"&. c #9CB916",
"*. c #A2A413",
"=. c #ACA317",
"-. c #A7A917",
";. c #AAA718",
":. c #ACAF1B",
">. c #B6AF1F",
",. c #BDA01E",
"<. c #A7B319",
"1. c #AAB51B",
"2. c #A5BE1C",
"3. c #ADBD1F",
"4. c #BDAB21",
"5. c #BBB523",
"6. c #B5BB22",
"7. c #BCBB25",
"8. c #C08719",
"9. c #C68D1D",
"0. c #C5951E",
"q. c #DC8324",
"w. c #DB8A26",
"e. c #D48621",
"r. c #C79720",
"t. c #CE9222",
"y. c #CC9B24",
"u. c #D19123",
"i. c #DE972B",
"p. c #D69E29",
"a. c #D99B29",
"s. c #E38227",
"d. c #E58729",
"f. c #ED832C",
"g. c #EE8A2D",
"h. c #F1842E",
"j. c #F2882F",
"k. c #EA942F",
"l. c #E29B2E",
"z. c #E8992F",
"x. c #E4972D",
"c. c #F68630",
"v. c #F58D32",
"b. c #FB8C34",
"n. c #EC9630",
"m. c #E59F30",
"M. c #ED9D33",
"N. c #F69133",
"B. c #FA9536",
"V. c #F39B35",
"C. c #F89A37",
"Z. c #FE9739",
"A. c #FD9938",
"S. c #C6A323",
"D. c #C2AD23",
"F. c #CFA628",
"G. c #CCAD28",
"H. c #CAA224",
"J. c #D5A42A",
"K. c #DAA52C",
"L. c #D5AE2C",
"P. c #DBAA2E",
"I. c #C4B426",
"U. c #C6B428",
"Y. c #CAB329",
"T. c #C3B928",
"R. c #D5B12D",
"E. c #E1A52F",
"W. c #E6A130",
"Q. c #ECA233",
"!. c #E1A931",
"~. c #85C40F",
"^. c #88C10F",
"/. c #82C80F",
"(. c #87C410",
"). c #88C210",
"_. c #82CE10",
"`. c #8CCB14",
"'. c #95C617",
"]. c #99C217",
"[. c #92C916",
"{. c #9AC519",
"}. c #96C918",
"|. c #80D010",
" X c #88D314",
".X c #A3C21B",
"XX c #A8C31E",
"oX c #A0C91C",
"OX c #AEC221",
"+X c #B4C023",
"@X c None",
/* pixels */
"@X@X@X@X@X@X@X@X@X@X@X@X@X|.|.|.|.|.|.|.|.|.|.|.|.|.|.|.|.@X@X@X@X@X@X@X@X@X@X@X@X@X@X@X@X@X@X@X@X@X@X@X@X|.|.|.|.|.|.|.|.|.|.|.|.|.|.|.|.@X@X@X@X@X@X@X@X@X@X@X@X@X@X@X@X@X@X@X1 1 1 1 @X@X@XJ J _._.J J _.J J |.|._.@X@X@X@X@X@X@X@X@X@X@X@X@X",
"@X@X@X@X@X@X@X@X@X@X@X@X@X|.|.|.|.|.|.|.|.|.|.|.|.|.|.|.|.|.@X@X@X@X@X@X@X@X@X@X@X@X@X@X@X@X@X@X@X@X@X@X@X|.|.|.|.|.|.|.|.|.|.|.|.|.|.|.|.|.@X@X@X@X@X@X@X@X@X@X@X@X@X@X@X@X7 a n a 9 2 $ #.K K J J J J J J J J J J J _.|.@X@X@X@X@X@X@X@X@X@X@X",
"@X@X@X@X@X@X@X@X@X@X@X@XJ J J J |.F F F |.|.H |.H |.|.|.|.|.|.@X@X@X@X@X@X@X@X@X@X@X@X@X@X@X@X@X@X@X@X@XJ J J J J J J J J J J J |.|.K |.J |.|.@X@X@X@X@X@X@X@X@X@X@X@X@X@X1 7 m N.g.k * U )._.).@.| @.| | | %.). .).S J |.|.@X@X@X@X@X@X@X@X@X@X",
"@X@X@X@X@X@X@X@X@X@X@X|.|.|._.|._.|.|.|.|.|.|.|.|.|.|.|.|._.|.|.@X@X@X@X@X@X@X@X@X@X@X@X@X@X@X@X@X@X@X|.|._._._._.|._.|._._.|._._.|.|./.|.|.|.|.@X@X@X@X@X@X@X@X@X@X@X1 < < 9 m b.K.:.@.S S X.# . 4 . . . . 4   # #.J J |.|.|.|.@X@X@X@X@X@X@X@X",
"@X@X@X@X@X@X@X@X@X@X@XJ _...} [ [ [ [ [ [ [ [ [ O.[ [ [ X.^.|.|.@X@X@X@X@X@X@X@X@X@X@X@X@X@X@X@X@X@X@XJ _...} } } } } } } } } } } } } O.X.).|.|.@X@X@X@X@X@X@X@X< 1 < 1 7 d N h.N.L.{._.| E $ 2 , , , , , , , , . O R #._.J J _.@X@X@X@X@X@X@X@X",
"@X@X@X@X@X@XA.@X@X@X@XJ ).U # O $ $ $ $ $ $ $ $ $ $ $ $ Y } /.D @X@X@XA.A.@X@X@X@X@X@X@X@X@XA.@X@X@X@XJ ).U # O $ $ $ % $ $ $ $ $ $ O $ Y } _.H @X@X@XA.A.@X@X@X< 1 < 1 a f.A.A.A.K.1.+.T r 8 e o 8 0 0 0 8 e + . < . # } )._._.[.@X@XB.A.A.@X@X",
"@X@X@X@X@XA.A.Z.@X@X@X~.} T 4 < < 1 3 1 1 1 1 1 3 1 1 1 + E | /.@X@X@XA.A.@X@X@X@X@X@X@X@XA.B.A.@X@X@X~.} T 4 1 1 1 1 1 1 1 1 1 1 1 1 1 o E | /.@X@X@XA.A.@X@X@X1 1 1 1 p f.Z.A.B.g.u r v g.p.<.%.4.k.b.N.M.4.#.U O < 1 . # | `.6.M.A.A.Z.@X@X@X",
"@X@X@X@X@XA.B.A.@X@X@XR T + < , , , , , , , , , , , , , 2 $ Y E @X@X@XA.A.@X@X@X@X@X@X@X@XA.A.A.@X@X@XR T o < , , , , , , , , , , , , , 2 $ R E @X@X@XA.A.@X@X@XM m p 1 3 q m v.v.h.w 6 n v.x.^ ~ t.V.A.A.V.t.~ # b n w 1 X } `.7.V.Z.B.@X@X@X@X",
"@X@X@X@X@XA.A.A.@X@X@X. 4 2 1 1 1 1 1 1 1 3 1 1 1 1 1 1 1 2 4 4 @X@X@XA.A.@X@X@X@X@X@X@X@XA.A.A.@X@X@X. 4 2 1 1 1 1 1 1 1 1 1 1 1 1 1 1 1 2 4 4 @X@X@XA.A.@X@X@XA.N.C a 3 1 7 d V f.f t q.N.c.n q c h.j.j.V n p v h.N.V a g ;.3.U.Q.A.@X@X@X@X@X",
"@X@X@X@X@XB.A.A.A.@Xq 1 1 9 p y = $ t i a a p y t $ t i p 7 3 5 @X@XA.A.A.@X@X@X@X@X@X@X@XA.B.A.A.@X0 1 1 9 p y = % e p a a p y = $ t p 0 9 1 1 @X@XA.A.A.@X@X@X@X@XB.N.f.p 1 < 7 * [ %.5.Q.Z.B.c.m 7 3 9 q v c.N.A.B.A.N.N.V.M.V.@X@X@X@X@X@X@X",
"@X@X@X@X@XA.A.B.A.v.m 9 9 x V u.=.o.` w.f.Z f.u.;.+.` w.m w 7 q N A.A.A.A.@X@X@X@X@X@X@X@XA.A.A.A.v.n 9 7 x N u.=.o.` w.h.h.f.u.=.o.` w.m p 7 q V B.A.B.A.@X@X@X@X@X@X@XN.f.B q 1 $ ] /.[.3.G.Q.N.m 3 : . , m N.C.A.C.f.m d d n @X@X@X@X@X@X@X@X",
"@X@X@X@X@XA.A.A.A.N.m 0 0 M N.K.1.%.>.m.A.Z.A.J.1.%.5.W.j.c 3 p C A.A.A.A.@X@X@X@X@X@X@X@XA.B.A.A.N.m 0 0 M N.P.1.%.>.E.Z.A.C.J.1.%.5.E.j.x 7 p V B.A.Z.A.@X@X@X@X@X@X@X@XA.b.M d Q #.|.D J {.I.a.q.p q w w V N.B.b.V d 7 : 1 , 1 @X@X@X@X@X@X@X",
"@X@X@X@X@XA.A.A.A.N.m 0 0 m N.l.) / 0.z.A.A.A.i.) / 0.z.N.c 3 p C B.A.A.A.@X@X@X@X@X@X@X@XA.B.A.A.N.m 9 0 m N.l.) / 0.M.Z.A.A.l.) / y.M.v.d 7 0 C B.A.A.A.@X@X@X@X@X@X@X@X@X@Xb.v.J.3._.S J _._.].I.M.v.N.B.V.A.f.d 7 1 < < 1 < 1 1 1 @X@X@X@X@X",
"@X@X@X@X@XA.B.A.A.N.m 0 0 N N.f.k e l v.A.A.B.d.k e l v.j.c 7 a f.B.A.A.B.@X@X@X@X@X@X@X@XA.A.A.A.N.m 0 0 N N.f.k e l v.Z.A.A.f.k e l j.v.d 7 p f.Z.A.A.Z.@X@X@X@X@X@X@X@X@X@X@X@Xw.- T [ _.K K |.}.OXXX3.OXOX3._ & < , < 1 1 1 < 1 , @X@X@X@X@X",
"@X@X@X@X@X@XA.B.A.B.C x d f.B.h.c d N N.A.A.A.h.n c M v.j.C c m h.B.b.h.f.@X@X@X@X@X@X@X@X@XA.Z.A.B.V n x f.A.f.c a m j.A.A.A.f.c a m v.v.N d m j.B.N.h.f.@X@X@X@X@X@X@X@X@X@X@X@X@XO + R { | (./.^.} } } ] ] ] I + < 1 1 1 1 < 2 O $ @X@X@X@X@X",
"@X@X@X@X@X@X@XA.Z.Z.b.h.h.v.B.B.h.h.v.A.A.A.A.B.h.j.j.Z.B.N.h.c.B.B.f.d p @X@X@X@X@X@X@X@X@X@XA.A.B.v.h.j.j.B.A.h.j.N.A.A.A.A.B.h.h.v.B.B.v.h.v.B.A.f.d p @X@X@X@X@X@X@X@X@X@X@X@X@X_.@.R + # } ^.U o 2 2 4   2 2 < 1 1 1 1 1 o R @._.@X@X@X@X@X",
"@X@X@X@X@X@X@X@XQ.z.M.Q.V.V.A.B.A.B.B.N.j.N.j.B.B.B.B.A.B.V.Q.M.Q.n.b 7 1 @X@X@X@X@X@X@X@X@X@X@XZ.A.A.M.M.A.A.A.A.A.B.N.v.v.v.N.B.B.A.A.A.V.M.V.N.j.m q 1 @X@X@X@X@X@X@X@X@X@X@X@X@XK _. .{ E T O e 1 o R E $ < , < < , < o R [  .J K @X@X@X@X@X",
"@X@X@X@X@X@X@X@X7.7.T.7.Y.!.A.B.A.B.j.m n c n f.N.B.A.A.V.P.Y.+X7.5.8.4 < @X@X@X@X@X@X@X@X@X@X@X@X@XR.T.U.!.C.C.A.A.v.N n d m V v.A.A.A.V.P.U.H.q.c 0 1 > @X@X@X@X@X@X@X@X@X@X@X@XT U } )._.@.R O . < + E { ~ k p p p 6 < * O.J K J ).L @X@X@X@X",
"@X@X@X@X@X@X@X@X[.`.`.`..XG.V.Z.A.B.f.p 7 3 0 d f.B.B.B.W.5.{.`.`.%./ o < @X@X@X@X@X@X@X@X@X@X@X@X@X].[.2.G.V.A.A.N.B p 7 3 q d f.B.A.A.E.7.].o.; 8 1 1 1 @X@X@X@X@X@X@X@X@X@X@X1 1 1 o E ).J |...R 4 < 2 8 v v.A.Z.v.m 8 @ O._.S (.[ * 2 @X@X@X",
"@X@X@X@X@X@X@XY [ } ] O.*.0.d.v.B.B.f.d q p a n j.B.V.E.I..X/./...[ # . < , @X@X@X@X@X@X@X@X@X@X@X@XP [ *.0.d.h.j.V m a p 0 a d h.B.V.E.Y..X/.| L $ e i a @X@X@X@X@X@X@X@X@X< 1 1 < 1 1 o @X@XK /.~.X.( w.C j.C.A.A.C.y.*.| S (.O.T + 2 1 < 1 1 ",
"@X@X@X1 < < < . + $ @ $ $ e i m N.A.B.h.C f.f.c.b.V.P.6.{.`.|...I $ . 2 1 < 1 1 @X@X@X@X@X@X1 < > < . O % t p p p p m f.f.f.h.c.b.A.P.6.{.`././.| { ) q.h.@X@X@X@X@X@X@X@X1 1 1 1 1 1 2 @X@X@XJ /.'.2.I.W.A.A.A.Z.Z.M.5.`._.| U * 2 < 1 1 < 1 < ",
"@X@X@X1 1 3 7 7 3 1 1 1 1 1 1 p N j.V.V.z.V.M.M.V.W.5.[.|.H |.O.; 7 1 1 1 1 1 3 @X@X@X@X@X< 1 1 7 7 3 1 1 1 1 1 < 7 d f.N.V.M.M.V.W.5.[._.F J F |.`.5.E.A.@X@X@X@X@X@X@X@X@X@X@X@X@X@X@X_._.J @X@XQ.M.M.V.V.V.V.C.V.W.6.`.] # 2 < 1 1 1 1 1 < 5 ",
"@X< < < 3 p d a 7 , , , , > 1 7 a l u.D.7.7.7.7.I.5..X`.F D /.$.0.d q 1 < < 1 1 @X@X@X@X< < < 7 a d q 1 , > < < < 1 0 d q.y.I.7.7.6..X_.F F J F H  X6.Q.A.@X@X@X@X@X@X@X@X@X@X@X@X@X@X@XJ |.J |._.'.2.XXXX.XXXXXOX2.{.}._.).I @X@X@X@X@X@X@X@X@X",
"1 1 < 1 0 m h.C i 1 1 < 1 < 1 1 1 i ~ $.`.`.`.[.`.`.`.|.|.H /..XJ.j.m 0 1 1 1 1 @X@X@X1 1 < 1 p V h.m q 1 < 1 1 1 1 1 7 e / %.`.`.`.`._.|.J _.F F `.5.E.Z.@X@X@X@X@X@X@X@X@X@X@X@X@X@X@X@X|.|.J (.@.} [ [ [ [ [ ] ).J J |.@X@X@X@X@X@X@X@X@X@X@X",
"< 1 7 q c f.A.j.m a 9 3 1 < 1 3 0 r ! U } } }  ./.F D |.|.[..XI.!.B.h.d q 3 1 < @X@X@X1 7 7 a m v.A.f.c 0 7 < < < 1 9 0 y W o.} } ] .._.J J J /.| o.,.l.A.@X@X@X@X@X@X@X@X@X@X@X@X@X@X@X@X@X@X@X@X2 2 1 2 < 2 2 2 @X@X@X@X@X@X@X@X@X@X@X@X@X@X@X",
"< 3 p M j.B.B.B.N.f.c 7 < < 1 q m f.z % O O $ E ..F H F `.6.L.W.V.A.B.h.m p 1 > @X@X@X< 7 d f.v.B.B.B.c.N p 7 < < 7 p m N j O O O # U ~.J K S | R $ f @X@X@X@X@X@X@X@X@X@X@X@X@X@X@X@X@X@X@X@X@X@X@X1 1 5 < < < 1 @X@X@X@X@X@X@X@X@X@X@X@X@X@X@X",
"< 7 a f.N.B.B.A.A.j.m 0 < > 3 a f.N.s.y 4 1 2 $ U ../.~.$.S.k.B.B.A.B.A.v.m 0 7 @X@X@X1 0 m h.B.B.B.B.N.f.d 3 < < 7 c v.v.b e 4 < 4 # } ).(...o.# o 4 @X@X@X@X@X@X@X@X@X@X@X@X@X@X@X@X@X@X@X@X@X@X1 1 1 1 1 < 1 1 @X@X@X@X@X@X@X@X@X@X@X@X@X@X@X",
"< 3 0 d f.j.B.j.f.m a 3 < < 1 a h.V.i.' Y o 2 4 $ Y R Y Q h c A b.Z.A.A.A.f.m m @X@X@X1 7 p m f.v.B.v.V d 0 5 < < 7 n v.M.y.W @ . 1 o # Y Y R Y Y Y Y @X@X@X@X@X@X@X@X@X@X@X@X@X@X@X@X@X@X@X@X@X@X1 1 < 1 1 < 1 1 @X@X@X@X@X@X@X@X@X@X@X@X@X@X@X",
"3 1 1 3 p f.N.h.d 3 1 1 < < 1 a h.V.G.<.[ T 2 1 2 4 4 o 4 2 8 c f.B.A.Z.B.B.N.v.@X@X@X1 1 1 7 d f.N.f.p 7 1 1 < < 7 d v.m.5.#.U O 2 1 4 . 4 o # o...).@X@X@X@X@X@X@X@X@X@X@X@X@X@X@X@X@X@X@X@X@X@X1 1 1 < 1 < 1 < @X@X@X@X@X@X@X@X@X@X@X@X@X@X@X",
"1 1 < < 0 N N.f.a 3 < < < < 1 a h.V.F.-.U X 2 2 o $ $ $ O $ $ ! y.J.Q.V.A.A.A.A.@X@X@X1 < < 1 a f.N.N 0 > < 1 < < 7 n v.M.D.o.R o 1 2 o O $ $ E | J K @X@X@X@X@X@X@X@X@X@X@X@X@X@X@X@X@X@X@X@X@X@X1 1 < < 1 1 1 1 @X@X@X@X@X@X@X@X@X@X@X@X@X@X@X",
"3 1 < < 0 N N.f.a 1 < < < < 1 a f.N.w.g + 2 1 + Y [ [ [ } } [ #.&.3.G.Q.A.Z.@X@X@X@X@X1 < < 1 a f.N.N 0 < < 1 < < 7 n v.n.e.= o 2 2 $ E } } } ..(.J J @X@X@X@X@X@X@X@X@X@X@X@X@X@X@X@X@X@X@X@X@X@X1 < 1 1 < 1 1 1 @X@X@X@X@X@X@X@X@X@X@X@X@X@X@X",
"1 1 < < 0 m h.C p 1 < < < < 1 a f.N.s.y . 4 . # [ /.|.|./.|.|.|.F `.5.W.Z.@X@X@X@X@X@X1 1 < 1 p V h.m 0 < < 1 < < 7 d v.v.b e . 4 o R ..|./.).(._._.@X@X@X@X@X@X@X@X@X@X@X@X@X@X@X@X@X@X@X@X@X@X@X1 1 1 1 1 < 1 1 @X@X@X@X@X@X@X@X@X@X@X@X@X@X@X",
"1 1 < < 3 p d a 3 < < 1 < < 3 a j.V.a.~ R R E } (.|.K K K K K H D /.@XW.@X@X@X@X@X@X@X1 < < < 7 p d p 3 < < < < > 3 n v.n.0.W R R U | _._.| U U | @X@X@X@X@X@X@X@X@X@X@X@X@X@X@X@X@X@X@X@X@X@X@X@X< 5 2 < 5 1 1 1 @X@X@X@X@X@X@X@X@X@X@X@X@X@X@X",
"1 1 1 1 1 7 7 7 3 1 1 1 1 < 1 a Z V.G.&.^.~.^.(._.|.|.|._.|.|.|.@X@X@X@X@X@X@X@X@X@X@X1 1 1 1 3 9 7 7 1 1 1 1 1 < 7 n v.M.5.%.~.~.)._._.@.R o . @X@X@X@X@X@X@X@X@X@X@X@X@X@X@X@X@X@X@X@X@X@X@X@X@X< < < < < 1 < 1 @X@X@X@X@X@X@X@X@X@X@X@X@X@X@X",
"< 3 0 p a p p p a a a a p p a c M d.H.].K G K (.X.[ } [ [ [ [ } @X@X@X@X@X@X@X@X@X@X@X1 3 q p p p p p p p a a p p p M v.W.+X`.~...} O.O.R $ 2 , @X@X@X@X@X@X@X@X@X@X@X@X@X@X@X@X@X@X@X@X@X@X@X@X@X1 < 1 < 1 1 1 < @X@X@X@X@X@X@X@X@X@X@X@X@X@X@X",
"@X@Xm f.f.f.f.f.f.f.f.f.f.f.f.M d p g @X@X@X@XE # $ $ $ $ $ $ $ @X@X@X@X@X@X@X@X@X@X@X@X@XN f.f.f.f.f.f.f.f.f.f.f.f.h.@X@X@X@XU T $ $ = O   1 , @X@X@X@X@X@X@X@X@X@X@X@X@X@X@X@X@X@X@X@X@X@X@X@X@X1 < < 5 < 1 < 1 @X@X@X@X@X@X@X@X@X@X@X@X@X@X@X",
"@X@X@XB.B.B.B.B.A.B.B.v.v.N.v.C p 1 < @X@X@X@X@X1 1 1 1 1 1 1 1 @X@X@X@X@X@X@X@X@X@X@X@X@XB.A.B.Z.B.B.B.B.B.B.A.A.B.B.@X@X@X@X@X1 1 1 1 1 1 1 1 @X@X@X@X@X@X@X@X@X@X@X@X@X@X@X@X@X@X@X@X@X@X@X@X@X1 < < 1 1 < 1 1 @X@X@X@X@X@X@X@X@X@X@X@X@X@X@X",
"@X@X@X@X@X@X@X@X@XB.f.m m m m a 7 < > @X@X@X@X@X@X@X, @X@X, @X@X@X@X@X@X@X@X@X@X@X@X@X@X@X@X@X@X@X@X@X@X@X@X@X@X@X@X@X@X@X@X@X@X, , 1 , 1 1 1 1 @X@X@X@X@X@X@X@X@X@X@X@X@X@X@X@X@X@X@X@X@X@X@X@X@X1 < 5 1 1 1 1 1 @X@X@X@X@X@X@X@X@X@X@X@X@X@X@X",
"@X@X@X@X@X@X@X@X@X@X@X9 7 7 7 7 1 1 < @X@X@X@X@X@X@X@X@X@X@X@X@X@X@X@X@X@X@X@X@X@X@X@X@X@X@X@X@X@X@X@X@X@X@X@X@X@X@X@X@X@X@X@X@X1 1 1 1 1 1 1 1 @X@X@X@X@X@X@X@X@X@X@X@X@X@X@X@X@X@X@X@X@X@X@X@X@X@X@X< 1 < 1 1 @X@X@X@X@X@X@X@X@X@X@X@X@X@X@X@X",
"@X@X@X@X@X@X@X@X@X@X@X< < < < < < 1 1 @X@X@X@X@X@X@X@X@X@X@X@X@X@X@X@X@X@X@X@X@X@X@X@X@X@X@X@X@X@X@X@X@X@X@X@X@X@X@X@X@X@X@X@X@X1 1 1 1 1 1 1 1 @X@X@X@X@X@X@X@X@X@X@X@X@X@X@X@X@X@X@X@X@X@X@X@X@X@X@X@X1 1 < @X@X@X@X@X@X@X@X@X@X@X@X@X@X@X@X@X"
};
