/* XPM */
static char *result[] = {
/* columns rows colors chars-per-pixel */
"120 40 171 2 ",
"   c #BD5209",
".  c #BF5D0D",
"X  c #B5650A",
"o  c #BB640D",
"O  c #B56D0C",
"+  c #B96A0D",
"@  c #AF720B",
"#  c #AD7D0D",
"$  c #B3720D",
"%  c #B9720F",
"&  c #B07E0F",
"*  c #B97511",
"=  c #BC7D14",
"-  c #C24307",
";  c #C7470A",
":  c #CB460C",
">  c #C74C0B",
",  c #C84B0C",
"<  c #C4530C",
"1  c #CB520F",
"2  c #C15A0C",
"3  c #D14B10",
"4  c #CD5411",
"5  c #CC5B12",
"6  c #D15413",
"7  c #D25B14",
"8  c #DA5E19",
"9  c #CA6614",
"0  c #C66B14",
"q  c #D66218",
"w  c #DB651B",
"e  c #D46D1A",
"r  c #DD691E",
"t  c #C87317",
"y  c #C17915",
"u  c #CD7219",
"i  c #C57D18",
"p  c #CE7C1C",
"a  c #D7761E",
"s  c #D47C1E",
"d  c #E06A1F",
"f  c #DF6E20",
"g  c #DD7220",
"h  c #E16E20",
"j  c #E37323",
"k  c #E97526",
"l  c #E67A26",
"z  c #E87A27",
"x  c #EC7D29",
"c  c #7FCD0F",
"v  c #77D40D",
"b  c #7CD30F",
"n  c #77DA0F",
"m  c #78D80F",
"M  c #7FCF10",
"N  c #7ED310",
"B  c #7BD910",
"V  c #9F8B0B",
"C  c #9F970E",
"Z  c #9C9C0E",
"A  c #A6870D",
"S  c #AA830E",
"D  c #A48D0E",
"F  c #A8880E",
"G  c #A2920E",
"H  c #A98E10",
"J  c #B78113",
"K  c #BB8616",
"L  c #B48C15",
"P  c #BE8B19",
"I  c #AA9713",
"U  c #A79D13",
"Y  c #A99C14",
"T  c #B09215",
"R  c #BB951A",
"E  c #96A60F",
"W  c #99A30F",
"Q  c #94AB0F",
"!  c #8EB60F",
"~  c #8BBB0F",
"^  c #91B20F",
"/  c #9FA412",
"(  c #95AE10",
")  c #9FAA13",
"_  c #8FB710",
"`  c #8DBA10",
"'  c #97B513",
"]  c #9DB516",
"[  c #94BB14",
"{  c #9BB916",
"}  c #A4A514",
"|  c #A9A717",
" . c #ACAC1A",
".. c #B4A51B",
"X. c #BCA51F",
"o. c #B3AC1D",
"O. c #B9AA1F",
"+. c #A7B51A",
"@. c #A9B41B",
"#. c #A5BC1B",
"$. c #ACBD1F",
"%. c #AFBE20",
"&. c #B6B722",
"*. c #BCB623",
"=. c #B4BA21",
"-. c #BEB825",
";. c #CF821E",
":. c #C38B1B",
">. c #D2821F",
",. c #C5941F",
"<. c #DE8526",
"1. c #DD8826",
"2. c #DF8B28",
"3. c #C79C21",
"4. c #CC9B23",
"5. c #D39625",
"6. c #D29F27",
"7. c #D49E28",
"8. c #E28126",
"9. c #E58629",
"0. c #ED822C",
"q. c #E28C29",
"w. c #EE8D2F",
"e. c #F1842E",
"r. c #F2892F",
"t. c #E2962C",
"y. c #E2982C",
"u. c #F58630",
"i. c #F48C31",
"p. c #FB8E35",
"a. c #EE9230",
"s. c #ED9D33",
"d. c #F69133",
"f. c #FA9436",
"g. c #F39C35",
"h. c #FA9937",
"j. c #FE9639",
"k. c #FE9A39",
"l. c #C1A421",
"z. c #C6AC26",
"x. c #C8A925",
"c. c #CCAE29",
"v. c #D0A227",
"b. c #D6A22A",
"n. c #DBA52D",
"m. c #D2AB2B",
"M. c #DAAA2D",
"N. c #C4B226",
"B. c #C6B628",
"V. c #CBB229",
"C. c #D1B32C",
"Z. c #E0A62F",
"A. c #E5A331",
"S. c #E9A232",
"D. c #F2A136",
"F. c #85C30F",
"G. c #88C10F",
"H. c #81CC0F",
"J. c #86C610",
"K. c #88C210",
"L. c #82CC10",
"P. c #8BCB14",
"I. c #96C617",
"U. c #98C417",
"Y. c #91C915",
"T. c #9BC519",
"R. c #95CC18",
"E. c #9CC91B",
"W. c #80D010",
"Q. c #A3C21C",
"!. c None",
/* pixels */
"!.!.!.!.!.!.!.!.!.!.!.!.!.!.!.!.n W.b W.W.W.W.W.W.W.W.!.!.!.!.!.!.!.!.!.!.!.!.!.!.!.!.!.!.!.!.!.!.!.!.!.!.!.!.!.!.!.!.!.!.!.!.!.!.!.!.!.!.!.!.!.!.!.!.!.!.!.!.!.!.!.!.!.!.!.!.!.!.!.!.!.!.!.!.!.!.!.!.!.!.!.!.!.!.B N W.W.W.W.!.!.!.!.!.!.!.!.!.",
"!.!.!.!.!.!.!.!.!.!.!.!.!.!.!.!.~ F.H.L.W.W.W.W.W.W.W.!.!.!.!.!.!.!.!.!.!.!.!.!.!.!.!.!.!.!.!.!.!.!.!.!.!.!.!.!.!.!.!.!.!.!.!.!.!.!.!.!.!.!.!.!.!.!.!.!.!.!.!.!.!.!.!.!.!.!.!.!.!.!.!.!.!.!.!.!.!.!.!.!.!.!.!.!.!.G.L.W.W.W.W.!.!.!.!.!.!.!.!.!.",
"!.!.!.!.!.!.!.!.!.!., !.!.!.!.+ S G Q P.W.W.W.W.W.W.b b !.!.!.!.!.!.!.!.!.!.!.!.!.!.!.!.!.!.!.!.!.!.!.!.!.!.!.!.!.!.!.!.!.W.!.!.!.!.!.!.!.!.!.!.!.!.!.!.!.!.!.!.!.!.!.!.!.!.!.!.!.!.!.!.!.!.!.!.!.!.!.!.!.!.!.!.!.D ' c B W.W.v !.!.!.!.!.!.!.!.",
"!.!.!.!.!.!.!.!., , , , , , , > < o D G.W.B W.W.W.W.W.W.L.W.W.L.!.!.!.!.!.!.!.!.!.!.!.!.!.!.!.!.!.!.!.!.!.L.L.L.L.W.W.W.W.W.W.W.!.!.!.!.!.!.!.!.!.!.!.!.!.!.!.!.!.!.!.!.!.!.!.!.!.!.!.!.!.!.!.!.!.!.!.!.!., , , > . D c W.W.L.W.N W.!.!.!.!.!.!.",
"!.!.!.!.!.!.!., , , , , , , , , : < $ G ^ J.H.W.b W.P.T.T.Y.H.B B !.!.!.!.!.!.!.!.!.!.!.!.!.!.!.!.!.!.!.!.G Q ^ J.N N L.W.W.W.B b !.!.!.!.!.!.!.!.!.!.!.!.!.!.!.!.!.!.!.!.!.!.!.!.!.!.!.!.!.!.!.!.!.!.!.!., , , > : $ [ L.N L.Y.P.W.!.!.!.!.!.!.",
"!.!.!.!.!.!., , , , , , , , , , , > 2 O S Q H.n B W.#.V.V.#.P.b b W.W.W.W.!.!.!.!.!.!.!.!.!., , , , , , < + $ G ! W.N B W.W.L.W.b N b N W.!.!.!.!.!.!.!.!.!.!.!.!.!.!.!.!.!.!.!.!.!.!.!.!.!.!.!.!.!.!.!., , , , , ; 2 D K.B L.=.$.W.W.!.!.!.!.!.",
"!.!.!.!.!.!., , , , , , , , , , , , , > o D ! H.P.T.N.S.A.*.P.b b L.W.W.W.!.!.!.!.!.!.!.!., , , , , , , , , < $ Z ~ L.L.W.N W.L.P.Y.P.L.W.!.!.!.!.!.!.!.!.!.!.!.!.!.!.!.!.!.!.!.!.!.!.!.!.!.!.!.!.!.!., > , , , , , ; o Q B P.n.N.W.N !.!.!.!.!.",
"!.!.!.!.!.!.!.> > > ; , , ; > > > > : : < O A Y o.N.Z.g.S.*.P.b b W.W.W.W.W.W.!.!.!.!.!., , , , , , , , , : , 2 $ G Q J.N n b Y.Q.=.#.P.N b N !.W.!.!.!.!.!.!.!.!.!.!.!.!.!.!.!.!.!.!.!.!.!.!.!.!.!.!.!., > , , > ; , < D ' =.s.c.L.N W.!.!.!.!.",
"!.!.!.!.!.!.!.!., , , > > , , , ; > > ; > < 2 e q.s.h.h.A.=.P.b b W.W.W.W.W.W.W.!.!.!., , , , , , , , , , , , , < o D ` N b L.#.m.A.N.I.B b N L.W.W.W.!.!.!.!.!.!.!.!.!.!.!.!.!.!.!.!.!.!.!.!.!.!.!.!.!., , : , > > > > X P n.h.c.b N L.!.!.!.!.",
"!.!.!.!.!.!.!.!.q q 0 * % 0 q q q q 7 1 ; 7 w j r.j.j.k.A.=.P.n b W.W.W.W.W.W.W.!.!.!., , > > , , , , > > > > , : < $ Z ( { #.N.A.g.V.T.N b L.N W.W.W.!.!.!.!.!.!.!.!.!.!.!.!.!.!.!.!.!.!.!.!.!.!.!.!.!.!.4 < 2 4 4 1 > 1 f h.j.c.W.L.b !.!.!.!.",
", , !.!.!.!.!.!.e.9.,.} } ,.9.e.e.0.r 1 6 r x r.f.j.j.j.A.=.P.n b W.W.!.!.W.W.W.!.!.!.!.!.> ; , , , , , > > ; , , > . O = ,.b.A.h.g.V.I.N N M L.W.W.W.W.W.!.!.!.!.!.!.!.!.!.!.!.!.!.!.!.!.!.!.!.!.!.!.!.!.g J J r f 8 > 8 x j.j.B.W.B W.!.!.!.!.",
", , 4 !.!.!.!.!.j.g.z.] ] z.g.j.j.d.j 7 7 j d.j.j.j.f.f.y.O.[ H.H.L.B !.!.!.W.W.!.!.!.!.!.4 4 4 2 2 2 4 4 4 4 4 , , , 4 q x d.k.j.g.N.I.N c M N W.W.W.W.W.!.!.!.!.!.!.!.!.!.!.!.!.!.!.!.!.!.!.!.!.!.!.!.!.w. . .a.i.g 4 z f.j.j.N.W.W.W.W.!.!.!.",
"> 1 q 0.k.k.k.k.j.g.5.I I 5.g.k.k.f.j 7 7 j f.k.k.f.u.z a :.F W ~ L.B !.!.!.!.W.!.!.!.!.!.j j p L H K a j j j q 4 4 7 q j u.j.j.j.D.B.I.N n W.W.W.W.W.W.W.!.!.!.!.!.!.!.!.!.!.!.!.!.!.!.!.!.!.!.!.!.!.!.!.g. .o.h.j.z 4 0.h.j.i.3.` H.W.W.!.!.!.",
"> 4 r r.k.k.k.k.k.i.l 9 9 l f.k.k.d.j 7 7 j f.j.k.d.z q 1 < 2 # Q L.B !.!.!.!.!.!.!.!.!.!.f.d.b.@.[ o.y.f.f.r.l 7 5 q 0.f.f.j.j.j.g.z.T.M N W.L.!.!.!.W.W.!.!.!.!.!.!.!.!.!.!.!.!.!.!.!.!.!.!.!.!.%.g.j.j.h.P P k.j.z 4 u.D.j.z t G G.W.W.W.!.!.",
"> 1 w 0.k.k.k.k.k.f.0.r r x f.j.k.f.x w d x f.f.e.x r 4 : : , O Z L.!.!.!.!.!.!.!.!.!.!.!.k.h.n. .) X.s.k.k.j.0.w 4 r d.k.k.k.f.e.9.,.} ^ F.L.N !.!.!.W.W.!.!.!.!.!.!.!.!.!.!.!.!.!.!.!.!.!.!.!.N Q.g.j.j.h.e g h.k.z 4 0.j.i.q , o ! N W.W.!.!.",
"> , 7 !.!.!.!.k.k.f.i.e.e.i.f.k.k.f.i.e.e.p.f.u.j w 6 > : : , 2 S !.!.!.!.!.!.!.j.k.k.k.j.k.h.q.i * ;.a.k.k.j.0.7 4 r i.k.k.k.i.j 8 9 O S E J.B !.!.!.!.!.!.!.!.!.!.!.!.!.!.!.!.!.!.!.!.!.!.!.!.N T.g.j.h.f.f j h.k.x h i.f.x 6 : < Q N W.W.W.!.",
", , , !.!.!.!.!.k.k.k.j.j.k.k.k.k.h.g.g.s.S.g.q.a   . . 2 < > , !.!.!.!.!.!.!.!.i.d.f.f.k.k.f.0.w 7 j u.k.k.f.0.w 7 j e.j.j.u.z q , : , o G J.W.!.!.!.!.!.!.!.!.!.!.!.!.!.!.!.!.!.!.!.!.!.!.!.!.N P.!.!.j.h.i.r.f.j.i.u.j.u.8 : : > !.!.!.W.W.!.",
", , > !.!.!.!.!.k.k.k.k.k.k.j.j.j.h.A.V.*.-.*.o.I D D D S $ !.!.!.!.!.!.!.!.!.!.j l 0.i.k.j.h.r.z j x d.k.k.f.u.x k e.f.f.e.j q 6 : : : < # ` !.!.!.!.!.!.!.!.!.!.!.!.!.!.!.!.!.!.!.!.!.!.!.!.!.L.L.!.!.!.j.j.f.j.h.g.S.g.<.2 2 2 2 !.!.!.W.!.!.",
", , , !.!.!.!.!.f.f.f.h.h.h.h.j.j.g.V.Q.P.P.P.P.J.K.G.G.~ ^ !.!.!.!.!.!.!.!.!.!.4 4 7 !.!.k.k.f.f.d.f.f.k.k.k.f.d.d.f.h.u.j 7 1 , ; , , < !.!.!.!.!.!.!.!.!.!.!.!.!.!.!.!.!.!.!.!.!.!.!.!.!.!.!.` Y.!.!.j.h.j.j.j.k.S.B.N...F S S S !.!.!.!.!.!.",
"> , 7 !.!.!.!.r z 0.0.0.0.y.n.M.M.m.$.P.c v b b n b W.B b n !.!.!.!.!.!.!.!.!.!.> > - !.!.k.k.k.k.k.k.j.k.j.h.g.A.M.M.M.v.:.$ $ $ $ o < , !.!.!.!.!.!.!.!.!.!.!.!.!.< , , , , , , , , , , , > < ( T.g.j.h.j.h.j.h.j.M.E.E.` ` ` ` ` !.!.!.!.!.!.",
"> 1 w 0.i.j 4 1 7 q 8 8 u R $.Q.Q.Q.Y.L.b b b b n n b b W.m W.Q $ < !.!.!.!.!.!.> ; - !.!.j.k.k.k.k.j.k.k.j.h.Z.*.Q.Q.Q.#.] E Q Q E Z !.!.!.!.!.!.!.!.!.!.!.!.!.!., , , , , , , , , , > , , , < W Q.g.j.j.f.h.f.u.u.4._ ! ` ` ` L.L.!.!.!.!.!.!.",
"> 1 j r.i.h 6 > ; > < 2 $ Z F.b N L.L.P.P.P.P.P.P.P.P.H.W.W.~ Z O > : !.!.!.!.!., , , !.!.f.i.i.d.d.f.f.k.j.j.M.=.Y.L.L.W.W.H.H.J.` ! !.!.!.!.!.!.!.!.!.!.!.!.!., , , , , , , , , , , , , , , > W Q.g.j.j.j.h.i.f f t D A A D F ( B W.!.!.!.!.!.",
"> 1 h i.i.j 1 ; ; > o # Z ! H.n n L.U.=.*.N.*.*.N.*.Q.P.H.^ G & 2 > , , !.!.!.!., < q 0.i.0.j d r k 0.f.k.k.h.A.m.=.T.W.n n N J.E G # o !.!.!.!.!.!.!.!.!.!.!.!.4 , , , , < > > > > 4 > , , , < E Q.g.j.h.h.j.0.4 4 4 < 2 2 2 2 D L.W.!.!.!.!.!.",
"> 1 h i.i.h 1 : : < # Q G.H.L.b B L.$.M.s.g.g.g.g.Z.-.I.~ D + < 1 , , , , !.!.!., 4 r r.i.j 7 1 < 7 j i.k.k.k.h.g.A.*.U.b n L.Q # . , , o Z ~ N !.!.!.!.!.!.!.!.> > , , , , , , , > > > , , , < W Q.g.n.A.h.j.x > > > > : : : : $ Q L.W.!.!.!.!.",
"> 1 d e.e.r 1 ; : 2 S ~ W.B W.b N P.*.s.j.j.j.j.j.g.v.} Z $ < : > > , , , !.!.!.> 4 j i.i.h 1   X * >.d.k.k.k.j.j.g.6.| ( ( E D o , : , . S / ( !.!.!.!.!.!.!.!.!.> > , , , > > , , , > , , , > W Q.s.N.N.h.j.x > > , : , , : , 2 S ! B !.!.!.!.",
"1 > 7 !.!.7 , , : 2 S ~ B W.W.b b P.*.S.j.j.j.j.k.f.2.y O 2 > , ; > , , , !.!.!., 4 d i.r.h 1 X V / l.s.j.j.k.k.k.f.<.y $ $ $ o < , , , < o $ $ !.!.!.!.!.!.!.!.!.!., , , , > 4 , , , , > 1 , < W Q.s.$.Q.g.g.8., > , , , , , , , . ^ B !.!.!.!.",
", , ; !.!.!., , , 2 S Q J.L.W.b b P.$.M.D.h.h.k.j.f.j 7 > > , , , , , , , !.!.!., 4 r r.r.d 6 $ E P.Q.M.D.h.h.k.k.f.l 7 > > ; > , , , , , , > < !.!.!.!.!.!.!.!.!.!., , , , > > , , , , , , , < ! T.s.Q.Q.D.C.:., : , : , , , , : < ^ B !.!.!.!.",
", , > !.!.!.!., !.< $ S Z ! L.m B W.I.%.V.A.h.j.j.f.k 6 : > , , , , , , , !.!.!., < q 0.x 8 < $ Q L.R.=.V.A.h.j.k.f.k 6 : : : , , , , , , : : . G !.!.!.!.!.!.!.!.!.!.!.!.!.!.!.!.!.!.!.!.!.!.!.J.L.!.!.!.!.E.Y , , , , , , , , , < ! B W.!.!.!.",
", , , !.!.!.!.!.!.!.!.2 $ Z G.W.B L.L.P.#.c.g.j.k.d.j 7 ; > , , > > > > , !.!.!., , 4 !.!.3 < $ Q J.W.P.Q.V.g.j.j.d.l 7 , , , , , , , , > > < O E L.!.!.!.!.!.!.!.!.!.!.!.!.!.!.!.!.!.!.!.!.!.!.W.N !.!.!.!.! Z + o o o < , , , < $ ~ B L.!.!.!.",
", , , !.!.!.!.!.!.!.!., < # Z Q Q W Q Q } O.m.M.M.b.s 5 > ; ; < o O o 1 ; !.!.!., , , !.!.!., O G Q F.c P.=.V.M.M.v.<.5 , : , , , , , , < . $ C ` N B !.!.!.!.!.!.!.!.!.!.!.!.!.!.!.!.!.!.!.!.!.N N b !.!.< # D Z Z W G < : : : + Z J.L.W.N !.!.",
", , , !.!.!.!.!.!.!.!.; , o + $ O O O O S Y @.Q.Q.$.L 2 ; : > + D W W !.!.!.!.!., , ; !.!.!.!.!.+ # Z F.W.P.T.Q.E.#.L 2 : : , , , , : : . # / ~ J.B B !.!.!.!.!.!.!.!.!.!.!.!.!.!.!.!.!.!.!.!.!.W.W.W.!.!., < # ! K.K._ O > < > S G.W.W.W.L.!.!.",
", , , !.!.!.!.!.!.!.!.2 2 2 2 o . . 2 . $ Z G.B b G.Z $ 2 < 2 S Q H.W.!.!.!.!.!., , , !.!.!.!.!., 2 # Q K.K.K.K.K._ G O 2 2 2 2 2 2 2 2 $ Z J.L.J.K.` !.!.!.!.!.!.!.!.!.!.!.!.!.!.!.!.!.!.!.!.!.!.W.W.!.!., : + E Q Q W S $ $ $ W N W.N L.^ G !.",
", !.!.!.!.!.!.!.!.!.!.G D D D D D D D D Z ! b n n b ~ Z G D G W G.B B B !.!.!.!., , , !.!.!.!.G . , . # D D D D D D D D D D D D D D D D Z ! W.J.Q D $ . !.!.!.!.!.!.!.!.!.!.!.!.!.!.!.!.!.!.!.!.!.!.!.!.!., : 2 $ $ $ $ Z Q E Q ` W.W.b W.F 2 , ",
"!.!.!.!.!.!.!.!.!.!.!.J.K.K.J.J.K.K.~ ~ K.J.L.L.M L.J.K.~ ~ K.K.L.W.W.W.W.!.!.!., , : !.!.!.J.W $ < < 2 . . . . . o D ( K.J.K.K.K.K.K.K.J.L.L.Q # . < ; , !.!.!.!.!.!.!.!.!.!.!.!.!.!.!.!.!.!.!.!.!.!.!.!., < 2 2 2 2 + ^ L.L.L.L.W.W.L.' o , , ",
"!.!.!.!.!.!.!.!.!.!.!.W.W.B W.B B N J.! Q Q ( Q Q Q Q Q ! K.W.B B W.W.W.W.!.!.!., , : !.!.Z ( Z F $ $ $ O $ $ O O # C K.N N N N N N N N L.K.E D o , , , , !.!.!.!.!.!.!.!.!.!.!.!.!.!.!.!.!.!.!.!.!.!.!., < $ F S S S D G.B W.N B L.N ~ D < , , ",
"!.!.!.!.!.!.!.!.!.!.!.!.!.!.!.!.!.!.G # $ $ $ $ $ $ $ $ # G !.!.!.!.!.!.!.!.!.!.!.!.!., < o $ S Z Q Q Q ( E E E E ( ` L.N N N N N N N N J.W # o < , , , , !.!.!.!.!.!.!.!.!.!.!.!.!.!.!.!.!.!.!.!.!.!., , < Z ` ! ! ! ! L.W.B W.W.W.N W o ; , , ",
"!.!.!.!.!.!.!.!.!.!.!.!.!.!.!.!.!.!., > > > > > ; > > > > !.!.!.!.!.!.!.!.!.!.!.!.!.!., , , < $ Z ~ J.` K.J.L.L.L.L.L.W.N W.W.N W.L.L.J.Q # 2 , , , , , , !.!.!.!.!.!.!.!.!.!.!.!.!.!.!.!.!.!.!.!.!.!., , < G K.W.W.W.B W.W.W.W.W.W.! D , , , , ",
"!.!.!.!.!.!.!.!.!.!.!.!.!.!.!.!.!.; : ; , , , , > , , , : !.!.!.!.!.!.!.!.!.!.!.!.!.!.!., : , . # D G G C ( L.!.!.!.!.!.!.!.!.!.!.J.Q G # o > : , , , , !.!.!.!.!.!.!.!.!.!.!.!.!.!.!.!.!.!.!.!.!.!.1 > , < $ Z !.!.!.!.!.!.!.!.!.!.D o : , 1 !.",
"!.!.!.!.!.!.!.!.!.!.!.!.!.!.!.!., , , , , , , , , , , , , !.!.!.!.!.!.!.!.!.!.!.!.!.!.!.!., , < < 2 . 2 . !.!.!.!.!.!.!.!.!.!.!.!.!.!.2 2 < > , , , , !.!.!.!.!.!.!.!.!.!.!.!.!.!.!.!.!.!.!.!.!.!.!., > , , < 2 !.!.!.!.!.!.!.!.!.!.2 < , , , !.",
"!.!.!.!.!.!.!.!.!.!.!.!.!.!.!.!., , , , , , , , , , , , , !.!.!.!.!.!.!.!.!.!.!.!.!.!.!.!., , , , , : : : !.!.!.!.!.!.!.!.!.!.!.!.!.!.: , , , , , , , !.!.!.!.!.!.!.!.!.!.!.!.!.!.!.!.!.!.!.!.!.!.!., , , , , : !.!.!.!.!.!.!.!.!.!.: , , , !.!."
};
