/* XPM */
static char *result[] = {
/* columns rows colors chars-per-pixel */
"120 40 161 2 ",
"   c #B95608",
".  c #BF5D0C",
"X  c #B6660B",
"o  c #BB640D",
"O  c #B56D0D",
"+  c #B9690D",
"@  c #AB7109",
"#  c #AD7D0D",
"$  c #B3720D",
"%  c #B9720F",
"&  c #B0780D",
"*  c #BC7B14",
"=  c #C7470A",
"-  c #CB450C",
";  c #C74C0B",
":  c #C84B0C",
">  c #C4530C",
",  c #CB510F",
"<  c #C1590C",
"1  c #C8580F",
"2  c #CF4F10",
"3  c #CD5411",
"4  c #CD5912",
"5  c #D25513",
"6  c #D25A14",
"7  c #DA5E19",
"8  c #C36611",
"9  c #CB6715",
"0  c #C66B14",
"q  c #D26216",
"w  c #D66218",
"e  c #DA641B",
"r  c #D46D1A",
"t  c #DD6A1E",
"y  c #C87317",
"u  c #C17915",
"i  c #CD7219",
"p  c #D7761E",
"a  c #E06B1F",
"s  c #DD7420",
"d  c #E16E21",
"f  c #E47423",
"g  c #E97526",
"h  c #E67926",
"j  c #E97A27",
"k  c #ED7D29",
"l  c #7FCC0E",
"z  c #77D40D",
"x  c #7CD30F",
"c  c #77DA0F",
"v  c #78DB0F",
"b  c #7ED410",
"n  c #7BD910",
"m  c #9E970E",
"M  c #9C9C0E",
"N  c #A6860D",
"B  c #AA830E",
"V  c #A48C0E",
"C  c #A8880E",
"Z  c #A2920E",
"A  c #AB8D11",
"S  c #BD8216",
"D  c #B48C15",
"F  c #BE8B19",
"G  c #AA9713",
"H  c #A79D13",
"J  c #A99C14",
"K  c #B09215",
"L  c #BB961B",
"P  c #97A50F",
"I  c #99A30F",
"U  c #94AB0F",
"Y  c #8EB60F",
"T  c #8BBB0F",
"R  c #91B10F",
"E  c #9CA711",
"W  c #9EAB13",
"Q  c #8FB710",
"!  c #8DBA10",
"~  c #96B412",
"^  c #9DB716",
"/  c #92BD13",
"(  c #9DB917",
")  c #A4A615",
"_  c #A5A916",
"`  c #ABAC1A",
"'  c #B7A21C",
"]  c #B3AC1D",
"[  c #B9AA1F",
"{  c #A7B51A",
"}  c #A9B71B",
"|  c #A5BE1C",
" . c #ADBC1F",
".. c #AFBE20",
"X. c #B6B621",
"o. c #BCB623",
"O. c #B4BA21",
"+. c #BDB825",
"@. c #C58119",
"#. c #C38E1C",
"$. c #C4961F",
"%. c #D48220",
"&. c #DB8725",
"*. c #DD8826",
"=. c #DF8B28",
"-. c #CC9723",
";. c #C79C21",
":. c #CC9B23",
">. c #D39625",
",. c #D49926",
"<. c #E28126",
"1. c #E58629",
"2. c #EE832C",
"3. c #EE8D2F",
"4. c #F1842E",
"5. c #F1882F",
"6. c #E2982C",
"7. c #F68731",
"8. c #F58C32",
"9. c #FA8E34",
"0. c #EC9430",
"q. c #EE9D33",
"w. c #F69234",
"e. c #FA9436",
"r. c #F39C35",
"t. c #F99937",
"y. c #FE9739",
"u. c #FE9A39",
"i. c #C4A322",
"p. c #CDA326",
"a. c #C6A925",
"s. c #C8A925",
"d. c #CDAE29",
"f. c #D0A227",
"g. c #D7A52B",
"h. c #DBA72D",
"j. c #D3AB2B",
"k. c #DAA92D",
"l. c #C3B226",
"z. c #C6B628",
"x. c #CBB229",
"c. c #D1B32C",
"v. c #E0A62F",
"b. c #E5A331",
"n. c #EAA133",
"m. c #F2A236",
"M. c #83C60F",
"N. c #88C10F",
"B. c #81CB0F",
"V. c #86C510",
"C. c #89C110",
"Z. c #82CD10",
"A. c #8CCB14",
"S. c #94C617",
"D. c #93C916",
"F. c #9BC419",
"G. c #96CA18",
"H. c #9CCA1B",
"J. c #80D010",
"K. c #A3C31C",
"L. c None",
/* pixels */
"L.L.L.L.L.L.L.L.L.L.L.L.L.J.J.J.J.J.Z.J.J.v J.J.L.L.L.L.L.L.L.L.L.L.L.L.L.L.L.L.L.L.L.L.L.L.L.L.L.L.L.L.L.L.L.L.L.L.L.L.L.L.L.L.L.L.L.L.L.L.L.L.L.L.L.L.L.L.L.L.L.L.L.L.L.L.L.L.L.J.J.J.J.b n L.L.L.L.L.L.L.L.L.L.L.L.L.L.L.L.L.L.L.L.L.L.L.L.L.",
"L.L.L.L.L.L.L.L.L.L.L.L.L.J.J.J.J.J.J.J.Z.V.N.T L.L.L.L.L.L.L.L.L.L.L.L.L.L.L.L.L.L.L.L.L.L.L.L.L.L.L.L.L.L.L.L.L.L.L.L.L.L.L.L.L.L.L.L.L.L.L.L.L.L.L.L.L.L.L.L.L.L.L.L.L.L.L.L.L.Z.J.J.Z.Z.! L.L.L.L.L.L.L.L.L.L.L.L.L.L.L.L.L.L.L.L.L.L.L.L.L.",
"L.L.L.L.L.L.L.L.L.L.L.L.b x J.J.J.J.J.x Z.U Z B + L.L.L.L.: L.L.L.L.L.L.L.L.L.L.L.L.L.L.L.L.L.L.L.L.L.L.L.L.L.L.L.L.L.L.L.J.L.L.L.L.L.L.L.L.L.L.L.L.L.L.L.L.L.L.L.L.L.L.L.L.L.L.b b l b b Q V L.L.L.L.L.L.L.L.L.L.L.L.L.L.L.L.L.L.L.L.L.L.L.L.L.",
"L.L.L.L.L.L.L.L.J.J.J.Z.Z.J.J.J.J.J.x J.Q Z + > : : : , : : : : L.L.L.L.L.L.L.L.L.L.L.L.L.L.L.L.L.L.L.L.L.J.J.J.J.J.J.J.n J.Z.Z.L.L.L.L.L.L.L.L.L.L.L.L.L.L.L.L.L.L.L.L.L.L.J.J.b J.J.b Z.V . : : : 2 L.L.L.L.L.L.L.L.L.L.L.L.L.L.L.L.L.L.L.L.L.",
"L.L.L.L.L.L.L.b Z.b S.F.F.D.J.x J.J.N.Y Z $ > = : : : : > ; : : : L.L.L.L.L.L.L.L.L.L.L.L.L.L.L.L.L.L.L.L.x J.J.J.J.J.n Z.T ~ M B L.L.L.L.L.L.L.L.L.L.L.L.L.L.L.L.L.L.L.L.L.J.A.S.Z.b Z.Q $ = ; : 3 : L.L.L.L.L.L.L.L.L.L.L.L.L.L.L.L.L.L.L.L.L.",
"L.L.L.J.J.J.J.l l Z.K.d.d.K.Z.z z B.U C + < : : : : : : : : : : : : L.L.L.L.L.L.L.L.L.L.L.L.L.L.L.x x x x J.Z.Z.J.J.J.J.C.M & + < , : : : : : L.L.L.L.L.L.L.L.L.L.L.L.L.L.J.J. .O.l b V.V . - ; ; ; : : L.L.L.L.L.L.L.L.L.L.L.L.L.L.L.L.L.L.L.L.",
"L.L.L.J.l Z.J.x x A.O.b.q.l.S.A.A.Y Z o ; : : : ; : : : , : : : : : L.L.L.L.L.L.L.L.L.L.L.L.L.L.J.Z.A.A.A.A.x x n J.Z.M.U B < : : ; , : : : ; ; L.L.L.L.L.L.L.L.L.L.L.L.L.J.J.z.g.A.b U o : : : : : : ; : L.L.L.L.L.L.L.L.L.L.L.L.L.L.L.L.L.L.L.",
"L.J.J.J.J.b Z.b x A.o.n.t.k.l.] G N O > : = = = ; = = : = = = ; ; L.L.L.L.L.L.L.L.L.L.L.J.L.B.x x J.F.O. .F.Z.v J.J.R M B o : - : : : : : : ; : : L.L.L.L.L.L.L.L.L.L.L.J.x B.d.q...~ V > - ; ; : : ; : L.L.L.L.L.L.L.L.L.L.L.L.L.L.L.L.L.L.L.L.",
"J.J.J.J.J.Z.J.x x A.X.b.y.t.q.=.i < > : : : : : : : = > : : : : L.L.L.L.L.L.L.L.L.L.L.J.J.J.J.x x A.X.k.k.X.A.x x A.M +   : : : : : : : : : ; : ; ; L.L.L.L.L.L.L.L.L.L.J.J.Z.x.t.h.F X ; ; ; ; : - ; ; L.L.L.L.L.L.L.L.L.L.L.L.L.L.L.L.L.L.L.L.",
"J.J.J.J.J.J.J.x x A.O.b.u.u.y.7.f e 5 = , 6 w e e w 0 % % 0 w e L.L.L.L.L.L.L.L.L.L.J.J.J.J.J.x x A.X.q.r.d...( R I B < - - : : : : : : : : ; : ; ; L.L.L.L.L.L.L.L.L.L.J.b J.l.y.t.s , ; 3 3 3 < < 3 L.L.L.L.L.L.L.L.L.L.L.L.L.L.L.L.L.L.L.L.L.",
"J.J.J.L.L.J.J.J.b A.O.b.y.y.y.e.5.j a 4 , t k 2.2.1.$.) ) $.1.4.L.L.L.L.L.L.: , x J.J.J.J.J.B.x x A.X.b.t.n.h.-.* $ <   : - : : : : : - : : : - : L.L.L.L.L.L.L.L.L.L.L.J.b J.z.y.y.k 7 ; w d s $ F t L.L.L.L.L.L.L.L.L.L.L.L.L.L.L.L.L.L.L.L.L.",
"J.J.L.L.L.J.J.Z.Z./ [ 6.e.e.y.y.y.e.f 6 4 f e.u.u.r.a.( ( s.q.y.L.L.L.L.L., : : J.J.J.J.J.J.J.x x A.X.b.y.y.y.2.t 4 , : : 4 , 6 5 5 1 < < 1 4 , L.L.L.L.L.L.L.L.L.L.L.J.J.J.J.l.y.e.e.j 3 f 7.3.` ` 3.L.L.L.L.L.L.L.L.L.L.L.L.L.L.L.L.L.L.L.L.L.",
"J.L.L.L.L.J.J.N.P V u p j 8.y.y.u.e.f 1 5 f e.u.u.r.>.G K >.t.u.u.t.u.u.2.w , = J.J.J.J.J.J.J.x x J.O.b.u.u.y.e.k a 6 5 5 e a f h t * A G @.t h L.L.L.L.L.L.L.L.L.L.L.J.J.B.! ;.7.y.y.2.3 k u.t.] ` e.L.L.L.L.L.L.L.L.L.L.L.L.L.L.L.L.L.L.L.L.L.",
"L.L.L.L.L.n J.R B . > , w j e.u.y.e.f 6 6 f e.u.u.w.h 9 9 h w.u.u.t.u.u.5.t , : J.J.J.L.L.J.J.J.J.A.X.b.y.y.t.t.y.5.a 6 1 f 5.e.9.q.i.( ^ i.0.9.L.L.L.L.L.L.L.L.L.L.J.J.J.N.V y h y.y.4.3 h u.y.$.F t.y.y.r.| L.L.L.L.L.L.L.L.L.L.L.L.L.L.L.L.L.",
"L.L.L.L.L.L.B.M + : - = 5 e 2.5.e.9.k d t 2.e.u.y.t.k t t 2.e.u.u.u.u.u.2.e , = J.J.L.L.L.J.J.B.Y E L =.8.9.y.u.y.e.f 1 1 h y.y.u.r.p._ ) p.m.y.y.L.L.L.L.L.L.L.L.L.J.J.b Y + : w 8.y.5.3 j y.r.r r e.y.y.r.K.b L.L.L.L.L.L.L.L.L.L.L.L.L.L.L.L.",
"L.L.L.L.L.L.L.# < = - - - 5 w a 7.e.e.5.5.5.e.u.y.y.5.5.5.5.e.u.u.L.L.L.L.6 , : L.L.L.L.L.J.J./ Z $ 8 q t 2.y.u.u.e.f 6 6 f w.y.y.y.&.* * &.t.y.u.y.u.y.y.L.L.L.L.J.J.J.n U > - 3 j e.8.t 2.y.y.f f e.t.y.r.F.b L.L.L.L.L.L.L.L.L.L.L.L.L.L.L.L.",
"L.L.L.L.L.L.L.L.: : > < o < < p <.q.n.q.r.t.t.y.y.t.y.u.e.u.u.u.L.L.L.L.L., ; : L.L.L.L.L.L.Z.U $ ; - : 6 f 5.t.y.9.h 7 w h w.y.y.t.j 9 w j w.u.u.t.t.w.w.L.L.L.L.J.J.L.L.L.; - 3 7 k t.7.8.u.e.4.4.y.u.L.L.A.J.L.L.L.L.L.L.L.L.L.L.L.L.L.L.L.L.",
"L.L.L.L.L.L.L.L.L.L.$ B V V Z J [ o.o.l.d.v.t.y.y.y.y.u.u.u.u.u.L.L.L.L.L.= ; ; L.L.L.L.L.L.L.Z o ; - - : 5 d k 9.y.7.h g 7.t.y.y.t.7.g g 5.t.u.y.t.k f h L.L.L.L.L.J.L.L.L.< < > < <.n.r.t.y.u.e.e.y.L.L.L.Z.J.L.L.L.L.L.L.L.L.L.L.L.L.L.L.L.L.",
"L.L.L.L.L.L.L.L.L.L.Q N.N.N.V.V.A.G.A.A.K.d.r.y.y.t.e.e.e.y.t.t.L.L.L.L.L., : ; L.L.L.L.L.L.L.L.> : ; ; , , 4 t 2.t.t.w.w.e.y.t.y.u.w.w.w.t.y.y.L.L.6 3 4 L.L.L.L.L.L.L.L.L.B C B C ' z.z.b.y.t.y.u.t.y.L.L.A.! L.L.L.L.L.L.L.L.L.L.L.L.L.L.L.L.",
"L.L.L.L.L.L.L.L.L.L.v J.J.x J.x x z z z A. .j.k.k.h.6.2.2.2.2.j t L.L.L.L.6 , = L.L.L.L.L.L.L.L.L.> o O $ $ & S -.h.k.j.k.n.t.y.y.t.u.u.y.y.y.u.L.L.L.- ; L.L.L.L.L.L.L.L.L.Y Q ! ! / G.F.j.y.y.y.t.t.y.y.t.F.U > : : : : : : : 3 : : : : : L.L.",
"L.L.L.L.L.L.> $ U x v J.x x x x x x x x B.G.K.K.K.{ L i 7 e 7 6 3 3 f 8.5.t , : L.L.L.L.L.L.L.L.L.L.Z U U U U W ^ | K.K.X.j.r.y.y.y.y.y.u.y.u.u.L.L.L.; : L.L.L.L.L.L.L.L.L.b Z.! Q ! T ! :.5.8.e.t.y.y.y.t.K.P > : ; : : : : : ; : : : : : , L.",
"L.L.L.L.L.: = $ M N.B.Z.J.A.A.A.A.A.A.A.A.B.J.x b V.M O < : : ; = 3 t 5.5.t , - L.L.L.L.L.L.L.L.L.L.U Y V.V.B.x l Z.Z.A.K.d.r.y.y.t.t.w.w.8.w.t.L.L.L.; ; L.L.L.L.L.L.L.L.b b U N V N N N y t d 5.u.e.y.y.r.K.I > : : : : : : : : : : : : ; ; : ",
"L.L.L.L.: : : < # Z R B.A.H.o.z.o.o.l.l.O.F.J.z z l Y M # o > = = , f 7.5.p 4 = L.L.L.L.L.L.L.L.L.< $ V I Y b v c b S...x.b.r.u.y.t.5.g f d f j 8.8.t 3 : L.L.L.L.L.L.L.L.J.Z.V > . . > . 2 3 3 2.u.y.t.e.r.K.P > : : : : : > ; ; : : : : : : ; ",
"L.L.L.: : : : : > + V Y G.o.v.r.r.q.r.q.k. .A.x x b l M.U # . - = , t 8.5.f , - L.L.L.L.L.J.Z.P & > : < $ M V.x b A...k.q.t.t.u.y.w.h w 3 , 5 t 2.8.f 6 : L.L.L.L.L.L.L.b Z.U O - : - - : - : : j y.e.v.b.r.K.P ; : : ; : : : ; ; > : ; : : : : ",
"L.L.L.: : : : : - > $ Z ) f.w.y.y.y.y.y.b.o.A.x x J.n x T C . - = 5 t 2.5.t , = L.L.L.L.L.R U Z + ; - - 1 # I U U E L q.y.y.u.y.y.e.2.* O   : w 2.8.j 6 : L.L.L.L.L.L.L.b Y B < : : : - : : : : k u.t.o.l.q.K.P > : : : : 3 ; ; : : : ; : : : L.",
"L.L.L.: : > : : : : . $ u *.e.y.y.y.y.y.n.o.A.x J.J.b n T N < - : : 6 L.L.6 3 : L.L.L.L.L.$ $ + < : : : > o O $ @ * %.8.y.y.u.y.y.r.f.) m @ < 6 2.e.g 6 : L.L.L.L.L.L.L.n ! . ; ; : : : : : : > <.r.r. . .r.K.I = : : : : : : : : : > ; : : L.L.",
"L.L.L.: : : : : : : = : 6 f e.y.y.y.t.r.k. .A.x x Z.Z.V.U B < - : : L.L.L.: : : L.L.L.L.L.1 > - : : : ; : : : : > 3 t 8.u.u.y.t.r.b.+.G.Y N . 7 k 8.h 6 ; L.L.L.L.L.L.L.b Y < - : : : - - - - : #.c.m.F.K.q.G.Y < - : : : : : : : : : : : : L.L.",
"L.L.L.: : : = : : : : : 5 g e.y.y.e.v.x...G.b x n Z.Y M C % < L.: L.L.L.L.= : : L.L.L.L.U + : - : ; : : : : : - - 2 d 9.y.u.u.n.k.X.H.J.Y C . 5 f 8.t 5 : L.L.L.L.L.L.J.b ~ < - : : , : : : : : H H.L.L.L.L.A.M.L.L.L.L.L.L.L.L.L.L.L.L.L.L.L.L.",
"L.L.L.: : : : : : : : = 6 p w.y.y.r.x.| A.B.l Z.J.B.M % < L.L.L.L.L.L.L.L.> : : L.L.L.b Y C < - : : : : : : : : ; 3 t 3.u.u.t.k. .D.J.J.R B < : L.L.L.3 : L.L.L.L.L.L.l b T $ > : : - . o o o + M ! L.L.L.L.b J.L.L.L.L.L.L.L.L.L.L.L.L.L.L.L.L.",
"L.L.L.= > + + + > = - : 4 =.g.k.k.j.[ ) U P P U U M # < - L.L.L.L.L.L.L.L.: : : L.L.L.b T H B o 1 : - : : 2 : - - 3 i ,.k.k.j.+.G.Z.M.Y I & 1 L.L.L.L.; : L.L.L.L.L.b b b V.M o - - - > Z I M M Z # ; L.L.x b J.L.L.L.L.L.L.L.L.L.L.L.L.L.L.L.L.",
"L.L.L.L.L.I P V + : = = < D } K.K.} J B O O O O O + . : - L.L.L.L.L.L.L.L.: : : L.L.L.J.B.N.P V o : - - - - - - - > * ` K.K.K.G.J.A.U B O < L.L.L.L.L.: : L.L.L.L.L.Z.l b l V.B : > : O Q C.V.! # > ; L.L.J.J.J.L.L.L.L.L.L.L.L.L.L.L.L.L.L.L.L.",
"L.L.L.L.L.J.Z.U B < > > % P A.J.v M.M % o < . < o . . < < L.L.L.L.L.L.L.L.: : : L.L.L.T M.B.Z.P B < < < . < < < < o V U C.V.C.V.M.Y C o > < L.L.L.L.L.: ; L.L.L.L.Z ~ b l b b M $ $ $ B P U U P o - : L.L.J.J.L.L.L.L.L.L.L.L.L.L.L.L.L.L.L.L.L.",
"L.L.L.L.n n b ! P Z V m M Q l c n x Y M V V V V V A V V V L.L.L.L.L.L.L.L.L.L.: L.< $ B I R J.N.U Z V V V V V Z V V C V V C V V V B + ; 1 # M.L.L.L.L.; : L.L.L.: o C V.n J.J.! U U U M $ $ $ $ < - : L.L.L.L.L.L.L.L.L.L.L.L.L.L.L.L.L.L.L.L.L.",
"L.L.L.J.Z.b b Z.V.C.T ! V.Z.Z.b b Z.V.V.T N.T C.T C.C.C.C.L.L.L.L.L.L.L.L.L.L.L.; ; : 1 $ M M.J.N.N.C.N.N.A.N.N.M.Y Z $ < o . . . . > > o Z M.b L.L.L.; : L.L.L.: : o R J.J.J.J.Z.Z.Z.R + < < < < < : L.L.L.L.L.L.L.L.L.L.L.L.L.L.L.L.L.L.L.L.L.",
"L.L.L.J.b Z.J.b b b C.Q U U U U U U U U Y V.b n n b b b n L.L.L.L.L.L.L.L.L.L.L.; ; : : < B P R A.x v J.n J.J.J.n J.U B O O $ $ O $ O $ B m M E B L.L.: : L.L.L.: - < V ! Z.J.J.Z.b n C.C B B B C $ > - L.L.L.L.L.L.L.L.L.L.L.L.L.L.L.L.L.L.L.L.",
"L.L.L.L.L.L.L.L.L.L.Z # $ $ $ % $ $ $ $ # Z L.L.L.L.L.L.L.L.L.L.L.L.L.L.L.L.L.L.: : - : > < $ Z N.J.v J.J.J.n J.J.J.C.R U P P U P U Y U E V # o < : : L.L.L.L.L.: : : o P b J.J.b Z.b Z.T Y T R T Z > : : L.L.L.L.L.L.L.L.L.L.L.L.L.L.L.L.L.L.L.",
"L.L.L.L.L.L.L.L.L.L.L.: : ; > : : : > : > : L.L.L.L.L.L.L.L.L.L.L.L.L.L.L.L.L.L., ; : : : : > O I T Z.Z.J.J.J.J.J.J.J.J.B.Z.A.Z.M.C.C.C.E # < : ; : L.L.L.L.L.L.: : - : C T b Z.J.J.J.J.J.J.J.J.V.Z < ; , L.L.L.L.L.L.L.L.L.L.L.L.L.L.L.L.L.L.L.",
"L.L.L.L.L.L.L.L.L.L.L.: = : - : : : = - - : - L.L.L.L.L.L.L.L.L.L.L.L.L.L.L.L.L.L.: : : : - : . & V I T L.L.L.L.L.L.L.L.L.L.L.Y M Z Z Z B + : - : L.L.L.L.L.L.L.L.: : : + C L.L.L.L.L.L.L.L.L.L.M $ : ; ; : L.L.L.L.L.L.L.L.L.L.L.L.L.L.L.L.L.L.",
"L.L.L.L.L.L.L.L.L.L.L.: : : : : : : : : : : : : L.L.L.L.L.L.L.L.L.L.L.L.L.L.L.L.L.L.L.: : : : , < < o L.L.L.L.L.L.L.L.L.L.L.L.L.o < > . . > : : L.L.L.L.L.L.L.L.L.: : ; > < L.L.L.L.L.L.L.L.L.L.< < : : ; ; L.L.L.L.L.L.L.L.L.L.L.L.L.L.L.L.L.L.",
"L.L.L.L.L.L.L.L.L.L.L.: : : ; : : ; : : ; : : : L.L.L.L.L.L.L.L.L.L.L.L.L.L.L.L.L.L.L.- : : , : - - - L.L.L.L.L.L.L.L.L.L.L.L.L.- - - - - : : ; L.L.L.L.L.L.L.L.L.L., ; - - L.L.L.L.L.L.L.L.L.L.- ; : : : : L.L.L.L.L.L.L.L.L.L.L.L.L.L.L.L.L.L."
};
