/* XPM */
static char *_7d341b0d9a544cdef85107334e3f7e8x790WrxIznrGvNBX[] = {
/* columns rows colors chars-per-pixel */
"40 40 154 2 ",
"   c None",
".  c #BD5209",
"X  c #BE5D0D",
"o  c #B4640A",
"O  c #BB640D",
"+  c #B66C0D",
"@  c #BA6C0E",
"#  c #AF720B",
"$  c #AD7D0D",
"%  c #B3720D",
"&  c #B97511",
"*  c #B87B12",
"=  c #C24307",
"-  c #CB460C",
";  c #C74B0B",
":  c #C84B0C",
">  c #C4530C",
",  c #CB520F",
"<  c #C15A0C",
"1  c #D14B10",
"2  c #CD5511",
"3  c #CC5B12",
"4  c #D25313",
"5  c #D25C15",
"6  c #DB5C19",
"7  c #C86412",
"8  c #D66218",
"9  c #DB651B",
"0  c #DC6A1D",
"q  c #C17915",
"w  c #C57D18",
"e  c #CE7C1C",
"r  c #D5781E",
"t  c #E1681F",
"y  c #E16E20",
"u  c #E37223",
"i  c #E97526",
"p  c #E67A26",
"a  c #E87A27",
"s  c #EC7D2A",
"d  c #7ECD0F",
"f  c #7CD20F",
"g  c #77DC0F",
"h  c #78D80F",
"j  c #7FCF10",
"k  c #7ED310",
"l  c #7BDB10",
"z  c #9F8B0B",
"x  c #9F970E",
"c  c #9C9C0E",
"v  c #A9850E",
"b  c #A48D0E",
"n  c #A2920E",
"m  c #A98F10",
"M  c #BB8616",
"N  c #B48C15",
"B  c #96A70F",
"V  c #99A30F",
"C  c #94AC0F",
"Z  c #8EB70F",
"A  c #8BBB0F",
"S  c #90B30F",
"D  c #9FA412",
"F  c #95AE10",
"G  c #9EAA13",
"H  c #8FB610",
"J  c #9BB214",
"K  c #96B914",
"L  c #98BA15",
"P  c #A5A214",
"I  c #A9A617",
"U  c #B0A71A",
"Y  c #BCA51F",
"T  c #B4AC1E",
"R  c #A8B11A",
"E  c #A4BB1A",
"W  c #ACBE1F",
"Q  c #AEBE20",
"!  c #BEB524",
"~  c #B3BA21",
"^  c #CF821E",
"/  c #C2881A",
"(  c #D2821F",
")  c #C6921E",
"_  c #DE8726",
"`  c #D29F27",
"'  c #D49E28",
"]  c #E58629",
"[  c #ED812B",
"{  c #E48D2A",
"}  c #F2812E",
"|  c #F2892F",
" . c #E1982C",
".. c #F58530",
"X. c #F48C31",
"o. c #FB8E35",
"O. c #EE9230",
"+. c #EA9C31",
"@. c #F59133",
"#. c #FA9436",
"$. c #F29C35",
"%. c #FA9937",
"&. c #FE9739",
"*. c #FE9A39",
"=. c #C1A421",
"-. c #C6AF26",
";. c #CCAE29",
":. c #D6A32A",
">. c #DCA42D",
",. c #D2AC2B",
"<. c #D9AB2D",
"1. c #C4B226",
"2. c #C6B428",
"3. c #E0A52F",
"4. c #E1A52F",
"5. c #E7A432",
"6. c #E4A430",
"7. c #E8A232",
"8. c #E9A032",
"9. c #F2A036",
"0. c #86C10F",
"q. c #86C20F",
"w. c #87C210",
"e. c #85C710",
"r. c #86C510",
"t. c #89C210",
"y. c #84C810",
"u. c #82CC10",
"i. c #82CD10",
"p. c #81CE10",
"a. c #80CF10",
"s. c #81CF10",
"d. c #83CF11",
"f. c #84CE11",
"g. c #82CD10",
"h. c #8BCB13",
"j. c #89CC13",
"k. c #8DCB14",
"l. c #8CCD14",
"z. c #95C617",
"x. c #97C617",
"c. c #95C616",
"v. c #98C417",
"b. c #91C815",
"n. c #92C816",
"m. c #99C518",
"M. c #9DC51A",
"N. c #95CA18",
"B. c #93CF18",
"V. c #80D010",
"C. c #80D110",
"Z. c #81D111",
"A. c #A5C01C",
"S. c #A2C31C",
/* pixels */
"                                                                                ",
"                                                                                ",
"                                          V.                                    ",
"                          u.u.u.u.V.V.V.V.V.V.V.                                ",
"                          x B Z e.k k V.V.V.V.k f                               ",
"            : : : : : : > O % n Z V.k k V.V.V.k f f f k V.                      ",
"          : : : : : : : : : > % c A u.u.V.k V.f.h.k.j.u.V.                      ",
"        : : : : : : : : : - : < % n C y.k h f b.W ~ A.k.k f V.  V.              ",
"      : : : : : : : : : : : : ; > O b A k f f.A.,.3.1.x.k f V.V.V.V.V.          ",
"      : : ; ; : : : : ; ; ; ; : - > % x F L E 1.7.$.;.m.k f V.V.V.V.V.          ",
"          ; ; : : : : ; ; ; ; : : ; X + * ) :.5.%.$.;.m.k f V.V.V.V.V.V.V.      ",
"          2 2 2 < < < 2 2 2 2 , : : : 2 8 a @.*.*.$.1.x.k f V.V.V.V.V.V.V.      ",
"          u u e N m M r u u u 9 2 , 5 9 i ..&.*.*.9.2.N.k h V.V.V.V.V.V.V.      ",
"          o.@.' R K T  .o.#.X.p 5 2 9 [ #.#.&.&.&.$.-.v.j f V.V.      V.V.      ",
"          *.%.>.U G Y +.*.*.*.[ 8 2 0 X.*.*.*.#...] ) P S 0.u.k       V.V.      ",
"*.*.*.*.*.*.%.{ w & ^ O.*.*.&.[ 5 2 0 X.*.*.*.X.u 8 7 @ v B e.k                 ",
"X.@.#.#.*.*.#.[ 9 5 u X.*.*.#.[ 9 5 u ..*.&.X.a 8 : - : O n w.k                 ",
"u p s X.*.*.%...a u s @.*.*.#...s i } o.o.} u 8 4 - - - > $ A                   ",
"2 2 5     *.*.#.#.@.#.#.*.*.*.#.@.@.#.%.X.u 5 , : ; : : >                       ",
"; ; =     *.*.*.*.*.*.*.*.&.%.$.6.<.<.<.` / % % % % O > :                       ",
"; ; =     *.*.*.*.*.*.*.*.&.%.3.! A.S.S.E J B C C B c                           ",
": : :     #.X.X.X.@.#.#.*.&.%.>.~ b.f.u.V.V.u.u.e.A S                           ",
"; , 8 [ X.s u y y u [ #.*.*.%.7.,.~ m.Z.h g k e.B n $ O                         ",
"; 2 0 | X.u 5 , , 5 u X.*.*.*.%.$.6.! x.f h u.C $ X ; : O x t.k                 ",
"; 2 y X.X.y , . o & ( @.*.*.*.&.&.$.` I C C B b O : - : X v V C                 ",
"; 2 y X...y 2 o z D =.+.&.&.*.*.*.#._ q % % % O > : : : > O % %                 ",
"; 2 0 | | t 2 # B k.W <.$.%.%.*.*.#.p 5 ; ; ; ; : : : : : : ; >                 ",
"; , 8 [ s 6 > % C V.B.~ ;.6.%.&.*.o.i 4 - - - : : : : : : - - X n               ",
": : 2     1 > % B y.Z.j.S.;.$.*.*.@.p 5 : ; : : : : : : : : > % B u.            ",
": : ;       : + n C 0.d l.Q ;.<.<.:.( 3 : - : : : : : : > X % n A V.l           ",
": : ;           @ $ c 0.V.l.M.S.S.E N < - - : : : : - - < $ V A y.k l           ",
": : :           ; < $ B t.t.t.t.t.H n + < < < < < < < < % c e.u.e.t.Z           ",
": : :         n X : X $ b b b b b b b b b b b b b b b b c A V.e.B b % X         ",
": : -       u.V % > > < X X X X < O b C t.e.t.t.t.t.t.t.e.u.u.C $ X > ; :       ",
": : -     c B c v % % % % % % + + $ x t.k k k k k k k k u.t.B b O : - : :       ",
"      : > O % v c C C C B B B B B C A u.k k k k k k k k e.c $ O > : : : :       ",
"      : : : > % c A t.A t.e.u.u.u.u.u.V.V.V.V.V.V.u.u.e.B $ < : : : : : :       ",
"        : - : X $ b n n x C u.                    e.B n $ O ; - : : : :         ",
"          : : > > < X X X                             X < > ; : : : :           ",
"          : : : : - - - -                             - : : : : : : :           "
};
