/* XPM */
static char *_f972cae2ffc43badb3431cd0dd5c6d6Sv2ClHkEkbycgNFR[] = {
/* columns rows colors chars-per-pixel */
"40 40 159 2 ",
"   c None",
".  c #BF5D0C",
"X  c #BA650D",
"o  c #B56D0C",
"O  c #B86A0D",
"+  c #AD7C0D",
"@  c #B3720D",
"#  c #B9720F",
"$  c #B07E0F",
"%  c #BF7E16",
"&  c #C7470A",
"*  c #CA460B",
"=  c #C74C0B",
"-  c #C84B0C",
";  c #C4530C",
":  c #CC510F",
">  c #C15A0D",
",  c #CD5310",
"<  c #CC5B12",
"1  c #D15513",
"2  c #D25A14",
"3  c #DA5E19",
"4  c #CB6715",
"5  c #C66B14",
"6  c #D66218",
"7  c #DA641B",
"8  c #DD691E",
"9  c #C17915",
"0  c #CE7019",
"q  c #D7761E",
"w  c #D27F1E",
"e  c #E06A1F",
"r  c #DF6E20",
"t  c #E06F20",
"y  c #E47423",
"u  c #E97426",
"i  c #E27B24",
"p  c #E87A27",
"a  c #EC7D29",
"s  c #7FCC0E",
"d  c #77D40D",
"f  c #7CD30F",
"g  c #77DA0F",
"h  c #7ED410",
"j  c #7BD910",
"k  c #9F970E",
"l  c #9C9C0E",
"z  c #A7860D",
"x  c #AA830E",
"c  c #A48D0E",
"v  c #A2920E",
"b  c #A98D10",
"n  c #B48C15",
"m  c #AA9713",
"M  c #A99C14",
"N  c #B09215",
"B  c #BB951A",
"V  c #96A50F",
"C  c #98A40F",
"Z  c #94AB0F",
"A  c #8DB60F",
"S  c #8ABD0F",
"D  c #90B20F",
"F  c #9FA913",
"G  c #9EB717",
"H  c #92BD13",
"J  c #9DB816",
"K  c #A3A614",
"L  c #A8A717",
"P  c #B5A91D",
"I  c #B9AA1F",
"U  c #A7B51A",
"Y  c #A9B71B",
"T  c #A5BD1B",
"R  c #ADBC1F",
"E  c #AFBE20",
"W  c #B6B722",
"Q  c #BCB623",
"!  c #B4BA21",
"~  c #BEB825",
"^  c #C4961F",
"/  c #DD8826",
"(  c #DF8B28",
")  c #D39625",
"_  c #E58629",
"`  c #ED832C",
"'  c #E08B28",
"]  c #F1842E",
"[  c #F1882F",
"{  c #E2962C",
"}  c #E2982C",
"|  c #F58730",
" . c #F48B31",
".. c #FB8F35",
"X. c #EE9D33",
"o. c #F79134",
"O. c #FA9436",
"+. c #F29C35",
"@. c #FA9937",
"#. c #FE9639",
"$. c #FE9A39",
"%. c #C6A925",
"&. c #C8A925",
"*. c #CDAE29",
"=. c #D0A227",
"-. c #D7A029",
";. c #DAA42C",
":. c #D1AA2A",
">. c #DAA92D",
",. c #C3B226",
"<. c #CBB229",
"1. c #E0A72F",
"2. c #E5A231",
"3. c #E6A231",
"4. c #E6A431",
"5. c #E6A532",
"6. c #E4A431",
"7. c #E9A132",
"8. c #EEA134",
"9. c #EAA032",
"0. c #82C70F",
"q. c #88C10F",
"w. c #80CC0F",
"e. c #87C410",
"r. c #86C510",
"t. c #88C210",
"y. c #89C110",
"u. c #83CB10",
"i. c #85C810",
"p. c #86C810",
"a. c #81CD10",
"s. c #82CC10",
"d. c #81CE10",
"f. c #81CF10",
"g. c #82CF10",
"h. c #82CF11",
"j. c #83CF11",
"k. c #85CE12",
"l. c #82CD10",
"z. c #88CB12",
"x. c #88CC13",
"c. c #8BCB14",
"v. c #8FC915",
"b. c #8CCB14",
"n. c #8ACD14",
"m. c #8ACF14",
"M. c #8CCB14",
"N. c #94C717",
"B. c #90C915",
"V. c #92C816",
"C. c #9DC319",
"Z. c #98C518",
"A. c #98C518",
"S. c #96CA18",
"D. c #80D010",
"F. c #81D010",
"G. c #80D110",
"H. c #80D110",
"J. c #A2C31B",
/* pixels */
"                                j h h h D.D.D.D.D.D.D.                          ",
"                                S t.i.a.D.D.D.D.D.D.D.                          ",
"                    -         O x v Z i.h h D.D.D.D.f f                         ",
"                - - - - - - - = ; X c S D.h D.D.D.D.D.a.a.D.D.D.                ",
"              - - - - - - - - - * ; @ k D e.a.h f D.b.C.C.B.a.h h               ",
"            - - - - - - - - - - - = > O x Z u.g g k.T <.<.T x.f f D.D.D.D.      ",
"            - - - - - - - - - - - - - - X c A i.z.Z.,.7.2.Q c.f f D.D.D.D.      ",
"              = = = & - - & = = = = * * ; o z M P ,.1.+.7.Q b.f f D.D.D.D.D.D.  ",
"                - - - = = - - - - - - - = ; > 0 ( X.@.@.2.W c.f f D.D.D.D.D.D.D.",
"                6 6 5 # # 5 6 6 6 6 2 : - 1 3 y | #.#.$.4.! n.g f D.D.D.D.D.D.D.",
"- -             ] _ ^ K K ^ _ ] ] a 8 , , 8 a | O.#.#.$.4.! n.g f D.D.    D.D.D.",
"- - ,           #.+.&.G J %.+.#.$.o.y 2 2 y o.$.$.#.O.O.} I H 0.w.D.h       D.D.",
"= : 6 ` $.$.$.$.$.+.) N N ) +.$.$.O.y 1 1 y O.$.$.O.| p q % b C S a.h         D.",
"= , 8 [ $.$.$.$.$.o.i 4 4 i o.$.$.o.y 2 2 y o.$.$.o.p 6 , ; . + Z a.j           ",
"= : 7 ` $.$.$.$.$.O.a 8 8 a O.$.$.O.a 8 e a O.O.| a 8 , * * - O l u.            ",
"= - 2         $.$.O. .] ]  .O.$.$.O. .] ] ..O.| y 3 1 - * * - > x               ",
"- - -           $.$.$.#.#.$.$.$.$.@.+.+.X.8.X.' 0 > . . > ; = -                 ",
"- - =           $.$.$.$.$.$.#.#.#.@.4.<.Q ~ Q P m c c c x @                     ",
"- - -           O.O.O.@.@.@.@.$.#.+.*.J.b.c.b.v.t.t.q.q.S D                     ",
"= - 2         8 p ` ` ` ` { ;.>.>.:.R c.f d f f g f h h h j                     ",
"= : 7 `  .y , , 2 6 3 3 0 B Y J.J.J.B.a.f f f f g g f h h j h Z @ ;             ",
"= , r  . .r , = & - ; > @ l e.h D.a.k.b.b.b.b.b.b.b.x.a.a.a.S l o = *           ",
"= , t  . .y , & & = X + l A s g g a.Z.! Q ,.Q Q ,.Q J.n.i.D v + . = - -         ",
"= , r  . .t , * * ; + Z e.a.a.f f x.R >.X.+.X.+.+.2.Q N.S c X ; = - - - -       ",
"= : 8 ] ] 8 : & * > x S h h D.f f b.Q 7.#.#.#.#.#.+.=.L l @ ; * - - - - -       ",
"= - 2     2 - - * > x S h h D.f f b.Q 7.#.#.#.$.$.O./ 9 O . = - - - - - -       ",
"- - -       - - - > x Z e.a.a.f f x.R >.+.@.@.$.$.O.y 2 = = - - - - - - -       ",
"- - =         -   ; @ x l A a.j j D.S.E <.4.@.$.$...u 1 * = - - - - - - -       ",
"- - -                 > @ l e.h h a.k.M.T *.+.$.$.o.y 2 & = - - = = = - -       ",
"- - -                 * ; + l Z Z C Z Z F I :.>.>.-.w < - * - ; X o X ; *       ",
"- - -                 * = . O @ o o o o $ M U J.J.U n > * * - X c C l           ",
"- - -                 . . . . . . . > . @ l e.h h e.l @ > ; . x Z u.h           ",
"-                     v c c c c c c c c l A f g g f S l v c v C t.h j j         ",
"                      t.t.t.t.t.t.t.S S t.e.a.a.a.a.i.t.S S t.e.a.D.h D.D.      ",
"                      h h h h j j h e.A Z Z Z Z Z Z Z Z D t.D.h h D.D.D.D.      ",
"                                    v + @ @ @ @ @ @ @ @ + v                     ",
"                                    = = = = = = = = = = =                       ",
"                                  * * * - - - - - - - - *                       ",
"                                - - - - - - - - - - - - -                       ",
"                                - - - - - - - - - - - - -                       "
};
