/* XPM */
static char *result[] = {
/* columns rows colors chars-per-pixel */
"40 40 100 2 ",
"   c #BF5D0D",
".  c #B6660B",
"X  c #BB640D",
"o  c #B66C0D",
"O  c #B9680D",
"+  c #AD7C0D",
"@  c #B3730D",
"#  c #CB450C",
"$  c #C64C0B",
"%  c #C84B0C",
"&  c #C4530C",
"*  c #CA520F",
"=  c #C1590C",
"-  c #CD5411",
";  c #D05312",
":  c #DA5E19",
">  c #D56017",
",  c #D76219",
"<  c #D46D1A",
"1  c #DD6C1E",
"2  c #C87317",
"3  c #C97718",
"4  c #E06B1F",
"5  c #DD7220",
"6  c #E16E21",
"7  c #E47323",
"8  c #E77926",
"9  c #EA7927",
"0  c #ED7C29",
"q  c #7BD30F",
"w  c #79D80F",
"e  c #7ED310",
"r  c #7CD810",
"t  c #9F970E",
"y  c #9C9C0E",
"u  c #A6870D",
"i  c #AA830E",
"p  c #A58B0E",
"a  c #A8880E",
"s  c #A2930E",
"d  c #B78113",
"f  c #B88013",
"g  c #BE8B19",
"h  c #A79D13",
"j  c #96A40E",
"k  c #99A30F",
"l  c #94AB0F",
"z  c #8EB60F",
"x  c #8CBA0F",
"c  c #91B10F",
"v  c #8FB710",
"b  c #8DBA10",
"n  c #97B513",
"m  c #ACAC1A",
"M  c #B7A21C",
"N  c #B0AE1C",
"B  c #A7BF1D",
"V  c #ABBC1E",
"C  c #BEB424",
"Z  c #B5B821",
"A  c #C38E1C",
"S  c #DE8225",
"D  c #C79C21",
"F  c #CC9B23",
"G  c #E28126",
"H  c #EE832C",
"J  c #EE8D2F",
"K  c #F2842E",
"L  c #F2892F",
"P  c #F58B32",
"I  c #EE9E33",
"U  c #FA9436",
"Y  c #F49C35",
"T  c #F99937",
"R  c #FF9639",
"E  c #FD9939",
"W  c #CBAF28",
"Q  c #DAA72D",
"!  c #D6AB2C",
"~  c #C4B126",
"^  c #C6B628",
"/  c #D1B32C",
"(  c #E0A52F",
")  c #E3A330",
"_  c #E9A533",
"`  c #F2A236",
"'  c #85C50F",
"]  c #88C10F",
"[  c #82CB0F",
"{  c #86C510",
"}  c #88C110",
"|  c #82CD10",
" . c #8DCB14",
".. c #92C114",
"X. c #93C916",
"o. c #9CC519",
"O. c #9CC91B",
"+. c #80D010",
"@. c #A4C21C",
"#. c None",
/* pixels */
"#.#.#.#.#.#.#.#.#.#.#.#.#.#.#.#.#.#.#.#.#.#.#.#.#.r e +.+.+.+.#.#.#.#.#.#.#.#.#.",
"#.#.#.#.#.#.#.#.#.#.#.#.#.#.#.#.#.#.#.#.#.#.#.#.#.] | +.+.+.+.#.#.#.#.#.#.#.#.#.",
"#.#.#.#.#.#.#.#.#.#.#.#.#.#.#.#.#.#.#.#.#.#.#.#.#.p c +.e +.+.q #.#.#.#.#.#.#.#.",
"#.#.#.#.#.#.#.#.#.#.#.#.#.#.#.#.#.#.#.#.#.% % % $   p +.e +.| e e +.#.#.#.#.#.#.",
"#.#.#.#.#.#.#.#.#.#.#.#.#.#.#.#.#.#.#.#.#.% % % % # @ z | e | X. .+.#.#.#.#.#.#.",
"#.#.#.#.#.#.#.#.#.#.#.#.#.#.#.#.#.#.#.#.% % % % % % = p } w | Z V +.+.#.#.#.#.#.",
"#.#.#.#.#.#.#.#.#.#.#.#.#.#.#.#.#.#.#.% $ % % % % % $ X l w  .Q ~ +.e #.#.#.#.#.",
"#.#.#.#.#.#.#.#.#.#.#.#.#.#.#.#.#.#.#.#.% $ % % $ $ % & p n Z I W | e +.#.#.#.#.",
"#.#.#.#.#.#.#.#.#.#.#.#.#.#.#.#.#.#.#.#.% % # % $ $ % % . g Q T W q +.| #.#.#.#.",
"#.#.#.#.#.#.#.#.#.#.#.#.#.#.#.#.#.#.#.#.#.- & = - - * % * 5 T R W +.+.+.#.#.#.#.",
"#.#.#.#.#.#.#.#.#.#.#.#.#.#.#.#.#.#.#.#.#.5 d d 1 4 : % : 0 R R ^ +.e +.#.#.#.#.",
"#.#.#.#.#.#.#.#.#.#.#.#.#.#.#.#.#.#.#.#.#.J m m J P 5 * 8 U R R ~ +.e +.+.#.#.#.",
"#.#.#.#.#.#.#.#.#.#.#.#.#.#.#.#.#.#.#.#.#.Y N N T E 8 - H E R P D b [ +.+.#.#.#.",
"#.#.#.#.#.#.#.#.#.#.#.#.#.#.#.#.#.B Y R R T g g E E 8 - K ` R 9 2 s ] +.+.+.#.#.",
"#.#.#.#.#.#.#.#.#.#.#.#.#.#.#.#.q @.Y R E U < 5 T E 8 - H R P , % X x e +.+.#.#.",
"#.#.#.#.#.#.#.#.#.#.#.#.#.#.#.#.q o.Y R T U 6 7 T E H 4 P U 0 ; # & l e +.+.+.#.",
"#.#.#.#.#.#.#.#.#.#.#.#.#.#.#.#.q  .#.#.E T L L U R P K R K : # # % #.#.#.+.+.#.",
"#.#.#.#.#.#.#.#.#.#.#.#.#.#.#.#.| | #.#.#.R R U R T Y I Y S = = = = #.#.#.+.#.#.",
"#.#.#.#.#.#.#.#.#.#.#.#.#.#.#.#.b X.#.#.R T E R E E _ ^ ^ M p a a i #.#.#.#.#.#.",
"#.#.& % % % % % % % % % % % % & l o.Y R T R T R E R ! O.O.b x b x x #.#.#.#.#.#.",
"#.% % % % % % % % % % $ % % % & j @.Y R R U T U P K F v x x x x | +.#.#.#.#.#.#.",
"% % % % % % % % % % % % % % % $ j @.Y R R R T P 6 4 3 u u u a p l e +.#.#.#.#.#.",
"* % % % % & % $ % % * $ % % % & j @.Y R T T R H - - * = = = = = p | +.#.#.#.#.#.",
"$ $ % % % % % % % % $ % % % % & j @.Y ( ) T R 0 % $ % % # # # # @ l | +.#.#.#.#.",
"#.% $ % % % $ % % % % $ % % % $ j @.I ~ C T R 0 % $ % # % % # % = i x r #.#.#.#.",
"#.#.% % % % $ * $ % % % $ * % & j @.I V @.Y Y G % $ % % % % % % %   c r #.#.#.#.",
"#.#.% % % % % % % % % % % % % & z o.I @.@.` / A % # % # % % % % # & c r #.#.#.#.",
"#.#.#.#.#.#.#.#.#.#.#.#.#.#.#.#.{ | #.#.#.#.O.h % % % % % % % % % = z r +.#.#.#.",
"#.#.#.#.#.#.#.#.#.#.#.#.#.#.#.#.+.e #.#.#.#.z y O X X X & % % % & @ x e +.#.#.#.",
"#.#.#.#.#.#.#.#.#.#.#.#.#.#.#.#.e e q #.#.& + p y y k s = # # # O y { +.+.e #.#.",
"#.#.#.#.#.#.#.#.#.#.#.#.#.#.#.#.+.+.+.#.#.% & + x } } v o % & % i ] +.+.+.| #.#.",
"#.#.#.#.#.#.#.#.#.#.#.#.#.#.#.#.#.+.+.#.#.% # O j l l k i @ @ @ k e +.e | c s #.",
"#.#.#.#.#.#.#.#.#.#.#.#.#.#.#.#.#.#.#.#.#.% # = @ @ @ @ y l j l b +.+.e | a   % ",
"#.#.#.#.#.#.#.#.#.#.#.#.#.#.#.#.#.#.#.#.#.% & = = = = O c | | | | +.+.+.c X % % ",
"#.#.#.#.#.#.#.#.#.#.#.#.#.#.#.#.#.#.#.#.% & @ a i i i p } r e e e +.e x p & % % ",
"#.#.#.#.#.#.#.#.#.#.#.#.#.#.#.#.#.#.#.% % & y x z z z x | e e e +.+.e k X % % % ",
"#.#.#.#.#.#.#.#.#.#.#.#.#.#.#.#.#.#.#.% % & s } +.+.+.e +.+.+.+.+.+.x a % % $ % ",
"#.#.#.#.#.#.#.#.#.#.#.#.#.#.#.#.#.#.* $ % & @ y #.#.#.#.#.#.#.#.#.#.p X # % * #.",
"#.#.#.#.#.#.#.#.#.#.#.#.#.#.#.#.#.#.% $ % % &   #.#.#.#.#.#.#.#.#.#.= & % % % #.",
"#.#.#.#.#.#.#.#.#.#.#.#.#.#.#.#.#.#.% % % % % # #.#.#.#.#.#.#.#.#.#.# % % % #.#."
};
