/* XPM */
static char *a3e0dd2862df4daa855588d7e77563aa6FRMMUCIE2Gb1ha7[] = {
/* columns rows colors chars-per-pixel */
"40 40 136 2 ",
"   c None",
".  c #BF570B",
"X  c #BF5D0D",
"o  c #BC620D",
"O  c #B66E0D",
"+  c #B8690D",
"@  c #AF770D",
"#  c #AD7C0D",
"$  c #B2730D",
"%  c #B0780D",
"&  c #BD7813",
"*  c #C7460A",
"=  c #CB440B",
"-  c #C74D0C",
";  c #C94B0C",
":  c #C3540C",
">  c #C8520E",
",  c #C15A0C",
"<  c #D24E11",
"1  c #CE5511",
"2  c #D05712",
"3  c #D65F17",
"4  c #D85B17",
"5  c #C36711",
"6  c #CD6916",
"7  c #D56117",
"8  c #D86319",
"9  c #DE6D1F",
"0  c #C77A18",
"q  c #C87C19",
"w  c #DA751F",
"e  c #DF6E20",
"r  c #DC7520",
"t  c #DE7922",
"y  c #E36F22",
"u  c #E47223",
"i  c #E87626",
"p  c #E87B27",
"a  c #77D70E",
"s  c #7DD10F",
"d  c #7ED410",
"f  c #7BD910",
"g  c #9F970E",
"h  c #9C9D0E",
"j  c #AA830E",
"k  c #A68B0E",
"l  c #A1920E",
"z  c #AF8711",
"x  c #B38512",
"c  c #B28B13",
"v  c #96A60F",
"b  c #98A40F",
"n  c #95AA0F",
"m  c #8FB50F",
"M  c #85BD0D",
"N  c #8BBB0F",
"B  c #90B10F",
"V  c #99A710",
"C  c #99A810",
"Z  c #8BBD10",
"A  c #90B710",
"S  c #A4A715",
"D  c #A1B718",
"F  c #BEB324",
"G  c #B7B922",
"H  c #C6811A",
"J  c #D58020",
"K  c #EE862D",
"L  c #EB8D2D",
"P  c #F2842E",
"I  c #F1882F",
"U  c #E39B2E",
"Y  c #F78E33",
"T  c #F88E33",
"R  c #F79034",
"E  c #FB9737",
"W  c #FA9636",
"Q  c #FA9436",
"!  c #F39D35",
"~  c #F89936",
"^  c #FA9937",
"/  c #F89A37",
"(  c #FA9937",
")  c #FF9639",
"_  c #FF963A",
"`  c #FF973A",
"'  c #FF9739",
"]  c #FB9838",
"[  c #FC9838",
"{  c #FD9838",
"}  c #FD9A39",
"|  c #FF9A3A",
" . c #FE9B3A",
".. c #FF9C3A",
"X. c #FF9C3B",
"o. c #FF9E3B",
"O. c #FD9939",
"+. c #C4A021",
"@. c #C2A923",
"#. c #CFAF2A",
"$. c #DCA92E",
"%. c #CAB229",
"&. c #E2A32F",
"*. c #ECA033",
"=. c #E9A232",
"-. c #FFA03C",
";. c #87C30F",
":. c #86C40F",
">. c #84C70F",
",. c #82C90F",
"<. c #86C410",
"1. c #87C410",
"2. c #86C510",
"3. c #85C610",
"4. c #85C710",
"5. c #87C410",
"6. c #89C010",
"7. c #88C110",
"8. c #89C110",
"9. c #83CA10",
"0. c #83CB10",
"q. c #84C810",
"w. c #84C910",
"e. c #82CC10",
"r. c #81CE10",
"t. c #81CF10",
"y. c #82CD10",
"u. c #97C417",
"i. c #91CD17",
"p. c #9FC71B",
"a. c #9EC51A",
"s. c #80D010",
"d. c #80D110",
"f. c #81D110",
"g. c #A8C01E",
"h. c #ADC220",
/* pixels */
"                    s.s.s.s.s.s.s.s.s.s.s.s.s.s.s.s.s.s.s.s.                    ",
"                    s.s.s.s.s.s.s.s.s.s.s.s.s.s.s.s.s.s.s.s.                    ",
"                s.s.s.s.s.s.s.s.s.s.s.s.s.s.s.s.s.s.s.s.s.s.s.s.                ",
"              s.s.s.s.s.s.s.s.s.s.s.s.s.s.s.s.s.s.s.s.s.s.s.s.s.s.              ",
"              d s.s.s.s.s.s.s.s.s.s.s.s.s.s.s.s.s.s.s.s.s.s.s.s.d               ",
"[ [ _         s s.s.s.s.s.s.s.s.s.s.s.s.s.s.s.s.s.s.s.s.s.s.s.s.s         _ [ [ ",
"[ ] ^         s s.s.s.s.s.s.s.s.s.s.s.s.s.s.s.s.s.s.s.s.s.s.s.s.s         ^ ] [ ",
"_ ^ *.#.p.f a s s.s.s.s.s.s.s.s.s.s.s.s.s.s.s.s.s.s.s.s.s.s.s.s.s a f p.#.*.^ _ ",
"_ ^ &.F u.r.s s s.s.s.s.s.s.s.s.s.s.s.s.s.s.r.s.s.s.s.s.s.s.s.s.s s r.u.F &.^ _ ",
"_ ^ U +.S B M ,.d f f d d d s.s.s.s.s.s.s.s.s.s.s.s.d d d f f d ,.M B S +.U ^ _ ",
"[ W L J & j h N s.f f f d d s.s.s.s.s.s.r.s.s.s.s.s.d d f f f s.N h j & J L W [ ",
"[ W I u 7 5 j b Z :.;.7.<.w.r.s.s.s.s.s.s.s.s.s.s.r.w.<.7.;.:.Z b j 5 7 u I W [ ",
"[ W T P i w 0 x k k k l h m 9.f f d s.s.r.s.d f f 9.m h k k k k x 0 w i P T W [ ",
"[ [ ^ W R K t 6 , . : X % h N r.d d s.s.s.s.d d r.N h % X : . , 6 t K R W W [ [ ",
"[ [ [ o.[ Y i 4 = = = ; X # h B 7.9.d f f d 9.7.B h # X ; = = ; 4 i Y [ o.[ [ [ ",
"      -.o.Y i 4 ; = = ; : X O j h N s.f f s.N h j O X : ; = = ; 4 i Y o.-.      ",
"      Q Y K t 6 , : : - ; ; - X j b N <.<.N b j X - ; ; - : : , 6 t K Y Q       ",
"      y u w H c k @ o - = = = - o % j k k j % o - = = = - o @ j c H w u u       ",
"      < 1 5 z V B h % : ; ; - - : , X X X , , : : - ; ; : % h B C z 5 1 <       ",
"      = ; . @ g v h k % $ $ $ $ $ O O O O O O $ $ $ O $ @ g m <.m k o ; =       ",
"      * ; : X + % k h v n n n n n n v v v v n n n n n n n N w.9.B k o ; = ; - - ",
"      1 - ; ; ; , @ b <.s.d r.r.r.r.r.r.r.r.r.r.r.r.r.r.r.d f r.B j o - = ; - - ",
"  Q p 8 1 ; = = : % b w.f f f f f f f f f f f f f f f f f f f s.m k o - = ; - - ",
"o.W K 9 1 ; = * : % b <.d f d r.s.s.s.s.s.r.s.s.s.r.s.s.s.d d 9.n j o - = ; - - ",
"o.W I y 2 * = = : % b <.f f d d s.d s.s.d d d d d d f d r.<.N v k $ , ; = ; - - ",
"o.W I e 1 ; = = : % b w.f f f f d d d d f f f f d f f f 9.B l % o : - ; =       ",
"[ W I u 3 1 > : o # h N 5.5.7.7.7.7.Z Z 7.7.7.7.7.7.5.5.N h # o , , , , ,       ",
"[ W T P i r q x k k k k k k k k k k k k k k k k k k k k k k k k k k k k l       ",
"[ [ Q Q R U @.D A b j o , , X X X X X X X X X X X X , , o # h N 5.<.7.7.7.      ",
"_ ^ ! =.$.%.h.i.0.m l % O + O O O O O O O O O O O O O O @ l m r.f f f f f       ",
"      G g.p.i.f.s.:.N n v v v v v v v v v v v v v n n n n N w.d f f f f f       ",
"        r.r.w.5.7.<.w.r.r.r.r.r.r.r.r.r.r.r.r.r.r.r.w.5.7.N 7.7.7.7.7.7.7.      ",
"          M v l l b N d f f f f f f f f f f f f f r.N b l k k k k k k k k       ",
"            o X o j v <.d d r.r.r.s.s.s.s.s.d d r.N h % X , , , , , , , ,       ",
"              = : O k b n n n n m 5.r.d d r.<.N n h # X ; = = ; ; ; ; ; ;       ",
"                  o + $ $ $ $ % j             j % + X : ; ; ; ; ; ; ; ; ;       ",
"                    - - - - - -                 - - - - - - - - - - - -         ",
"                        = =                       = ; ; - - - - - - -           ",
"                                                    - - - - - - - -             ",
"                                                      - - - - - -               "
};
