/* XPM */
static char *result[] = {
/* columns rows colors chars-per-pixel */
"40 40 91 1 ",
"  c #BF5D0D",
". c #BB630D",
"X c #B66A0C",
"o c #B96B0E",
"O c #AE770C",
"+ c #AE7B0D",
"@ c #B2730D",
"# c #B0780D",
"$ c #B77911",
"% c #B87F13",
"& c #C6470A",
"* c #CB450C",
"= c #C74C0B",
"- c #C84C0C",
"; c #C4530C",
": c #CB500E",
"> c #C05B0C",
", c #D24F11",
"< c #CD5410",
"1 c #CF5E14",
"2 c #D05713",
"3 c #D35A15",
"4 c #C76212",
"5 c #C86012",
"6 c #D16015",
"7 c #D76319",
"8 c #DA631A",
"9 c #DC691D",
"0 c #CD7F1C",
"q c #DF6E20",
"w c #E26E21",
"e c #E37423",
"r c #E87024",
"t c #E47B25",
"y c #EC7F2A",
"u c #7AD80F",
"i c #7ED410",
"p c #7BD910",
"a c #9F940D",
"s c #9E9A0E",
"d c #A9840E",
"f c #A58C0E",
"g c #A2910E",
"h c #B09816",
"j c #97A50F",
"k c #99A10F",
"l c #93AC0F",
"z c #8FB50F",
"x c #83BF0D",
"c c #8CBA0F",
"v c #91B10F",
"b c #99A510",
"n c #9EAE14",
"m c #8CBC10",
"M c #94B010",
"N c #9EB516",
"B c #96BA14",
"V c #9CBA17",
"C c #A3AA15",
"Z c #AFA319",
"A c #B1A319",
"S c #A8BE1D",
"D c #BEB123",
"F c #D98022",
"G c #D58C23",
"H c #C89420",
"J c #D79326",
"K c #DA9528",
"L c #ED832C",
"P c #EE8B2E",
"I c #F0852E",
"U c #F2892F",
"Y c #F68E33",
"T c #FA8E34",
"R c #EA9730",
"E c #F59434",
"W c #FB9437",
"Q c #F19C34",
"! c #FF9739",
"~ c #FD9A39",
"^ c #C8A424",
"/ c #C0AC23",
"( c #86C20F",
") c #88C20F",
"_ c #82C90F",
"` c #86C510",
"' c #88C010",
"] c #82CC10",
"[ c #8AC912",
"{ c #80D010",
"} c None",
/* pixels */
"}}}}}}}}}}}}}}}---}}}}}}}}}}}}}}}}}}}}}}",
"}}}}}}}}}}}}}}---=-}}}}}}}}}}}}}}}}}}}}}",
"}}}}}}}}}}}}-==-----}}}}}}}}}}}}}}}}}}}}",
"}}}}}}}}}}}}-:-=--=-}}}}}}}}}}}}}}}}}}}}",
"}}}}}}}}}}}}-----=-=}}}}}}}}}}}}}}}}}}}}",
"}}}}}}}}}}}}-=------}}}}}}}}}}}}}}}}}}}}",
"}}}}}}}}}}}}--=--=--}}}}}}}}}}}}}}}}}}}}",
"}}}}}}}}}}}}-=--:==-}}}}}}}}}}}}}}}}}}}}",
"}}}}}}}}}}}}--=--=--}}}}}}}}}}}}}}}}}}}}",
"}}}}}}}}}}}}--------}}}}}}}}}}}}}}}}}}}}",
"}}}}}}}}}}}}=-------}}}}}}}}}}}}}}}}}}}}",
"}}}}}}}}}}}}---==---}}}}}}}}}}}}}}}}}}}}",
"}}}}}}}}}}}}-------=}}}}}}}}}}}}}}}}}}}}",
"}}}}}}}}}}}}--------}}}}}}}}}}}}}}}}}}}}",
"}}}}}}}}}}}}}--**--*}}}}}}}}}}}}}}}}}}}}",
"}}}}}}}}}}}}f+#####db}}}}}}}}}}}}}}}}}}}",
"}}}}}}}}']]]]]]]]]]]]i{{]}}}}}}}}}}}}}}}",
"}}}}}}}.Xfv]i{ii{ii{{{{{{}}}}}}}}}}}}}}}",
"}}}}}}}}dgm]i{{{{{{{{{{{{}}}}}}}}}}}}}}}",
"}}!!W}}({i{{{{{{]{{{{{{{{}}}}}}}}}}}}}}}",
"}}}~I3>g`ii{{{{{{{{{{{{{{{{}}}}}}}}}}}}}",
"}}}!TyFA[ii{{{{{{{{{{{{]iii}}}}}}}}}}}}}",
"}}}PYWQ^nc_i{]i]{{{{i{ii`cMC}}!!!}}}}}}}",
"}}}<9LYe4Oj]ii]i{{{{]]]]lO4qE!~~}}}}}}}}",
"}}}-7ITr,=Xdl]pi{iimaO#OX=,wT~~}}}}}}}!~",
"}}}-2et0$X;=XaM]]'jd.*** X%GE~}}}}}}}IyL",
"}}}--->gml+;=;#bmf>:--;;OjBDRT}}}}}WUe<-",
"}}}--* g`]'bO;- .>-**;+ksdX462<<eEUq3<--",
"}}}}**>f'pp]Mgdddddddfz]M@&*&<8qte92&=--",
"}}}}}*>f'ii{]{{{{]{i]]p]j@-*29LLq:------",
"}}}}}*>f'ii{{{{{{{{{iiiilX<wLL9<::=:----",
"}}}}}sgfdsmipipiipiipipiVHtrq8<-&-=--=-}",
"}}}}}]`s#OsMvlllllvlllvlZJLr32:==----}}}",
"}}}-@l]{]jO >>>    >    >;1ePy8:&--}}}}}",
"----@Mip{`MkkkkkbsskkskkjsbNSDKLe}}}}}}}",
"----.fjM]{ippipppipiiiiippi(lhGL}}}}}}}}",
"----=;;}}}}}}}}}}}{{{{{{]]cf ----}}}}}}}",
"}}}}}}}}}}}}}}}}}}}}}}}}}O.>---&---}}}}}",
"}}}}}}}}}}}}}}}}}}}}}}}}}*---------}}}}}",
"}}}}}}}}}}}}}}}}}}}}}}}}}----------}}}}}"
};
