/* XPM */
static char *result[] = {
/* columns rows colors chars-per-pixel */
"40 40 127 2 ",
"   c #BF5D0C",
".  c #BA650D",
"X  c #B56D0C",
"o  c #B86A0D",
"O  c #AD7C0D",
"+  c #B3720D",
"@  c #B9720F",
"#  c #B07E0F",
"$  c #BF7E16",
"%  c #C7470A",
"&  c #CA460B",
"*  c #C74C0B",
"=  c #C84B0C",
"-  c #C4530C",
";  c #CC510F",
":  c #C15A0D",
">  c #CD5310",
",  c #CC5B12",
"<  c #D15513",
"1  c #D25A14",
"2  c #DA5E19",
"3  c #CB6715",
"4  c #C66B14",
"5  c #D66218",
"6  c #DA641B",
"7  c #DD691E",
"8  c #C17915",
"9  c #CE7019",
"0  c #D7761E",
"q  c #D27F1E",
"w  c #E06A1F",
"e  c #DF6E20",
"r  c #E06F20",
"t  c #E47423",
"y  c #E97426",
"u  c #E27B24",
"i  c #E87A27",
"p  c #EC7D29",
"a  c #7FCC0E",
"s  c #77D40D",
"d  c #7CD30F",
"f  c #77DA0F",
"g  c #7ED410",
"h  c #7BD910",
"j  c #9F970E",
"k  c #9C9C0E",
"l  c #A7860D",
"z  c #AA830E",
"x  c #A48D0E",
"c  c #A2920E",
"v  c #A98D10",
"b  c #B48C15",
"n  c #AA9713",
"m  c #A99C14",
"M  c #B09215",
"N  c #BB951A",
"B  c #96A50F",
"V  c #98A40F",
"C  c #94AB0F",
"Z  c #8DB60F",
"A  c #8ABD0F",
"S  c #90B20F",
"D  c #9FA913",
"F  c #9EB717",
"G  c #92BD13",
"H  c #9DB816",
"J  c #A3A614",
"K  c #A8A717",
"L  c #B5A91D",
"P  c #B9AA1F",
"I  c #A7B51A",
"U  c #A9B71B",
"Y  c #A5BD1B",
"T  c #ADBC1F",
"R  c #AFBE20",
"E  c #B6B722",
"W  c #BCB623",
"Q  c #B4BA21",
"!  c #BEB825",
"~  c #C4961F",
"^  c #DD8826",
"/  c #DF8B28",
"(  c #D39625",
")  c #E58629",
"_  c #ED832C",
"`  c #E08B28",
"'  c #F1842E",
"]  c #F1882F",
"[  c #E2962C",
"{  c #E2982C",
"}  c #F58730",
"|  c #F48B31",
" . c #FB8F35",
".. c #EE9D33",
"X. c #F79134",
"o. c #FA9436",
"O. c #F29C35",
"+. c #FA9937",
"@. c #FE9639",
"#. c #FE9A39",
"$. c #C6A925",
"%. c #C8A925",
"&. c #CDAE29",
"*. c #D0A227",
"=. c #D7A029",
"-. c #DAA42C",
";. c #D1AA2A",
":. c #DAA92D",
">. c #C3B226",
",. c #CBB229",
"<. c #E0A72F",
"1. c #E5A331",
"2. c #EAA032",
"3. c #82C70F",
"4. c #88C10F",
"5. c #80CC0F",
"6. c #87C510",
"7. c #89C110",
"8. c #82CD10",
"9. c #8CCB14",
"0. c #94C717",
"q. c #91C916",
"w. c #9BC419",
"e. c #96CA18",
"r. c #80D010",
"t. c #A2C31B",
"y. c None",
/* pixels */
"y.y.y.y.y.y.y.y.y.y.y.y.y.r.r.r.r.r.8.r.g g g g y.y.y.y.y.y.y.y.y.y.y.y.y.y.y.y.",
"y.y.y.y.y.y.y.y.y.y.y.y.y.r.r.r.r.r.r.r.8.6.7.A y.y.y.y.y.y.y.y.y.y.y.y.y.y.y.y.",
"y.y.y.y.y.y.y.y.y.y.y.y.g d r.r.r.r.g g 8.C c z o y.y.y.y.= y.y.y.y.y.y.y.y.y.y.",
"y.y.y.y.y.y.y.y.r.r.r.8.8.r.r.r.r.r.g r.Z x o - = = = = = = = = y.y.y.y.y.y.y.y.",
"y.y.y.y.y.y.y.g r.r.0.w.w.0.r.d g r.4.Z j X - & = = = = - = = = = y.y.y.y.y.y.y.",
"y.y.y.r.r.r.r.a a 8.t.&.&.t.8.s s 8.C z o   = = = = = = = = = = = = y.y.y.y.y.y.",
"y.y.y.r.a 8.r.d d 9.Q 1.2.>.0.9.9.Z c . % = = = = = = = ; = = = = = y.y.y.y.y.y.",
"y.r.r.r.r.g 8.g d 9.W 2.+.:.>.L n l X - = & % % * % % = % % % * * y.y.y.y.y.y.y.",
"r.r.r.r.g 8.g d d 9.E 1.@.+.../ 9 : - = = = = = = = = - = = = = y.y.y.y.y.y.y.y.",
"r.r.r.r.8.r.8.d d 9.Q 1.#.#.@.} t 6 < = ; 1 5 6 6 5 4 @ @ 4 5 6 y.y.y.y.y.y.y.y.",
"r.r.r.y.y.r.r.d g 9.Q 1.@.@.@.o.] i 7 > > 7 p _ _ ) ~ J J ~ ) ' y.y.y.y.y.y.= ; ",
"r.r.y.y.y.g r.8.8.G P { o.o.@.#.#. .t 1 , t o.#.#.O.$.H F %...@.y.y.y.y.y.> = = ",
"r.y.y.y.y.g 8.A B v 8 0 i | @.#.#.o.t , < t o.#.#.O.( M M ( +.#.#.+.#.#._ 5 ; % ",
"y.y.y.y.y.h 8.S z   - ; 5 i o.#.#.o.t 1 1 t X.#.#.X.u 3 3 u X.#.#.+.#.#.] 7 ; * ",
"y.y.y.y.y.y.8.k o = & % < 6 p } o. .p r r p o.#.#.+.p 7 7 _ o.#.#.#.#.#._ 6 ; % ",
"y.y.y.y.y.y.y.O : % & & & < 2 r } o. .} ] | o.#.#.@.| ' ' | o.#.#.y.y.y.y.1 ; * ",
"y.y.y.y.y.y.y.y.= = -       : 9 ) ..2...O.+.+.#.@.+.#.#.o.#.#.#.y.y.y.y.y.; * = ",
"y.y.y.y.y.y.y.y.y.y.X l x x x n P W ! >.&.<.+.@.@.@.#.#.#.#.#.#.y.y.y.y.y.% * * ",
"y.y.y.y.y.y.y.y.y.y.S A A 4.6.6.9.0.9.9.t.&.O.@.#.+.o.+.o.@.+.+.y.y.y.y.y.; * * ",
"y.y.y.y.y.y.y.y.y.y.f g g g g g d s s s 9.T ;.:.:.-.{ _ _ _ _ i 7 y.y.y.y.1 ; % ",
"y.y.y.y.y.y.- + C g h g g g g g d d d d 8.0.t.t.t.U N 9 2 6 2 1 > > t | ] 7 ; * ",
"y.y.y.y.y.& = X k 7.8.r.r.9.9.9.9.9.9.9.9.8.r.r.r.3.k X : = = * * > 7 ] ] 7 ; % ",
"y.y.y.y.= = =   O c S 8.9.w.W ! W W >.>.Q w.r.s s 5.Z k O . - % % > t | ] 0 , % ",
"y.y.y.= = = = = - o x Z 0.W 1.O.O...O...:.T 9.d d r.5.3.C O : & % > 7 | ] t ; % ",
"y.y.y.= = = = = & - + j J *.X.#.@.@.@.@.1.W 9.d d r.h d A l : & & > 7 _ ] 7 ; * ",
"y.y.y.= = - = = = =   X 8 ^ o.#.@.@.@.@.2.W 9.d r.r.g h A l : & = = 1 y.y.1 ; = ",
"y.y.y.= = = = = = = % = 1 t o.#.#.@.+.O.:.R 9.d d 8.8.6.C z : & = = y.y.y.= = = ",
"y.y.y.= = = & = = = = = < y  .@.@.+.1.,.R e.r.d h 8.Z k l @ : y.= y.y.y.y.% = = ",
"y.y.y.= = = = = = = = % 1 0 X.#.#.O.&.Y 9.5.5.r.r.3.k @ : y.y.y.y.y.y.y.y.- = = ",
"y.y.y.& - . X o - & & = , ^ =.:.:.;.P D C B B C C k O : & y.y.y.y.y.y.y.y.= = = ",
"y.y.y.y.y.k V x o = & & : b I t.t.U m z X X X X X o   = & y.y.y.y.y.y.y.y.= = = ",
"y.y.y.y.y.g 8.C z   - - @ V 9.r.h 6.k @ . : : : .     : : y.y.y.y.y.y.y.y.= = = ",
"y.y.y.y.h h g A B c x c k Z a f h d Z k x x x x x v x x x y.y.y.y.y.y.y.y.y.y.= ",
"y.y.y.r.8.g r.8.6.7.A 7.6.8.8.g r.8.6.6.A A A 7.A 7.7.7.7.y.y.y.y.y.y.y.y.y.y.y.",
"y.y.y.r.r.r.r.g g r.7.S C C C C C C C C Z 6.g h h g g g h y.y.y.y.y.y.y.y.y.y.y.",
"y.y.y.y.y.y.y.y.y.y.c O + + + @ + + + + O c y.y.y.y.y.y.y.y.y.y.y.y.y.y.y.y.y.y.",
"y.y.y.y.y.y.y.y.y.y.y.= = = - = = = - = - = y.y.y.y.y.y.y.y.y.y.y.y.y.y.y.y.y.y.",
"y.y.y.y.y.y.y.y.y.y.y.= % = & = = = = & & & & y.y.y.y.y.y.y.y.y.y.y.y.y.y.y.y.y.",
"y.y.y.y.y.y.y.y.y.y.y.= = = = = = = = = = = = = y.y.y.y.y.y.y.y.y.y.y.y.y.y.y.y.",
"y.y.y.y.y.y.y.y.y.y.y.= = = = = = = = = = = = = y.y.y.y.y.y.y.y.y.y.y.y.y.y.y.y."
};
