/* XPM */
static char *result[] = {
/* columns rows colors chars-per-pixel */
"40 40 119 2 ",
"   c #B95608",
".  c #BE5D0C",
"X  c #BB640D",
"o  c #B56D0D",
"O  c #B9690D",
"+  c #AB7109",
"@  c #AD7E0E",
"#  c #B3720D",
"$  c #B0780D",
"%  c #BA7611",
"&  c #BC7B14",
"*  c #CB450C",
"=  c #C74C0B",
"-  c #C94B0C",
";  c #C4530C",
":  c #CB510F",
">  c #C1590C",
",  c #C8580F",
"<  c #CF4F10",
"1  c #CE5511",
"2  c #CE5812",
"3  c #D45514",
"4  c #D25914",
"5  c #DA5E19",
"6  c #C36611",
"7  c #D06316",
"8  c #D66118",
"9  c #DA621A",
"0  c #DD6C1E",
"q  c #C07814",
"w  c #CF741A",
"e  c #DC7520",
"r  c #E26D21",
"t  c #E47423",
"y  c #E97526",
"u  c #E77926",
"i  c #E87B27",
"p  c #EE7D2A",
"a  c #7DD20F",
"s  c #77DA0F",
"d  c #78DB0F",
"f  c #7ED410",
"g  c #7BD910",
"h  c #9C960D",
"j  c #9C9D0E",
"k  c #A5850C",
"l  c #AA830E",
"z  c #A48C0E",
"x  c #A2920E",
"c  c #AD8D12",
"v  c #BD8216",
"b  c #BB961B",
"n  c #97A60F",
"m  c #99A20F",
"M  c #94AB0F",
"N  c #8EB60F",
"B  c #8BBB0F",
"V  c #91B00F",
"C  c #9CA711",
"Z  c #9CAC13",
"A  c #95B312",
"S  c #9DB716",
"D  c #9DBA17",
"F  c #A7A616",
"G  c #A5A916",
"H  c #A9AD19",
"J  c #A3BF1B",
"K  c #AEBB1F",
"L  c #B6B621",
"P  c #B9B723",
"I  c #B3BA21",
"U  c #BBB824",
"Y  c #C58119",
"T  c #D48220",
"R  c #DB8725",
"E  c #DC8925",
"W  c #CC9723",
"Q  c #CB9922",
"!  c #D49926",
"~  c #EE832C",
"^  c #F1852E",
"/  c #F2892F",
"(  c #F68731",
")  c #F58D32",
"_  c #FA8D34",
"`  c #EC9430",
"'  c #ED9C32",
"]  c #F69234",
"[  c #F99436",
"{  c #F49C35",
"}  c #F99A37",
"|  c #FE9739",
" . c #FE9A3A",
".. c #C4A322",
"X. c #CDA326",
"o. c #CEAD29",
"O. c #D0A127",
"+. c #D7A72C",
"@. c #DBA72D",
"#. c #D4AC2C",
"$. c #DAAA2E",
"%. c #C7B027",
"&. c #E1A42F",
"*. c #E5A331",
"=. c #ECA133",
"-. c #83C60F",
";. c #82CB0F",
":. c #86C510",
">. c #89C110",
",. c #82CD10",
"<. c #8BCB14",
"1. c #94C717",
"2. c #92C916",
"3. c #9BC419",
"4. c #96CA18",
"5. c #9CCA1B",
"6. c #80D010",
"7. c #A2C41C",
"8. c None",
/* pixels */
"8.8.8.8.8.8.8.8.8.8.8.8.8.8.8.8.8.8.8.8.8.8.8.8.8.8.8.8.8.8.8.8.8.8.8.8.8.8.8.8.",
"8.8.8.8.8.8.8.8.8.8.8.8.8.8.8.8.8.8.8.8.8.8.8.8.8.8.8.8.8.8.8.8.8.8.8.8.8.8.8.8.",
"8.8.8.8.8.8.8.8.8.8.8.8.8.8.8.8.8.8.8.8.8.f 8.8.8.8.8.8.8.8.8.8.8.8.8.8.8.8.8.8.",
"8.8.8.8.8.8.8.8.8.8.8.8.8.6.6.6.6.6.6.6.f 6.,.,.8.8.8.8.8.8.8.8.8.8.8.8.8.8.8.8.",
"8.8.8.8.8.8.8.8.8.8.8.8.8.a f ,.6.6.6.f ,.B A j l 8.8.8.8.8.8.8.8.8.8.8.8.8.8.8.",
"8.8.8.8.8.8.8.8.8.a a a a f ,.,.6.6.f f >.j $ O > : - - = = = 8.8.8.8.8.8.8.8.8.",
"8.8.8.8.8.8.8.8.f ,.<.<.<.<.a a f f ,.-.M @ > - = = = - - - = = 8.8.8.8.8.8.8.8.",
"8.8.8.8.6.8.,.a a ,.3.I K 3.,.s a ,.N j l X = * - - - - = - = - = 8.8.8.8.8.8.8.",
"8.8.8.6.6.6.6.a a <.I @.$.I <.f f :.j o   = = - - - - = - - = - = = 8.8.8.8.8.8.",
"8.8.6.6.6.6.6.a a <.L ' { o.K D A m @ > * * - - = - - - - - = = = = 8.8.8.8.8.8.",
"a ,.6.6.f 6.;.a f <.L *.} =.@.W & # .   - * - - - = = * - - = * = 8.8.8.8.8.8.8.",
",.f ,.f 6.6.6.a a <.L *.| | | ~ 0 2 < = = 1 1 2 3 1 , > > , 1 : 8.8.8.8.8.8.8.8.",
"6.6.6.6.6.6.6.a a 6.I *. . .| _ p r 4 1 1 5 0 t t e q c c Y e t 8.8.8.8.8.8.8.8.",
"f 6.6.8.8.f 6.6.6.<.P *.| | } } [ ( r 2 2 t / ] _ ' ..S S ..` _ 8.8.8.8.8.8.8.8.",
",.6.8.8.8.f 6.-.N C b E ( _ |  . .[ t 2 2 u |  . .{ X.G G X.{ | | 8.8.8.8.8.8.8.",
"8.8.8.8.8.f ,.N x # 6 7 0 ~ |  . .[ t 4 2 t ]  . .| R & & R } |  .|  . .| 8.8.8.",
"8.8.8.8.8.8.,.n # = * - 4 t ^ }  ._ u 5 8 u ]  . .} u 7 8 u ] | | } } ] ] 8.8.8.",
"8.8.8.8.8.8.8.x X = * * - 3 r p _ | ( u y ( [ | | [ ( y y ^ }  .| } p t t 8.8.8.",
"8.8.8.8.8.8.8.8.; - = = : : 1 0 ~ } } ] ] [ | } | | ] ] ] } | | 8.8.4 1 1 8.8.8.",
"8.8.8.8.8.8.8.8.8.; X o # # $ v W +.$.#.@.=.} | | }  . .|  . . .8.8.8.* = 8.8.8.",
"8.8.8.8.8.8.8.8.8.8.x n M M M Z S J 7.7.I #.{ | | |  .|  . . . .8.8.8.= - 8.8.8.",
"8.8.8.8.8.8.8.8.8.8.M B :.:.;.a 6.,.,.<.7.o.{ | | } } [ ] ) ) } 8.8.8.= = 8.8.8.",
"8.8.8.8.8.8.8.8.8.> # z m B f s s f 1.K o.*.{  .| } ^ y r r t i ) / 0 1 - 8.8.8.",
"8.8.8.8.8.f ,.n $ ; - > # j :.a f <.K +.' } }  .| ] i 8 1 : 1 0 ~ ) t 4 = 8.8.8.",
"8.8.8.8.8.V n x O = * * , @ m M M C b ' | |  .| | [ ~ & o   = 8 ~ ) i 4 = 8.8.8.",
"8.8.8.8.8.# # O > = - - ; X o # + & T ) | |  .| | { O.F h + > 8 ~ [ y 4 = 8.8.8.",
"8.8.8.8.8., ; - - - = = - - = = ; 1 0 ) |  .| } { *.U 4.N k > 5 p ) t 4 = 8.8.8.",
"8.8.8.8.n O - * - = = - - - - * * < r _ | | | =.+.P 5.6.B k > 3 t / 0 3 - 8.8.8.",
"8.8.8.f N l > - - - - - - - = = = 1 0 /  . .} $.K 2.6.6.N l > - 8.8.8.1 - 8.8.8.",
"8.8.8.f >.j @ X , - * - - - - * * : w ! $.$.#.U 4.,.-.N j $ , 8.8.8.8.= - 8.8.8.",
"8.8.8.f ;.>.n z X = * - * * * * * ; & H 7.7.7.4.6.<.n l o . 8.8.8.8.8.- - 8.8.8.",
"8.8.8.B :.,.,.n @ > > > . > > > > X z M >.:.>.>.-.N z X ; > 8.8.8.8.8.- = 8.8.8.",
"8.> # l j N 6.:.n x z z z z z x z z z z z z z z z l O = , @ -.8.8.8.8.= = 8.8.8.",
"= = = , # j :.6.:.>.>.>.>.>.>.>.:.N x # . . . . . . ; ; X x -.f 8.8.8.= - 8.8.8.",
"= = - - > @ n N <.a d f f f f f g ,.n l o o # # o # o # l x m C l 8.8.- - 8.8.8.",
"= = * - ; > # x B a g f f 6.f f f 6.>.V n n n M n M N M m z $ O > = - 8.8.8.8.8.",
"= = - - = - ; o j B ,.,.6.6.6.6.6.6.6.6.;.,.<.,.-.>.>.>.n @ > - = = 8.8.8.8.8.8.",
"8.= - = - * - . $ z m B 8.8.8.8.8.8.8.8.8.8.8.N j x x x l O = * - 8.8.8.8.8.8.8.",
"8.8.8.- - - - : > > X 8.8.8.8.8.8.8.8.8.8.8.8.8.X > > . > ; = - 8.8.8.8.8.8.8.8.",
"8.8.8.- - - : - - * * 8.8.8.8.8.8.8.8.8.8.8.8.8.* * * * * - - = 8.8.8.8.8.8.8.8."
};
