/* XPM */
static char *result[] = {
/* columns rows colors chars-per-pixel */
"40 40 100 2 ",
"   c #BF5D0D",
".  c #B6660B",
"X  c #BB640D",
"o  c #B66C0D",
"O  c #B9680D",
"+  c #AD7C0D",
"@  c #B3730D",
"#  c #CB450C",
"$  c #C64C0B",
"%  c #C84B0C",
"&  c #C4530C",
"*  c #CA520F",
"=  c #C1590C",
"-  c #CD5411",
";  c #D05312",
":  c #DA5E19",
">  c #D56017",
",  c #D76219",
"<  c #D46D1A",
"1  c #DD6C1E",
"2  c #C87317",
"3  c #C97718",
"4  c #E06B1F",
"5  c #DD7220",
"6  c #E16E21",
"7  c #E47323",
"8  c #E77926",
"9  c #EA7927",
"0  c #ED7C29",
"q  c #7BD30F",
"w  c #79D80F",
"e  c #7ED310",
"r  c #7CD810",
"t  c #9F970E",
"y  c #9C9C0E",
"u  c #A6870D",
"i  c #AA830E",
"p  c #A58B0E",
"a  c #A8880E",
"s  c #A2930E",
"d  c #B78113",
"f  c #B88013",
"g  c #BE8B19",
"h  c #A79D13",
"j  c #96A40E",
"k  c #99A30F",
"l  c #94AB0F",
"z  c #8EB60F",
"x  c #8CBA0F",
"c  c #91B10F",
"v  c #8FB710",
"b  c #8DBA10",
"n  c #97B513",
"m  c #ACAC1A",
"M  c #B7A21C",
"N  c #B0AE1C",
"B  c #A7BF1D",
"V  c #ABBC1E",
"C  c #BEB424",
"Z  c #B5B821",
"A  c #C38E1C",
"S  c #DE8225",
"D  c #C79C21",
"F  c #CC9B23",
"G  c #E28126",
"H  c #EE832C",
"J  c #EE8D2F",
"K  c #F2842E",
"L  c #F2892F",
"P  c #F58B32",
"I  c #EE9E33",
"U  c #FA9436",
"Y  c #F49C35",
"T  c #F99937",
"R  c #FF9639",
"E  c #FD9939",
"W  c #CBAF28",
"Q  c #DAA72D",
"!  c #D6AB2C",
"~  c #C4B126",
"^  c #C6B628",
"/  c #D1B32C",
"(  c #E0A52F",
")  c #E3A330",
"_  c #E9A533",
"`  c #F2A236",
"'  c #85C50F",
"]  c #88C10F",
"[  c #82CB0F",
"{  c #86C510",
"}  c #88C110",
"|  c #82CD10",
" . c #8DCB14",
".. c #92C114",
"X. c #93C916",
"o. c #9CC519",
"O. c #9CC91B",
"+. c #80D010",
"@. c #A4C21C",
"#. c None",
/* pixels */
"#.#.#.#.#.#.#.#.#.+.+.+.+.e r #.#.#.#.#.#.#.#.#.#.#.#.#.#.#.#.#.#.#.#.#.#.#.#.#.",
"#.#.#.#.#.#.#.#.#.| +.+.| | b #.#.#.#.#.#.#.#.#.#.#.#.#.#.#.#.#.#.#.#.#.#.#.#.#.",
"#.#.#.#.#.#.#.#.e e +.e e z p #.#.#.#.#.#.#.#.#.#.#.#.#.#.#.#.#.#.#.#.#.#.#.#.#.",
"#.#.#.#.#.#.| e e +.+.+.| p   $ % % % #.#.#.#.#.#.#.#.#.#.#.#.#.#.#.#.#.#.#.#.#.",
"#.#.#.#.#.#.+. .X.| +.| v @ # $ % * % #.#.#.#.#.#.#.#.#.#.#.#.#.#.#.#.#.#.#.#.#.",
"#.#.#.#.#.e +.V Z | r { p   # $ $ $ % % #.#.#.#.#.#.#.#.#.#.#.#.#.#.#.#.#.#.#.#.",
"#.#.#.#.#.+.+.~ Q  .q l X $ % % % % % % % #.#.#.#.#.#.#.#.#.#.#.#.#.#.#.#.#.#.#.",
"#.#.#.#.+.e [ W I V n p & # $ $ % % $ % #.#.#.#.#.#.#.#.#.#.#.#.#.#.#.#.#.#.#.#.",
"#.#.#.#.+.+.| W T Q g . $ $ $ $ % # $ $ #.#.#.#.#.#.#.#.#.#.#.#.#.#.#.#.#.#.#.#.",
"#.#.#.#.+.e +.~ E T 5 * $ - - - = = - #.#.#.#.#.#.#.#.#.#.#.#.#.#.#.#.#.#.#.#.#.",
"#.#.#.#.+.e +.^ R R 0 : % > 4 5 @ g 1 #.#.#.#.#.#.#.#.#.#.#.#.#.#.#.#.#.#.#.#.#.",
"#.#.#.+.+.e +.~ R U U 9 - 7 P J m m J #.#.#.#.#.#.#.#.#.#.#.#.#.#.#.#.#.#.#.#.#.",
"#.#.#.+.+.[ b D P E E H - 0 E T N m T #.#.#.#.#.#.#.#.#.#.#.#.#.#.#.#.#.#.#.#.#.",
"#.#.+.+.e ] p 2 8 R E K - 8 E E A g T E R Y B #.#.#.#.#.#.#.#.#.#.#.#.#.#.#.#.#.",
"#.#.+.+.e z O % , P E H - 8 E T < < U E R Y @.q #.#.#.#.#.#.#.#.#.#.#.#.#.#.#.#.",
"#.+.+.+.r l & # - 9 U P 4 H E E 7 6 U E R Y o.q #.#.#.#.#.#.#.#.#.#.#.#.#.#.#.#.",
"#.+.+.#.#.#.% # ; : 0 U K P E U K K E E #.#. .+.#.#.#.#.#.#.#.#.#.#.#.#.#.#.#.#.",
"#.#.+.#.#.#.= = = = G _ Y T E E T U E #.#.#.| | #.#.#.#.#.#.#.#.#.#.#.#.#.#.#.#.",
"#.#.#.#.#.#.a a i u M ^ ^ _ E E E E T R #.#. .x #.#.#.#.#.#.#.#.#.#.#.#.#.#.#.#.",
"#.#.#.#.#.#.z z z x ..X.o.! R R E E U E R T o.l & % % % % % % % * % % % % % #.#.",
"#.#.#.#.#.#.e | x v x x v F L L U T E E R T @.j & % $ % % % % % $ % % % % % * #.",
"#.#.#.#.#.e e l a p u u u 3 6 6 L E U R R Y @.j & % % % % % % % % % % % % $ $ % ",
"#.#.#.#.#.+.| p = = = = = * * ; H E E T U Y @.j & % % % % % * $ $ % % % % % % $ ",
"#.#.#.#.e | l o # % # # % # $ % 9 E T ( ) Y @.j $ % % $ % % % $ $ * % $ % % % % ",
"#.#.#.#.e x i = % % % # % % $ % 0 E T C ~ I @.j & % % % % * $ $ % % % $ % % % #.",
"#.#.#.#.r x   % $ % % % % % % * G Y Y V V Y @.j % % % % % % % % % % * $ % % #.#.",
"#.#.#.#.r c = # % % % # # # # % A / ` o.@.I X.z = # % % % % % % % % % % % % #.#.",
"#.#.#.+.e c = # % % * % % % % % h O.#.#.#.#. .' #.#.#.#.#.#.#.#.#.#.#.#.#.#.#.#.",
"#.#.#.+.e x @ = % % # = X X X O y v #.#.#.#.e +.#.#.#.#.#.#.#.#.#.#.#.#.#.#.#.#.",
"#.#.e +.e { y X # # # = s k y y s + $ #.#.q e +.#.#.#.#.#.#.#.#.#.#.#.#.#.#.#.#.",
"#.#.| +.+.+.{ i % & % o v } { b + & $ #.#.+.+.+.#.#.#.#.#.#.#.#.#.#.#.#.#.#.#.#.",
"#.s c +.+.e e y @ @ @ i j l l j O # % #.#.+.+.#.#.#.#.#.#.#.#.#.#.#.#.#.#.#.#.#.",
"% X a { r +.+.b l l l y @ @ @ @ = # % #.#.#.#.#.#.#.#.#.#.#.#.#.#.#.#.#.#.#.#.#.",
"% % X c +.+.+.+.| | | c O = = = = = % #.#.#.#.#.#.#.#.#.#.#.#.#.#.#.#.#.#.#.#.#.",
"% # = p b +.+.+.+.e r } p i a i p @ & # #.#.#.#.#.#.#.#.#.#.#.#.#.#.#.#.#.#.#.#.",
"% % % X j e +.+.+.+.e | x c x c x s & % % #.#.#.#.#.#.#.#.#.#.#.#.#.#.#.#.#.#.#.",
"% % # % a x +.+.+.+.+.+.+.+.+.+.{ s = % * #.#.#.#.#.#.#.#.#.#.#.#.#.#.#.#.#.#.#.",
"#.% % % O p #.#.#.#.#.#.#.#.#.#.y @ % % $ % #.#.#.#.#.#.#.#.#.#.#.#.#.#.#.#.#.#.",
"#.% % $ & = #.#.#.#.#.#.#.#.#.#.= = % % $ $ #.#.#.#.#.#.#.#.#.#.#.#.#.#.#.#.#.#.",
"#.#.* $ # # #.#.#.#.#.#.#.#.#.#.# % % % % % #.#.#.#.#.#.#.#.#.#.#.#.#.#.#.#.#.#."
};
