/* XPM */
static char *_1d6d39d6eca4357994b51501065117cGLMouiRLXLAcdOvF[] = {
/* columns rows colors chars-per-pixel */
"60 60 143 2 ",
"   c None",
".  c #030303",
"X  c #0B0301",
"o  c #0A0A0A",
"O  c #130301",
"+  c #1A0401",
"@  c #150904",
"#  c #1A0905",
"$  c #141414",
"%  c #1A1715",
"&  c #1C1816",
"*  c #1B1B1B",
"=  c #200704",
"-  c #290700",
";  c #220803",
":  c #2E0C03",
">  c #310E05",
",  c #3E0E04",
"<  c #361409",
"1  c #3A170C",
"2  c #3A180D",
"3  c #3F1C10",
"4  c #22211F",
"5  c #242424",
"6  c #2A2929",
"7  c #302E2D",
"8  c #343434",
"9  c #393736",
"0  c #3C3C3C",
"q  c #431306",
"w  c #4E1406",
"e  c #4F1807",
"r  c #461609",
"t  c #4B1B0C",
"y  c #521E0D",
"u  c #401E13",
"i  c #4F1F10",
"p  c #50200F",
"a  c #5C250F",
"s  c #522212",
"d  c #5B2511",
"f  c #5C2916",
"g  c #5D2C19",
"h  c #632D16",
"j  c #612D18",
"k  c #673216",
"l  c #6F3415",
"z  c #65321C",
"x  c #6B351D",
"c  c #6E381F",
"v  c #713616",
"b  c #70391D",
"n  c #403D37",
"m  c #6B3921",
"M  c #703F27",
"N  c #45423E",
"B  c #434342",
"V  c #4C4C4C",
"C  c #545454",
"Z  c #585754",
"A  c #585758",
"S  c #5C5C5C",
"D  c #646464",
"F  c #6B6B6B",
"G  c #716C6C",
"H  c #737373",
"J  c #7B7B7B",
"K  c gray53",
"L  c #868686",
"P  c #848484",
"I  c #818181",
"U  c #888483",
"Y  c #898989",
"T  c gray54",
"R  c #8B8B8B",
"E  c #8D8D8D",
"W  c gray55",
"Q  c #8E8E8E",
"!  c gray56",
"~  c #8A8A8A",
"^  c #919191",
"/  c #939393",
"(  c gray58",
")  c #979797",
"_  c #939393",
"`  c #989898",
"'  c gray60",
"]  c #9A9A9A",
"[  c #9B9B9B",
"{  c #9C9B9B",
"}  c #9D9D9D",
"|  c gray62",
" . c #9F9F9F",
".. c #9C9C9C",
"X. c #A1A1A1",
"o. c #A2A2A2",
"O. c #A5A5A5",
"+. c #A4A4A4",
"@. c gray65",
"#. c #A7A7A7",
"$. c #A4A4A4",
"%. c #A8A9A6",
"&. c gray66",
"*. c #A9A9A9",
"=. c #AAA9A9",
"-. c #AAAAAA",
";. c #ABAAAB",
":. c #ADADAC",
">. c gray69",
",. c #B4B4B4",
"<. c gray71",
"1. c #B6B3B4",
"2. c #BEBBBA",
"3. c #BDBCBB",
"4. c gray",
"5. c #BEBEBE",
"6. c #C5C5C5",
"7. c #C7C4C5",
"8. c #C6C5C5",
"9. c #C6C6C6",
"0. c gray78",
"q. c #C4C3C3",
"w. c #C9C7C5",
"e. c #CBC8C7",
"r. c #C8C8C8",
"t. c #CAC8C8",
"y. c #CACACA",
"u. c #CBCBCB",
"i. c #CCC8C8",
"p. c #CFCBCA",
"a. c #CFCBCB",
"s. c #CDCDCD",
"d. c #CCCCCC",
"f. c #D2CFCF",
"g. c #D6D2D1",
"h. c #DDD9D7",
"j. c #E0DCDA",
"k. c #E1DEDD",
"l. c #E4E0DF",
"z. c #E4E3E1",
"x. c #E7E4E4",
"c. c #ECE9E8",
"v. c #ECEBEA",
/* pixels */
"                                                                                                                        ",
"                            C S V V C F V V F C C S S C C A F S S D F V C D D D F S S V S F                             ",
"                            V @.` s.R &.` &.D 9.@.o.@.Q J z.w.2.&.R  .C 9.` ` Q Q @.S / ` F                             ",
"                            S D S S V V F D D D V D S F D V C D F F F V S D S C C S D H D F                             ",
"                            F x.D ` * . B >.$ . 6  .$ . 9 ` % . 9 ` * . B >.$ . 6  .$ F v.C                             ",
"                            V j.D J o . 0 P . . 6 J o . 5 J o . 5 J o . 0 P . . 6 J o S k.S                             ",
"                            C h.V H o . V F $ . V J o . B H o . B H o . V F $ . V J o D l.D                             ",
"                            V r.F B @.6 I B ,.8 I 9 &.5 P B o.$ R B @.6 I B ,.8 I 9 &.D 9.V                             ",
"                            C :.F . S &.6 . C @.$ . C &.$ . C &.% . S &.6 . C @.$ . C V &.S                             ",
"                            S ` V . 8 P $ . B J . . B J o . 0 J o . 8 P $ . B J o . B F o.H                             ",
"                            F V S . F H $ . D H o . S H o . D H o . F H $ . D H o . S F V F                             ",
"                            V r.V . ` 0 ,.% H 5 Q $ J 8 P . J 8 P . ` 0 ,.* H 5 Q $ J D r.D                             ",
"                            S @.S ` % . B >.$ . 6  .$ . 9 ` % . 9 ` % . B >.$ . 6  .$ S Q C                             ",
"                            V o.V J o . 0 P . . 6 J . . 5 J . . 5 J o . 0 P . . 6 J . C R S                             ",
"                            C ` V C D D S S V V V V C C D S S V F S D C D S D S F C D C @.D                             ",
"                            S @.F 9.@.` @.) J r.i.i.9.R J 9.&._ @.@.o.F 3. .Q ) / @.C D / S                             ",
"                            V { H S S D S C S D F F H H C V S F H C V F D C D H S C S D o.S                             ",
"                            F J D . + t r t z O s s s t j + j t t r r q O e q t t f X S D S                             ",
"                            V v.C . + t t t m O t s i t x + h r t r r q + w r t t s X S 9.S                             ",
"                            V i.C . # t t t m O t s s t x O h t t r q r + y t t t p X C ) C                             ",
"                            F e.F . # t t r M + t s f t x + x t r r q q O d t r t t X V  .D                             ",
"                            C 3.C . # t t r m = t i f r x O b t t r q q O h i r t t X V o.C                             ",
"                            V :.F . # t p q x + t t s q c + l t r t , , + z t r t p X V  .H                             ",
"                            C ` V . # t t q x ; r t s q x + v t q t , q O x t t q s X F ) C                             ",
"                            S D C . # s t q x ; r r s q z O v s q t , q + z t t , i X V C C                             ",
"                            S r.D . # t t r z + q q t q j + b s q s q r O h t t , i X F 9.H                             ",
"                            C  .C . # p t q g + q q t q d + h s r s q q + k t t , s X C o.F                             ",
"                            V o.D . # t t q f ; q q r r p + j t q p r r + h t t q i . F  .D                             ",
"                            S @.S . # t s r s + r t r q y = j t r p r r + a t p , s X C @.V                             ",
"                            F ` F . # t t r p O q t , r y O z t r p r t + d t s q i . V R C                             ",
"                            A @.V . # r t t t O q t q t t O m t r p r t + s t s r t . D  .C                             ",
"                            D D F . # t t t t O r r , r t O z r r s t t + s i p r t . D S V                             ",
"                            C q.F . # r t t r O q r , r t O g r r t r r + s s s t t X F 9.S                             ",
"                            S  .F . # t r t q + q r r r i O f r r t q r + s s t t t X S / D                             ",
"                            S  .C . # r q X % 6 Z U %.q.f.g.g.f.9.1.{ G 9 & X t t t X D / D                             ",
"                            C R D . # t , X & 4 8 N N N N N N B N n 9 7 * % X t r r X S Q F                             ",
"                            S @.D . O < - 1 > O : : 2 < u X 3 : > : : > X 2 3 > > > . F @.S                             ",
"                            F ) D . . O X @ O @ X O @ @ @ X @ X O X O O X @ @ X O O . D ` D                             ",
"                            S S D . . . . . . . . . . . . . . . . . . . . . . . . . . S F H                             ",
"                            C q.F . . . . . . . . . . . . . . . . . . . . . . . . . . F 3.H                             ",
"                            F ` C . . . . . . . . . . . . . . . . . . . . . . . . . . S ) S                             ",
"                            V ` F . . . . . . . . . . . . . . . . . . . . . . . . . . V @.C                             ",
"                            V o.C . . . . . . . . . . . . . . . . . . . . . . . . . . D ` S                             ",
"                            C ) F . . . . . . . . . . . . . . . . . . . . . . . . . . D  .V                             ",
"                            D o.F . . . . . . . . . . . . . . . . . . . . . . . . . . C  .S                             ",
"                            F V C . . . . . . . . . . . . . . . . . . . . . . . . . . V S S                             ",
"                            C 3.S . . . . . . . . . . . . . . . . . . . . . . . . . . F q.D                             ",
"                            V / F . . . . . . . . . . . . . . . . . . . . . . . . . . F  .F                             ",
"                            F @.S . . . . . . . . . . . . . . . . . . . . . . . . . . D  .C                             ",
"                            V / J . . . . . . . . . . . . . . . . . . . . . . . . . . C o.H                             ",
"                            V o.V . . . . . . . . . . . . . . . . . . . . . . . . . . C R D                             ",
"                            C ` S . . . . . . . . . . . . . . . . . . . . . . . . . . V Q S                             ",
"                            C S H . . . . . . . . . . . . . . . . . . . . . . . . . . F D C                             ",
"                            D s.C . . . . . . . . . . . . . . . . . . . . . . . . . . F q.D                             ",
"                            F R F . . . . . . . . . . . . . . . . . . . . . . . . . . S R C                             ",
"                            C  .D . . . . . . . . . . . . . . . . . . . . . . . . . . F R C                             ",
"                            F / F . . . . . . . . . . . . . . . . . . . . . . . . . . D ) S                             ",
"                            S R S . . . . . . . . . . . . . . . . . . . . . . . . . . S  .C                             ",
"                            C V S . . . . . . . . . . . . . . . . . . . . . . . . . . D C C                             ",
"                                                                                                                        "
};
