/* XPM */
static char *_ec28d08cb91470585044f6181472778x6QBD9mTzY8ls89h[] = {
/* columns rows colors chars-per-pixel */
"60 60 152 2 ",
"   c None",
".  c #030101",
"X  c #0A0301",
"o  c #0A0A0A",
"O  c #140301",
"+  c #1B0501",
"@  c #150904",
"#  c #1A0904",
"$  c #1E0E08",
"%  c #141414",
"&  c #1A1715",
"*  c #1C1816",
"=  c #1B1B1B",
"-  c #200703",
";  c #290700",
":  c #230A04",
">  c #2E0C03",
",  c #270F08",
"<  c #310E05",
"1  c #3E0E04",
"2  c #29120A",
"3  c #361409",
"4  c #3A170C",
"5  c #371B0D",
"6  c #3A180D",
"7  c #3F1C10",
"8  c #22211F",
"9  c #242424",
"0  c #2A2929",
"q  c #302E2D",
"w  c #343434",
"e  c #393736",
"r  c #3C3C3C",
"t  c #431306",
"y  c #4C1406",
"u  c #4C1807",
"i  c #461609",
"p  c #4A170A",
"a  c #4B1B0C",
"s  c #531D0C",
"d  c #401E13",
"f  c #4F1F10",
"g  c #511E10",
"h  c #601B05",
"j  c #51200F",
"k  c #59240F",
"l  c #5D290F",
"z  c #532212",
"x  c #5A2612",
"c  c #5B2915",
"v  c #5E2D19",
"b  c #612713",
"n  c #692711",
"m  c #632D14",
"M  c #682A14",
"N  c #612E19",
"B  c #673116",
"V  c #6C3316",
"C  c #65321C",
"Z  c #6B341C",
"A  c #6E381F",
"S  c #713416",
"D  c #71361C",
"F  c #733A1C",
"G  c #403D37",
"H  c #6A3721",
"J  c #6B3922",
"K  c #733D25",
"L  c #78401D",
"P  c #45423E",
"I  c #754025",
"U  c #794326",
"Y  c #7D4826",
"T  c #734129",
"R  c #7B452E",
"E  c #7D482B",
"W  c #434342",
"Q  c #4C4C4C",
"!  c #545454",
"~  c #585754",
"^  c #585758",
"/  c #5C5C5C",
"(  c #646464",
")  c #6B6B6B",
"_  c #716C6C",
"`  c #737373",
"'  c #7B7B7B",
"]  c #848484",
"[  c #888483",
"{  c #8B8B8B",
"}  c #939393",
"|  c #919191",
" . c gray58",
".. c #979797",
"X. c #939393",
"o. c #989898",
"O. c gray60",
"+. c #9A9A9A",
"@. c #9B9B9B",
"#. c #9C9B9B",
"$. c #9D9D9D",
"%. c #9F9F9F",
"&. c gray62",
"*. c #9C9C9C",
"=. c #A1A1A1",
"-. c #A2A2A2",
";. c #A5A5A5",
":. c #A4A4A4",
">. c gray65",
",. c #A7A7A7",
"<. c #A4A4A4",
"1. c #A8A9A6",
"2. c gray66",
"3. c #A9A9A9",
"4. c #AAA9A9",
"5. c #AAAAAA",
"6. c #ABAAAB",
"7. c #ADADAC",
"8. c #ADADAC",
"9. c gray69",
"0. c #B4B4B4",
"q. c gray71",
"w. c #B6B3B4",
"e. c #BEBBBA",
"r. c #BDBCBB",
"t. c gray",
"y. c #BEBEBE",
"u. c #C5C5C5",
"i. c #C7C5C5",
"p. c #C6C6C6",
"a. c gray78",
"s. c #C4C3C3",
"d. c #C9C7C5",
"f. c #CBC8C7",
"g. c #C8C8C8",
"h. c #CAC8C8",
"j. c #CBCBCB",
"k. c #CCC8C8",
"l. c #CFCBCA",
"z. c #CFCBCB",
"x. c #CDCDCD",
"c. c #CCCCCC",
"v. c #D2CFCF",
"b. c #D6D2D1",
"n. c #DDD9D7",
"m. c #E0DCDA",
"M. c #E1DEDD",
"N. c #E4E0DF",
"B. c #E4E3E1",
"V. c #E7E4E4",
"C. c #ECE9E8",
"Z. c #ECEBEA",
/* pixels */
"                                                                                                                        ",
"                            ! / Q Q ! ) Q Q ) ! ! / / ! ! ^ ) / / ( ) Q ! ( ( ( ) / / Q / )                             ",
"                            Q >.o.x.{ 2.o.2.( p.>.-.>.{ ' B.d.e.2.{ %.! p.o.o.{ { >./ } o.)                             ",
"                            / ( / / Q Q ) ( ( ( Q ( / ) ( Q ! ( ) ) ) Q / ( / ! ! / ( ` ( )                             ",
"                            ) V.( o.= . W 9.% . 0 %.% . e o.& . e o.= . W 9.% . 0 %.% ) Z.!                             ",
"                            Q m.( ' o . r ] X . 0 ' o . 9 ' o . 9 ' o . r ] X . 0 ' o / M./                             ",
"                            ! n.Q ` o . Q ) % . Q ' o . W ` o . W ` o . Q ) % . Q ' o ( N.(                             ",
"                            Q g.) W >.0 ] W 0.w ] e 2.9 ] W -.% { W >.0 ] W 0.w ] e 2.( p.Q                             ",
"                            ! 7.) . / 2.0 . ! >.% . ! 2.% . ! 2.= . / 2.0 . ! >.% . ! Q 2./                             ",
"                            / o.Q . w ] % . W ' o . W ' o . r ' o . w ] % . W ' o . W ) -.`                             ",
"                            ) Q / . ) ` % . ( ` o . / ` o . ( ` o . ) ` & . ( ` o . / ) Q )                             ",
"                            Q g.Q X o.r 0.= ` 9 { % ' w ] X ' w ] X o.r 0.= ` 9 { % ' ( g.(                             ",
"                            / >./ o.& . W 9.% . 0 %.% . e o.& . e o.& . W 9.% . 0 %.% / { !                             ",
"                            Q -.Q ' o . r ] X . 0 ' X . 9 ' X . 9 ' o . r ] X . 0 ' X ! { /                             ",
"                            ! o.Q ! ( ( / / Q Q Q Q ! ! ( / / Q ) / ( ! ( / ( / ) ! ( ! >.(                             ",
"                            / >.) p.>.o.>...' g.k.k.p.{ ' p.2.X.>.>.-.) r.%.{ ..} >.! ( } /                             ",
"                            Q #.` / / ( / ! / ( ) ) ` ` ^ Q / ) ` ! Q ) ( ! ( ` / ^ / ( -./                             ",
"                            ) ' ( . . X . . . . . . X . X . . . . . . . . . X X . X . / ( /                             ",
"                            Q Z.! . @ 5 : : : X 2 - 2 : : X : 2 , : 2 , X : : , : , . / p./                             ",
"                            Q k.! . $ Y s M n O R h K V F O D T N z C N O V N v x Z X ! ..!                             ",
"                            ) f.) . $ E a c s + z s H m F O K J N k C B O K x c x V X Q %.(                             ",
"                            ! r.! . $ U i a i O p y v x L + K C c k C F O I a x m D X Q -.!                             ",
"                            Q 7.) . $ I t i t - t u z s S + N v v x C V + K a a v F X Q %.`                             ",
"                            ! o.Q . # F t i t + i i a a V O C c x c v S + J a a c F X ) ..!                             ",
"                            / ( ! . # V t i i + i a a a V + Z g c x c S + Z a a c S X Q ! !                             ",
"                            / g.( . # m t a i - i a z z B + K p x x c F + A a i z S X ) p.`                             ",
"                            ! %.! . # C t a i + 1 a a x B + K t a z x F O M a t a F X ! -.)                             ",
"                            Q -.( . # x i a i + t a a k Z O I t a x j D O Z a i a D X ) %.(                             ",
"                            / >./ . + s i a i + i f f x B + A t z z a V O M a i a V X ! >.Q                             ",
"                            ) o.) . # k a i i + a z z c m + H t f f a C + m a i i M X Q { !                             ",
"                            / >.Q . # k a i i - a x f z B + C i a a a H O b z a i M X ( %.!                             ",
"                            ( ( ) . # s a t i O a z a x m + C a a a a m O x a a t m X ( / Q                             ",
"                            ! s.) . # z a t i : a z a z m + N a a a a c O x a a t C X ) p./                             ",
"                            / %.) . # z a t i O z x i a l + x z a a a z O s i a i v X / | /                             ",
"                            / %.! . # s f 1 a O z j a a c O s z a a i a O s i a a x X ( } (                             ",
"                            ! { ( . # s a t z O z z a z x : g a f i a s + y i a a v X / { )                             ",
"                            / >.( . # a a t x O z z a a x O z a a u a a O y t i a c X ) >./                             ",
"                            ) ..( . + p a i c O z z a a v O x a f i a i O y t a a x X ( o.(                             ",
"                            / / ( . O a i a C O z z z a m + m a a i i t O u t a a x X / ) `                             ",
"                            ! s.) . O a a a H O a x f a Z + m i f i i t + y i a a z X ) r.`                             ",
"                            ) o.! . # a a a J O a z z a Z O m a a i t i + s a a a j X / ../                             ",
"                            Q o.) . # a a i K O a f x a A + A a i i t t O x a i a a X Q >.!                             ",
"                            Q -.! . # a a i J - a f x i A O F a a i t t O b f i a a X ( o./                             ",
"                            ! ..) . # a j t Z + a a z t A O V a i a 1 1 + C a i a j X ( %.Q                             ",
"                            ( -.) . # a a t Z - i a z t A + S a t a 1 t O Z a a t z X ! %./                             ",
"                            ) Q ! . # z a t Z : i i z t C O S z t a 1 t O C a a 1 f X Q / /                             ",
"                            ! r./ . # a a i C + t t a t m + F z t z t i O m a a 1 f X ) s.(                             ",
"                            Q } ) . # j a t v + t t a t x + m x i z t t + B a a 1 z X ) %.)                             ",
"                            ) >./ . # a a t c - i i i i s + N a t j i i + m a a t f . ( %.!                             ",
"                            Q } ' . # a z i z + i a i t s + m a i j i i + k a j 1 z X ! -.`                             ",
"                            Q -.Q . # a f a j O t a 1 i a O C a t j i a + x a z t f . ! { (                             ",
"                            ! o./ . # i a a a O t a t a a O H a i j i a + z a z i a . Q { /                             ",
"                            ! / ` . # a a a a O i i 1 i a O C i i z a a + z f j i a . ) ( !                             ",
"                            ( x.! . $ i a a i O t i 1 i a O v i i a i i + z z z a a X ) s.(                             ",
"                            ) { ) . # a i a t + t i i i f O c i i a t i + z z a a a X / { !                             ",
"                            ! %.( . # i i X & 0 ^ [ 1.s.v.b.b.v.p.w.#._ e * X a a a X ) { !                             ",
"                            ) } ) . # a 1 X * 8 w P P P P P P W P G e q = & X a i i X ( ../                             ",
"                            / { / . @ 3 ; 4 < O > > 6 3 d X 7 < < > > < X 4 7 < < < . / %.!                             ",
"                            ! Q / . . @ X @ @ @ X @ @ @ @ X @ X @ X @ @ X O @ X @ @ . ( ! !                             ",
"                                                                                                                        "
};
