/* XPM */
static char *e0385d1b42474647f35913d8f3a8ad9eGsudOnHTLj7IqNmn[] = {
/* columns rows colors chars-per-pixel */
"60 60 119 2 ",
"   c None",
".  c #030303",
"X  c #0C0301",
"o  c #0A0A0A",
"O  c #120401",
"+  c #1A0402",
"@  c #150904",
"#  c #1C0A06",
"$  c #141414",
"%  c #1A1715",
"&  c #1C1816",
"*  c #1B1B1B",
"=  c #290700",
"-  c #2E0C03",
";  c #310E05",
":  c #3E0E04",
">  c #361409",
",  c #3A170C",
"<  c #3A180D",
"1  c #3F1C10",
"2  c #22211F",
"3  c #242424",
"4  c #2A2929",
"5  c #302E2D",
"6  c #343434",
"7  c #393736",
"8  c #3C3C3C",
"9  c #441406",
"0  c #461609",
"q  c #4A1A0C",
"w  c #401E13",
"e  c #4F1F11",
"r  c #50200F",
"t  c #522212",
"y  c #592817",
"u  c #5D2C19",
"i  c #64331F",
"p  c #403D37",
"a  c #45423E",
"s  c #434342",
"d  c #4C4C4C",
"f  c #545454",
"g  c #585754",
"h  c #585758",
"j  c #5C5C5C",
"k  c #646464",
"l  c #6B6B6B",
"z  c #716C6C",
"x  c #737373",
"c  c #7B7B7B",
"v  c #848484",
"b  c #888483",
"n  c #8B8B8B",
"m  c gray58",
"M  c #979797",
"N  c #939393",
"B  c #989898",
"V  c gray60",
"C  c #9A9A9A",
"Z  c #9B9B9B",
"A  c #9D9B9A",
"S  c #9C9B9B",
"D  c #9D9D9D",
"F  c gray62",
"G  c #9F9F9F",
"H  c #9C9C9C",
"J  c #A0A0A0",
"K  c gray63",
"L  c #A2A2A2",
"P  c #A4A4A4",
"I  c #A5A5A5",
"U  c gray65",
"Y  c #A7A7A7",
"T  c #A4A4A4",
"R  c #A8A9A6",
"E  c gray66",
"W  c #A9A9A9",
"Q  c #AAA9A9",
"!  c #AAAAAA",
"~  c #ABAAAB",
"^  c #ADADAC",
"/  c gray69",
"(  c #B6B3B4",
")  c #B4B4B4",
"_  c gray71",
"`  c #BEBBBA",
"'  c #BDBCBB",
"]  c gray",
"[  c #BEBEBE",
"{  c #C5C2C1",
"}  c #C5C5C5",
"|  c #C6C4C5",
" . c #C7C4C5",
".. c #C6C5C5",
"X. c #C6C6C6",
"o. c gray78",
"O. c #C3C3C3",
"+. c #C9C7C5",
"@. c #CBC8C7",
"#. c #C8C8C8",
"$. c #CAC8C8",
"%. c #CACACA",
"&. c #CBCBCB",
"*. c #CCC8C8",
"=. c #CFCBCA",
"-. c #CFCBCB",
";. c #CDCDCD",
":. c #CCCCCC",
">. c #D2CFCE",
",. c #D2CECF",
"<. c #D6D2D1",
"1. c #DDD9D7",
"2. c #E0DCDA",
"3. c #E1DEDD",
"4. c #E4E0DF",
"5. c #E4E3E1",
"6. c #E7E4E4",
"7. c #ECE9E8",
"8. c #ECEBEA",
/* pixels */
"                                                                                                                        ",
"                            f j d d f l d d l f f j j f f h l j j k l d f k k k l j j d j l                             ",
"                            d U B ;.n E B E k X.U L U n c 5.+.` E n G f X.B B n n U j N B l                             ",
"                            j k j j d d l k k k d k j l k d f k l l l d j k j f f j k x k l                             ",
"                            l 6.k B * . s / $ . 4 G $ . 7 B % . 7 B * . s / $ . 4 G $ l 8.f                             ",
"                            d 2.k c o . 8 v . . 4 c o . 3 c o . 3 c o . 8 v . . 4 c o j 3.j                             ",
"                            f 1.d x o . d l $ . d c o . s x o . s x o . d l $ . d c o k 4.k                             ",
"                            d #.l s U 4 v s ) 6 v 7 E 3 v s L $ n s U 4 v s ) 6 v 7 E k X.d                             ",
"                            f ^ l . j E 4 . f U $ . f E $ . f E % . j E 4 . f U $ . f d E j                             ",
"                            j B d . 6 v $ . s c . . s c o . 8 c o . 6 v $ . s c o . s l L x                             ",
"                            l d j . l x $ . k x o . j x o . k x o . l x $ . k x o . j l d l                             ",
"                            d #.d . B 8 ) % x 3 n $ c 6 v . c 6 v . B 8 ) * x 3 n $ c k #.k                             ",
"                            j U j B % . s / $ . 4 G $ . 7 B % . 7 B % . s / $ . 4 G $ j n f                             ",
"                            d L d c o . 8 v . . 4 c . . 3 c . . 3 c o . 8 v . . 4 c . f n j                             ",
"                            f B d f k k j j d d d d f f k j j d l j k f k j k j l f k f U k                             ",
"                            j U l X.U B U M c #.*.*.X.n c X.E m U U L l ' G n M N U f k N j                             ",
"                            d S x j j k j f j k l l x x f d j l x f d l k f k x j f j k L j                             ",
"                            l c k                                                     j k j                             ",
"                            d 8.f . # 0 q q q O 0 0 : 0 q O i 0 0 t q 0 + t e r 0 q . j X.j                             ",
"                            d *.f . # 0 0 0 0 O 9 0 : 0 q O u 0 0 q 0 0 + t t t 0 q X f M f                             ",
"                            l @.l . # 0 0 0 9 + 9 0 0 0 e O y 0 0 0 9 0 + t t q 0 q X d G k                             ",
"                            f ' f . # 0 0 X % 4 g b R { >.<.<.>.X.( S z 7 & X q 0 0 X d L f                             ",
"                            d ^ l . # 0 : X & 2 6 a a a a a a s a p 7 5 * % X q 0 0 X d G x                             ",
"                            f B d . O > = , ; O - - < > w X 1 - ; - - ; X < 1 ; ; ; . l M f                             ",
"                            j k f . . O X @ O @ X O @ @ @ X @ X O X O O X @ @ X O O . d f f                             ",
"                            j #.k . . . . . . . . . . . . . . . . . . . . . . . . . . l X.x                             ",
"                            f G f . . . . . . . . . . . . . . . . . . . . . . . . . . f L l                             ",
"                            d L k . . . . . . . . . . . . . . . . . . . . . . . . . . l G k                             ",
"                            j U j . . . . . . . . . . . . . . . . . . . . . . . . . . f U d                             ",
"                            l B l . . . . . . . . . . . . . . . . . . . . . . . . . . d n f                             ",
"                            j U d . . . . . . . . . . . . . . . . . . . . . . . . . . k G f                             ",
"                            k k l . . . . . . . . . . . . . . . . . . . . . . . . . . k j d                             ",
"                            f O.l . . . . . . . . . . . . . . . . . . . . . . . . . . l X.j                             ",
"                            j G l . . . . . . . . . . . . . . . . . . . . . . . . . . j N k                             ",
"                            j G f . . . . . . . . . . . . . . . . . . . . . . . . . . k N k                             ",
"                            f n k . . . . . . . . . . . . . . . . . . . . . . . . . . j n l                             ",
"                            j U k . . . . . . . . . . . . . . . . . . . . . . . . . . l U j                             ",
"                            l M k . . . . . . . . . . . . . . . . . . . . . . . . . . k B k                             ",
"                            j j k . . . . . . . . . . . . . . . . . . . . . . . . . . j l x                             ",
"                            f O.l . . . . . . . . . . . . . . . . . . . . . . . . . . l ' x                             ",
"                            l B f . . . . . . . . . . . . . . . . . . . . . . . . . . j M j                             ",
"                            d B l . . . . . . . . . . . . . . . . . . . . . . . . . . d U f                             ",
"                            d L f . . . . . . . . . . . . . . . . . . . . . . . . . . k B j                             ",
"                            f M l . . . . . . . . . . . . . . . . . . . . . . . . . . k G d                             ",
"                            k L l . . . . . . . . . . . . . . . . . . . . . . . . . . f G j                             ",
"                            l d f . . . . . . . . . . . . . . . . . . . . . . . . . . d j j                             ",
"                            f ' j . . . . . . . . . . . . . . . . . . . . . . . . . . l O.k                             ",
"                            d N l . . . . . . . . . . . . . . . . . . . . . . . . . . l G l                             ",
"                            l U j . . . . . . . . . . . . . . . . . . . . . . . . . . k G f                             ",
"                            d N c . . . . . . . . . . . . . . . . . . . . . . . . . . f L x                             ",
"                            d L d . . . . . . . . . . . . . . . . . . . . . . . . . . f n k                             ",
"                            f B j . . . . . . . . . . . . . . . . . . . . . . . . . . d n j                             ",
"                            f j x . . . . . . . . . . . . . . . . . . . . . . . . . . l k f                             ",
"                            k ;.f . . . . . . . . . . . . . . . . . . . . . . . . . . l O.k                             ",
"                            l n l . . . . . . . . . . . . . . . . . . . . . . . . . . j n f                             ",
"                            f G k . . . . . . . . . . . . . . . . . . . . . . . . . . l n f                             ",
"                            l N l . . . . . . . . . . . . . . . . . . . . . . . . . . k M j                             ",
"                            j n j . . . . . . . . . . . . . . . . . . . . . . . . . . j G f                             ",
"                            f d j . . . . . . . . . . . . . . . . . . . . . . . . . . k f f                             ",
"                                                                                                                        "
};
