/* XPM */
static char *_7984bf92dce4681d3d2c8509bc1fbc7zK8blUDhRuvT08XQ[] = {
/* columns rows colors chars-per-pixel */
"60 60 150 2 ",
"   c None",
".  c #030202",
"X  c #0A0301",
"o  c #0A0A0A",
"O  c #130301",
"+  c #1A0501",
"@  c #150904",
"#  c #1A0904",
"$  c #141414",
"%  c #1A1715",
"&  c #1C1816",
"*  c #1B1B1B",
"=  c #200703",
"-  c #290700",
";  c #220803",
":  c #2E0C03",
">  c #310E05",
",  c #3E0E04",
"<  c #361409",
"1  c #3A170C",
"2  c #3A180D",
"3  c #3F1C10",
"4  c #22211F",
"5  c #242424",
"6  c #2A2929",
"7  c #302E2D",
"8  c #343434",
"9  c #393736",
"0  c #3C3C3C",
"q  c #431306",
"w  c #4D1405",
"e  c #4C1807",
"r  c #461609",
"t  c #4A1708",
"y  c #4B1B0D",
"u  c #531D0C",
"i  c #401E13",
"p  c #4F1F10",
"a  c #501D10",
"s  c #50200F",
"d  c #5A240E",
"f  c #5D290F",
"g  c #532212",
"h  c #5B2612",
"j  c #5C2915",
"k  c #5D2C19",
"l  c #612713",
"z  c #632C14",
"x  c #682A12",
"c  c #612D19",
"v  c #673115",
"b  c #6F3415",
"n  c #65321C",
"m  c #6B351C",
"M  c #6E381F",
"N  c #713616",
"B  c #70391D",
"V  c #403D37",
"C  c #6B3721",
"Z  c #6B3921",
"A  c #703F27",
"S  c #45423E",
"D  c #434342",
"F  c #4C4C4C",
"G  c #545454",
"H  c #585754",
"J  c #585758",
"K  c #5C5C5C",
"L  c #646464",
"P  c #6B6B6B",
"I  c #716C6C",
"U  c #737373",
"Y  c #7B7B7B",
"T  c #848484",
"R  c gray52",
"E  c #868686",
"W  c gray53",
"Q  c #818181",
"!  c #888483",
"~  c #898989",
"^  c gray54",
"/  c #8B8B8B",
"(  c #8D8D8D",
")  c gray55",
"_  c #8E8E8E",
"`  c gray56",
"'  c #8A8A8A",
"]  c #919191",
"[  c #939393",
"{  c gray58",
"}  c #979797",
"|  c #939393",
" . c #989898",
".. c gray60",
"X. c #9A9A9A",
"o. c #9B9B9B",
"O. c #9C9B9B",
"+. c #9D9D9D",
"@. c #9F9F9F",
"#. c gray62",
"$. c #9C9C9C",
"%. c #A1A1A1",
"&. c #A2A2A2",
"*. c #A5A5A5",
"=. c #A4A4A4",
"-. c gray65",
";. c #A7A7A7",
":. c #A4A4A4",
">. c #A8A9A6",
",. c gray66",
"<. c #A9A9A9",
"1. c #AAA9A9",
"2. c #AAAAAA",
"3. c #ABAAAB",
"4. c #ADADAC",
"5. c #ADADAC",
"6. c gray69",
"7. c #B4B4B4",
"8. c gray71",
"9. c #B6B3B4",
"0. c #BEBBBA",
"q. c #BDBCBB",
"w. c gray",
"e. c #BEBEBE",
"r. c #C5C5C5",
"t. c #C7C5C5",
"y. c #C6C6C6",
"u. c gray78",
"i. c #C4C3C3",
"p. c #C9C7C5",
"a. c #CBC8C7",
"s. c #C8C8C8",
"d. c #CAC8C8",
"f. c #CACACA",
"g. c #CBCBCB",
"h. c #CCC8C8",
"j. c #CFCBCA",
"k. c #CFCBCB",
"l. c #CDCDCD",
"z. c #CCCCCC",
"x. c #D2CFCF",
"c. c #D6D2D1",
"v. c #DDD9D7",
"b. c #E0DCDA",
"n. c #E1DEDD",
"m. c #E4E0DF",
"M. c #E4E3E1",
"N. c #E7E4E4",
"B. c #ECE9E8",
"V. c #ECEBEA",
/* pixels */
"                                                                                                                        ",
"                            G K F F G P F F P G G K K G G J P K K L P F G L L L P K K F K P                             ",
"                            F -. .l./ ,. .,.L y.-.&.-._ Y M.p.0.,./ @.G y. . ._ _ -.K [  .P                             ",
"                            K L K K F F P L L L F L K P L F G L P P P F K L K G G K L U L P                             ",
"                            P N.L  .* . D 6.$ . 6 @.$ . 9  .% . 9  .* . D 6.$ . 6 @.$ P V.G                             ",
"                            F b.L Y o . 0 T . . 6 Y o . 5 Y o . 5 Y o . 0 T . . 6 Y o K n.K                             ",
"                            G v.F U o . F P $ . F Y o . D U o . D U o . F P $ . F Y o L m.L                             ",
"                            F s.P D -.6 Q D 7.8 Q 9 ,.5 T D &.$ / D -.6 Q D 7.8 Q 9 ,.L y.F                             ",
"                            G 4.P . K ,.6 . G -.$ . G ,.$ . G ,.% . K ,.6 . G -.$ . G F ,.K                             ",
"                            K  .F . 8 T $ . D Y . . D Y o . 0 Y o . 8 T $ . D Y o . D P &.U                             ",
"                            P F K . P U $ . L U o . K U o . L U o . P U $ . L U o . K P F P                             ",
"                            F s.F .  .0 7.* U 5 _ $ Y 8 T . Y 8 T .  .0 7.* U 5 _ $ Y L s.L                             ",
"                            K -.K  .% . D 6.$ . 6 @.$ . 9  .% . 9  .% . D 6.$ . 6 @.$ K _ G                             ",
"                            F &.F Y o . 0 T . . 6 Y . . 5 Y . . 5 Y o . 0 T . . 6 Y . G / K                             ",
"                            G  .F G L L K K F F F F G G L K K F P K L G L K L K P G L G -.L                             ",
"                            K -.P y.-. .-.} Y s.h.h.y./ Y y.,.| -.-.&.P q.@._ } [ -.G L [ K                             ",
"                            F O.U K K L K G K L P P U U G F K P U G F P L G L U K G K L &.K                             ",
"                            P Y L . # u r y r # r p p h v + M q g g y m O x y r y m X K L K                             ",
"                            F V.G . # d y r r + y g g j z + C q p p y m + z y r r x X K y.K                             ",
"                            F h.G . # d y r r = y g p g v # n r y y y C O l g y r x X G } G                             ",
"                            P a.P . # u y q r O y g y g z + n y y y y z O h y y q z X F @.L                             ",
"                            G q.G . # g y q q ; y g y g z # c y y y y j O h y y q n X F &.G                             ",
"                            F 4.P . # g y q r O g g r y f + h g y y y g O u r y q j X F @.U                             ",
"                            G  .F . # u p , y O g s y y f O u g y y r y O u r y y h X P } G                             ",
"                            K L G . # y y q g O g g y g h = a y p q y u + w r y y j X F G G                             ",
"                            K s.L . # y y q h O g g y y h O g y y t y y + w q r y j X P y.U                             ",
"                            G @.G . + t y r j O g h y y j O h y p q y r O w q y y h X G &.P                             ",
"                            F &.L . + y r y n O g g g y z # z y y q r q + e q y y g X P @.L                             ",
"                            K -.K . + y y y C O y h p y m # z r y r r q # w r y y g X G -.F                             ",
"                            P  .P . # y y y Z O y g g y m O z y y r q q # u y y y s X F / G                             ",
"                            K -.F . # y y q A + y g g y M # M y r q q q O h y r y y X L @.G                             ",
"                            L L P . # y y q Z = y p g r M O B y y r q q O l p r y y X L K F                             ",
"                            G i.P . # y s q m + y y g q M + b y r y , , # n y r y s X P y.K                             ",
"                            K @.P . # y y q m = r y g q M # N y q y , q O m y y q g X K [ L                             ",
"                            K @.G . # g y q m ; r r g q n O N g q y , q + m y y , p X L [ L                             ",
"                            G / L . # y y r n # q q y q z # B g q g q q O z y y , p X K _ P                             ",
"                            K -.L . # s y q j # q q y q h + z h q g q q + v y y , g X P -.K                             ",
"                            P } L . # y y q j = q r r r s # c y q u r r + z y y q p . L  .L                             ",
"                            K K L . # y g r g # q y r q u = z y r s r r # d y s , g X K P U                             ",
"                            G i.P . # y p y s O q y , r y O n y q s r y # h y g q p . P q.U                             ",
"                            P  .G . # q y y y O q y q y y O C y q s r y + g y g r y . K } K                             ",
"                            F  .P . # y y y y O q r , r y O n q q g y y # g p s r y . F -.G                             ",
"                            F &.G . # r y y r O q q , q y O k q q y r r + g g g y y X L  .K                             ",
"                            G } P . # y r y q + q r r r p O j q q y q r + g g y y y X L @.F                             ",
"                            L &.P . # r r X % 6 H ! >.i.x.c.c.x.y.9.O.I 9 & X y y y X G @.K                             ",
"                            P F G . # y , X & 4 8 S S S S S S D S V 9 7 * % X y q r X F K K                             ",
"                            G q.K . O < - 1 > O : : 2 < i X 3 : > : : > X 2 3 > > > . P i.L                             ",
"                            F [ P . . O X @ O @ X O @ @ @ X @ X O X O O X @ @ X O O . P @.P                             ",
"                            P -.K . . . . . . . . . . . . . . . . . . . . . . . . . . L @.G                             ",
"                            F [ Y . . . . . . . . . . . . . . . . . . . . . . . . . . G &.U                             ",
"                            F &.F . . . . . . . . . . . . . . . . . . . . . . . . . . G / L                             ",
"                            G  .K . . . . . . . . . . . . . . . . . . . . . . . . . . F _ K                             ",
"                            G K U . . . . . . . . . . . . . . . . . . . . . . . . . . P L G                             ",
"                            L l.G . . . . . . . . . . . . . . . . . . . . . . . . . . P i.L                             ",
"                            P / P . . . . . . . . . . . . . . . . . . . . . . . . . . K / G                             ",
"                            G @.L . . . . . . . . . . . . . . . . . . . . . . . . . . P / G                             ",
"                            P [ P . . . . . . . . . . . . . . . . . . . . . . . . . . L } K                             ",
"                            K / K . . . . . . . . . . . . . . . . . . . . . . . . . . K @.G                             ",
"                            G F K . . . . . . . . . . . . . . . . . . . . . . . . . . L G G                             ",
"                                                                                                                        "
};
