/* XPM */
static char *result[] = {
/* columns rows colors chars-per-pixel */
"60 60 8 1 ",
"  c #1B1B1B",
". c gray11",
"X c #409956",
"o c #449B59",
"O c #479D5D",
"+ c #5AD65C",
"@ c #99E673",
"# c None",
/* pixels */
"############################################################",
"############################################################",
"############################################################",
"############################################################",
"############################################################",
"############################################################",
"############################################################",
"############################################################",
"############################################################",
"############################################################",
"############################################################",
"############################################################",
"############################################################",
"############################################################",
"############################################################",
"############################################################",
"############################################################",
"############################################################",
"############################################################",
"############################################################",
"############################################################",
"############################################################",
"############################################################",
"############################################################",
"############################################################",
"############################################################",
"############################################################",
"############################################################",
"#########################           ########################",
"###################      O+++++++++O     ###################",
"##################.X+++++++++++++++++++++X.#################",
"###############..X++++++++++++++++++@@@++++...##############",
"#############..+++++++++++++++++++++@@@@@@++++..############",
"###########.X+++++++++++++++++++++++++@@@@@@++++X.##########",
"##########X++++++++++++++++++++++++++++@@@@@++++++X#########",
"######### O+++++++++++++++++++++++++++++++@@++++++O ########",
"#########X+++++++++++++++++++++++++++++++++++++++++X########",
"####### X+++++++++++++++++++++++++++++++++++++++++++X#######",
"#######X+++++++++++++++++++++++++++++++++++++++++++++X######",
"###### X+++++++++++++++++++++++++++++++++++++++++++++X #####",
"###### X+++++++++XX+++++OXXXOOOOOOOO+++++++++++++++++X #####",
"##### X+++++++++OXXOOOOOXXXXXXXXXXXXOOOOOOOO++++++++++X#####",
"##### X+++++++OOXXXXXXXXXXXXXXXXXXXXXXXXXXXXOO++++++++X ####",
"##### X++++++OXXXXXXXXXXXXXXXXXXXXXXXXXXXXXXXXO+++++++X ####",
"######.o+++++OXXXXXXXXXXXXXXXXXXXXXXXXXXXXXXXXO++++++X.#####",
"###### X+++++OoXXXXXXXXXXXXXXXXXXXXXXXXXXXXXXoO++++++X #####",
"#######   O++++OOOXXXXXXXXXXXXXXXXXXXXXXOOOOO+++++O   ######",
"########## O++++++OOOOOOOoXXXXXXXXoOOOOO+++++++++O #########",
"###########    ++++++++++OOOOOOOOOO++++++++++O    ##########",
"############### .OOOOOOOO+++++++++++OOOOOOOO. ##############",
"#################        XOOOOOOOOOX        ################",
"#########################           ########################",
"############################################################",
"############################################################",
"############################################################",
"############################################################",
"############################################################",
"############################################################",
"############################################################",
"############################################################"
};
