/* XPM */
static char *result[] = {
/* columns rows colors chars-per-pixel */
"300 60 8 1 ",
"  c #1B1B1B",
". c gray11",
"X c #409956",
"o c #449B59",
"O c #479D5D",
"+ c #5AD65C",
"@ c #99E673",
"# c None",
/* pixels */
"############################################################################################################################################################################################################################################################################################################",
"############################################################################################################################################################################################################################################################################################################",
"############################################################################################################################################################################################################################################################################################################",
"############################################################################################################################################################################################################################################################################################################",
"############################################################################################################################################################################################################################################################################################################",
"############################################################################################################################################################################################################################################################################################################",
"############################################################################################################################################################################################################################################################################################################",
"############################################################################################################################################################################################################################################################################################################",
"############################################################################################################################################################################################################################################################################################################",
"############################################################################################################################################################################################################################################################################################################",
"############################################################################################################################################################################################################################################################################################################",
"############################################################################################################################################################################################################################################################################################################",
"###########################################################################################################################################################################################################################################################################      ###########################",
"########################################################################################################################################################################################################################################################################## O++++O ##########################",
"########################################################################################################################################################################################################################################################################  O++++++O  ########################",
"######################################################################################################################################################################################################################################################################..O++++++++++O..######################",
"#####################################################################################################################################################################################################################################################################.O++++++++++++++O.#####################",
"####################################################################################################################################################################################################################################################################.o+++++++++@@@@+++o.####################",
"##########################        #################################################################################################################################################################################################################################.o++++++++++@@@@@@@+o.###################",
"#######################  XXXXXXXXXX  #############################################################################################################################################################################################################################.o+++++++++++@@@@@@@++o.##################",
"##################### XXX++++++++++XXX ##############################################          ###################################################################################################################################################################X+++++++++++++@@@@@@@++X##################",
"################### XXO++++++++++++++OXX #########################################  XXXXXXXXXXXX  ###############################################################################################################################################################.O++++++++++++++@@@@@@++O.#################",
"################# .XO++++++++++++++++++OX. ##################################### XXX++++++++++++XXX ############################################################################################################################################################.O++++++++++++++++++@@@+++O.################",
"################.OO+++++++++++++++@@@++++OO.################################## XO++++++++++++++++++OX #########################################################################################################################################################.O++++++++++++++++++++++++++O.###############",
"###############.O+++++++++++++++++@@@@@@+++O.############################### .OO++++++++++++++@@@+++OO. #######################################################################################################################################################.++++++++++++++++++++++++++++.###############",
"############## O++++++++++++++++++@@@@@@@+++O #############################.OO++++++++++++++++@@@@@@++OO.######################################################################################################################################################.++++++++++++++++++++++++++++.###############",
"#############.O++++++++++++++++++++@@@@@@++++O ########################### +++++++++++++++++++@@@@@@@++++ #################################################################################################################################################### ++++++++++++++++++++++++++++++ ##############",
"############ O++++++++++++++++++++++@@@@@@++++O ######################### ++++++++++++++++++++++@@@@@@++++ ################################################################################################################################################### ++++++++++++++++++++++++++++++ ##############",
"############ +++++++++++++++++++++++@@@@@@+++++ ######################## +++++++++++++++++++++++@@@@@@+++++ #####################################           ################################################################################################## ++++++++++++++++++++++++++++++ ##############",
"########### +++++++++++++++++++++++++++@@@++++++ ###################### +++++++++++++++++++++++++++@@@++++++ ##############################      O+++++++++O     ############################################################################################# ++++++++++++++++++++++++++++++ ##############",
"###########.++++++++++++++++++++++++++++++++++++.##################### ++++++++++++++++++++++++++++++++++++++ ############################.X+++++++++++++++++++++X.##########################################...........######################################.++++++++++++++++++++++++++++++.##############",
"########## ++++++++++++++++++++++++++++++++++++++ ####################.++++++++++++++++++++++++++++++++++++++.#########################..X++++++++++++++++++@@@++++...#################################......O+++++++++O......############################### ++++++++++++++++++++++++++++++++ #############",
"##########.++++++++++++++++++++++++++++++++++++++.################### O++++++++++++++++++++++++++++++++++++++O ######################..+++++++++++++++++++++@@@@@@++++..############################...X+++++++++++++++++++++X..############################# ++++++++++++++++++++++++++++++++ #############",
"######### O++++++++++++++++++++++++++++++++++++++O ##################.++++++++++++++++++++++++++++++++++++++++.####################.X+++++++++++++++++++++++++@@@@@@++++X.####################### XXX+++++++++++++++++++@@@@++++XXX ######################### ++++XX++++++XXX+++++++++++++++++ #############",
"######### O++++++O++++++++OO+++++++++++++++++++++O ################# O++++++++++++++++++++++++++++++++++++++++O ##################X++++++++++++++++++++++++++++@@@@@++++++X#################### XX++++++++++++++++++++++@@@@@@+++++XX ###################### X++++++++++++++++++++++++++++++++X ############",
"#########X+++++++Xo++++++OXX++++++++++++++++++++++X################# O+++++++OO++++++OOO++++++++++++++++++++++O ################# O+++++++++++++++++++++++++++++++@@++++++O ##################XX++++++++++++++++++++++++@@@@@@@++++++XX##################### ++++++++++++++++++++++++++++++++++ ############",
"######## O++++++++++++++++++++++++++++++++++++++++O ################X++++++++XO++++++OXX+++++++++++++++++++++++X#################X+++++++++++++++++++++++++++++++++++++++++X#################X+++++++++++++++++++++++++++++@@@@@+++++++X#################### ++++++++++++++++++++++++++++++++++ ############",
"######## O++++++++++++++++++++++++++++++++++++++++O ############### O++++++++++++++++++++++++++++++++++++++++++O ############## X+++++++++++++++++++++++++++++++++++++++++++X############### O++++++++++++++++++++++++++++++++@@+++++++O ################### ++++++++++++++++++++++++++++++++++ ############",
"######## O++++++++++++++++++++++++++++++++++++++++O ############### O++++++++++++++++++++++++++++++++++++++++++O ##############X+++++++++++++++++++++++++++++++++++++++++++++X############# X+++++++++++++++++++++++++++++++++++++++++++X ################## ++++++++++++++++++++++++++++++++++ ############",
"######## O++++++++++++++++++++++++++++++++++++++++O ############### O++++++++++++++++++++++++++++++++++++++++++O ############# X+++++++++++++++++++++++++++++++++++++++++++++X ###########XO+++++++++++++++++++++++++++++++++++++++++++++OX################# ++++++++++++++++++++++++++++++++++ ############",
"#########X+++++++++++++++OOOOOOOOOO+++++++++++++++X################ O++++++++++++++++OOOOOOOOOO++++++++++++++++O ############# X+++++++++XX+++++OXXXOOOOOOOO+++++++++++++++++X ########## X+++++++++++++++++OOOOOOOOOOOO++++++++++++++++++X ################ X+++++++++++OOOOOOOOOO+++++++++++X ############",
"######### O++++++++OOOOOOXXXXXXXXXXOOOOOO++++++++O #################.O++++++++OOOOOOOXXXXXXXXXXOOOOOOO++++++++O.############# X+++++++++OXXOOOOOXXXXXXXXXXXXOOOOOOOO++++++++++X##########X++++++++++OXXOOOOOX...XXXXXXXXOOOOOOOO+++++++++++X################# +++++++OOOOOXXXXXXXXOOOOO+++++++ #############",
"######### O++++++OOXXXXXXXXXXXXXXXXXXXXXXOO++++++O ################# O++++++OOXXXXXXXXXXXXXXXXXXXXXXXXOO++++++O ############# X+++++++OOXXXXXXXXXXXXXXXXXXXXXXXXXXXXOO++++++++X ######## X++++++++OOXXXXXXXXXXXXXXXXXXXXXXXXXXXXOO+++++++++X ################ +++++OOXXXXXXXXXXXXXXXXXXOO+++++ #############",
"##########.+++++OXXXXXXXXXXXXXXXXXXXXXXXXXXO+++++.###################.O++++OXXXXXXXXXXXXXXXXXXXXXXXXXXXXO++++O.############## X++++++OXXXXXXXXXXXXXXXXXXXXXXXXXXXXXXXXO+++++++X ######## X+++++++OXXXXXXXXXXXXXXXXXXXXXXXXXXXXXXXXO++++++++X #################.+++OXXXXXXXXXXXXXXXXXXXXXXO+++.##############",
"###########.++++XXXXXXXXXXXXXXXXXXXXXXXXXXXX++++.#####################.++++XXXXXXXXXXXXXXXXXXXXXXXXXXXXXX++++.################.o+++++OXXXXXXXXXXXXXXXXXXXXXXXXXXXXXXXXO++++++X.##########.X++++++OXXXXXXXXXXXXXXXXXXXXXXXXXXXXXXXXO+++++++X.################## +++XXXXXXXXXXXXXXXXXXXXXXXX+++ ##############",
"############ +++ooXXXXXXXXXXXXXXXXXXXXXXXXoo+++ ####################### +++ooXXXXXXXXXXXXXXXXXXXXXXXXXXoo+++ ################# X+++++OoXXXXXXXXXXXXXXXXXXXXXXXXXXXXXXoO++++++X ########## X++++++OoXXXXXXXXXXXXXXXXXXXXXXXXXXXXXXoO+++++++X ###################.++ooXXXXXXXXXXXXXXXXXXXXoo++.###############",
"############# ++++OOOXXXXXXXXXXXXXXXXXXOOO++++ ######################### ++++OOOXXXXXXXXXXXXXXXXXXXXOOO++++ ###################   O++++OOOXXXXXXXXXXXXXXXXXXXXXXOOOOO+++++O   ############   O+++++OOOXXXXXXXXXXXXXXXXXXXXXXOOOOO++++++o   #####################.+++OoXXXXXXXXXXXXXXXXoO+++.################",
"############## .+++++OOOOOoXXXXXXoOOOOO+++++. ###########################  +++++OOOOOOoXXXXXXoOOOOOO+++++  ####################### O++++++OOOOOOOoXXXXXXXXoOOOOO+++++++++O ################## O+++++++OOOOOOOoXXXXXXXXoOOOOO++++++++++o ######################### .+++OOOOOoXXXXoOOOOO+++. #################",
"################ .++++++++OOOOOOOO++++++++. ############################### .+++++++++OOOOOOOO+++++++++. ##########################    ++++++++++OOOOOOOOOO++++++++++O    ####################    O++++++++++OOOOOOOOOO+++++++++++O    ############################X+++++++OOOOOO+++++++X###################",
"##################   XOOO++++++++++OOOX   ###################################   XOOO++++++++++++OOOX   ################################ .OOOOOOOO+++++++++++OOOOOOOO. ############################ .OOOOOOOOO+++++++++++OOOOOOOOO  #################################   XOO++++++++OOX   ####################",
"#####################    XOOOOOOOOX    ##########################################   XOOOOOOOOOOX   ######################################        XOOOOOOOOOX        ################################         XOOOOOOOOOX         ######################################   oOOOOOOo   #######################",
"#########################          #################################################            #################################################           #################################################           ##################################################        ##########################",
"############################################################################################################################################################################################################################################################################################################",
"############################################################################################################################################################################################################################################################################################################",
"############################################################################################################################################################################################################################################################################################################",
"############################################################################################################################################################################################################################################################################################################",
"############################################################################################################################################################################################################################################################################################################",
"############################################################################################################################################################################################################################################################################################################",
"############################################################################################################################################################################################################################################################################################################",
"############################################################################################################################################################################################################################################################################################################"
};
