/* XPM */
static char *result[] = {
/* columns rows colors chars-per-pixel */
"60 60 8 1 ",
"  c #1B1B1B",
". c gray11",
"X c #409956",
"o c #449B59",
"O c #479D5D",
"+ c #5AD65C",
"@ c #99E673",
"# c None",
/* pixels */
"############################################################",
"############################################################",
"############################################################",
"############################################################",
"############################################################",
"############################################################",
"############################################################",
"############################################################",
"############################################################",
"############################################################",
"############################################################",
"############################################################",
"############################################################",
"############################################################",
"############################################################",
"############################################################",
"############################################################",
"############################################################",
"############################################################",
"############################################################",
"#########################          #########################",
"######################  XXXXXXXXXXXX  ######################",
"#################### XXX++++++++++++XXX ####################",
"################## XO++++++++++++++++++OX ##################",
"################ .OO++++++++++++++@@@+++OO. ################",
"###############.OO++++++++++++++++@@@@@@++OO.###############",
"############## +++++++++++++++++++@@@@@@@++++ ##############",
"############# ++++++++++++++++++++++@@@@@@++++ #############",
"############ +++++++++++++++++++++++@@@@@@+++++ ############",
"########### +++++++++++++++++++++++++++@@@++++++ ###########",
"########## ++++++++++++++++++++++++++++++++++++++ ##########",
"##########.++++++++++++++++++++++++++++++++++++++.##########",
"######### O++++++++++++++++++++++++++++++++++++++O #########",
"#########.++++++++++++++++++++++++++++++++++++++++.#########",
"######## O++++++++++++++++++++++++++++++++++++++++O ########",
"######## O+++++++OO++++++OOO++++++++++++++++++++++O ########",
"########X++++++++XO++++++OXX+++++++++++++++++++++++X########",
"####### O++++++++++++++++++++++++++++++++++++++++++O #######",
"####### O++++++++++++++++++++++++++++++++++++++++++O #######",
"####### O++++++++++++++++++++++++++++++++++++++++++O #######",
"####### O++++++++++++++++OOOOOOOOOO++++++++++++++++O #######",
"########.O++++++++OOOOOOOXXXXXXXXXXOOOOOOO++++++++O.########",
"######## O++++++OOXXXXXXXXXXXXXXXXXXXXXXXXOO++++++O ########",
"#########.O++++OXXXXXXXXXXXXXXXXXXXXXXXXXXXXO++++O.#########",
"##########.++++XXXXXXXXXXXXXXXXXXXXXXXXXXXXXX++++.##########",
"########### +++ooXXXXXXXXXXXXXXXXXXXXXXXXXXoo+++ ###########",
"############ ++++OOOXXXXXXXXXXXXXXXXXXXXOOO++++ ############",
"#############  +++++OOOOOOoXXXXXXoOOOOOO+++++  #############",
"############### .+++++++++OOOOOOOO+++++++++. ###############",
"#################   XOOO++++++++++++OOOX   #################",
"#####################   XOOOOOOOOOOX   #####################",
"########################            ########################",
"############################################################",
"############################################################",
"############################################################",
"############################################################",
"############################################################",
"############################################################",
"############################################################",
"############################################################"
};
