/* XPM */
static char *result[] = {
/* columns rows colors chars-per-pixel */
"40 40 17 1 ",
"  c #0000A5",
". c #0000A6",
"X c #0000A7",
"o c #0000A8",
"O c #0101A9",
"+ c #0102A9",
"@ c #0C13B3",
"# c #101AB7",
"$ c #1420BA",
"% c #253BCA",
"& c #3453D7",
"* c #3556D9",
"= c #3B5EDE",
"- c #456FE7",
"; c #4670E8",
": c #568AF7",
"> c None",
/* pixels */
">>>>>>>>>>>>>>>>>>>>>>>>>>>>>>>>>>>>>>>>",
">>>>>>>>>>>>>>>>>>>>>>>>>>>>>>>>>>>>>>>>",
">>>>>>>>>>>>>>>>>>>>>>>>>>>>>>>>>>>>>>>>",
">>>>>>>>>>>>>>>>>>>>>>>>>>>>>>>>>>>>>>>>",
">>>>>>>>>>>>>>>>>>>>>>>>>>>>>>>>>>>>>>>>",
">>>>>>>>>>>>>>>>>>>>>>>>>>>>>>>>>>>>>>>>",
">>>>>>>>>>>>>>>>>>>>>>>>>>>>>>>>>>>>>>>>",
">>>>>>>>>>>>>>>>>>>>>>>>>>>>>>>>>>>>>>>>",
">>>>>>>>>>>>>>>>>>>>>>>>>>>>>>>>>>>>>>>>",
">>>>>>>>>>>>>>>>>>>>>>>>>>>>>>>>>>>>>>>>",
">>>>>>>>>>>>>>>>>>>>>>>>>>>>>>>>>>>>>>>>",
">>>>>>>>>>>>>>>>>>>>>>>>>>>>>>>>>>>>>>>>",
">>>>>>>>>>>>>>>o>> >> >>o>>>>>>>>>>>>>>>",
">>>>>>>>>>>>>>>o>>$>>$>>o>>>>>>>>>>>>>>>",
">>>>>>>>>>>>>>oo>>*++*>>oo>>>>>>>>>>>>>>",
">>>>>>>>>>>>>>oo>:-++-:>oo>>>>>>>>>>>>>>",
">>>>>>>>>>>>>ooo =;++;= ooo>>>>>>>>>>>>>",
">>>>>>>>>>>>oooo.%&OO&%.oooo>>>>>>>>>>>>",
">>>>>>>>>>>>>oooX@#oo#@Xooo>>>>>>>>>>>>>",
">>>>>>>>>>>>oooooXXooXXooooo>>>>>>>>>>>>",
">>>>>>>>>>>ooooooXXooXXoooooo>>>>>>>>>>>",
">>>>>>>>>>>oooooooooooooooooo>>>>>>>>>>>",
">>>>>>>>>>>oooooooooooooooooo>>>>>>>>>>>",
">>>>>>>>>>>oooooooooooooooooo>>>>>>>>>>>",
">>>>>>>>>>ooo>o>oooooooo>o>ooo>>>>>>>>>>",
">>>>>>>>>>oo>>o>oooooooo>o>>oo>>>>>>>>>>",
">>>>>>>>>>o>>>>>>oo>>oo>>>>>>o>>>>>>>>>>",
">>>>>>>>>>o>>>>>>>o>>o>>>>>>>o>>>>>>>>>>",
">>>>>>>>>>>>>>>>>>>>>>>>>>>>>>>>>>>>>>>>",
">>>>>>>>>>>>>>>>>>>>>>>>>>>>>>>>>>>>>>>>",
">>>>>>>>>>>>>>>>>>>>>>>>>>>>>>>>>>>>>>>>",
">>>>>>>>>>>>>>>>>>>>>>>>>>>>>>>>>>>>>>>>",
">>>>>>>>>>>>>>>>>>>>>>>>>>>>>>>>>>>>>>>>",
">>>>>>>>>>>>>>>>>>>>>>>>>>>>>>>>>>>>>>>>",
">>>>>>>>>>>>>>>>>>>>>>>>>>>>>>>>>>>>>>>>",
">>>>>>>>>>>>>>>>>>>>>>>>>>>>>>>>>>>>>>>>",
">>>>>>>>>>>>>>>>>>>>>>>>>>>>>>>>>>>>>>>>",
">>>>>>>>>>>>>>>>>>>>>>>>>>>>>>>>>>>>>>>>",
">>>>>>>>>>>>>>>>>>>>>>>>>>>>>>>>>>>>>>>>",
">>>>>>>>>>>>>>>>>>>>>>>>>>>>>>>>>>>>>>>>"
};
