/* XPM */
static char *result[] = {
/* columns rows colors chars-per-pixel */
"40 40 18 1 ",
"  c #0000A5",
". c #0000A6",
"X c #0000A7",
"o c #0000A8",
"O c #0101A9",
"+ c #0102A9",
"@ c #0B12B2",
"# c #0C13B3",
"$ c #101AB7",
"% c #1521BB",
"& c #2339C8",
"* c #253CCA",
"= c #3250D5",
"- c #3352D6",
"; c #3453D7",
": c #3758DA",
"> c #4671E8",
", c None",
/* pixels */
",,,,,,,,,,,,,,,,,,,,,,,,,,,,,,,,,,,,,,,,",
",,,,,,,,,,,,,,,,,,,,,,,,,,,,,,,,,,,,,,,,",
",,,,,,,,,,,,,,,,,,,,,,,,,,,,,,,,,,,,,,,,",
",,,,,,,,,,,,,,,,,,,,,,,,,,,,,,,,,,,,,,,,",
",,,,,,,,,,,,,,,,,,,,,,,,,,,,,,,,,,,,,,,,",
",,,,,,,,,,,,,,,,,,,,,,,,,,,,,,,,,,,,,,,,",
",,,,,,,,,,,,,,,,,,,,,,,,,,,,,,,,,,,,,,,,",
",,,,,,,,,,,,,,,,,,,,,,,,,,,,,,,,,,,,,,,,",
",,,,,,,,,,,,,,,,,,,,,,,,,,,,,,,,,,,,,,,,",
",,,,,,,,,,,,,,,,,,,,,,,,,,,,,,,,,,,,,,,,",
",,,,,,,,,,,,,,,,oX ,, Xo,,,,,,,,,,,,,,,,",
",,,,,,,,,,,,,,,,X@%,,%@X,,,,,,,,,,,,,,,,",
",,,,,,,,,,,,,,,, &:++:& ,,,,,,,,,,,,,,,,",
",,,,,,,,,,,,,,,, =>++>= ,,,,,,,,,,,,,,,,",
",,,,,,,,,,,,,,,o ->++>- o,,,,,,,,,,,,,,,",
",,,,,,,,,,,,,,,o.*;OO;*.o,,,,,,,,,,,,,,,",
",,,,,,,,,,,,,,,oX#$oo$#Xo,,,,,,,,,,,,,,,",
",,,,,,,,,,,,,,,ooXXooXXoo,,,,,,,,,,,,,,,",
",,,,,,,,,,,,,,oooXXooXXooo,,,,,,,,,,,,,,",
",,,,,,,,,,,,,,oooooooooooo,,,,,,,,,,,,,,",
",,,,,,,,,,,,,,oooooooooooo,,,,,,,,,,,,,,",
",,,,,,,,,,,,,,oooooooooooo,,,,,,,,,,,,,,",
",,,,,,,,,,,,,,oooooooooooo,,,,,,,,,,,,,,",
",,,,,,,,,,,,,,oooooooooooo,,,,,,,,,,,,,,",
",,,,,,,,,,,,,,,oooo,,oooo,,,,,,,,,,,,,,,",
",,,,,,,,,,,,,,,oooo,,oooo,,,,,,,,,,,,,,,",
",,,,,,,,,,,,,,,ooo,,,,ooo,,,,,,,,,,,,,,,",
",,,,,,,,,,,,,,,oo,,,,,,oo,,,,,,,,,,,,,,,",
",,,,,,,,,,,,,,,,oo,,,,oo,,,,,,,,,,,,,,,,",
",,,,,,,,,,,,,,,,oo,,,,oo,,,,,,,,,,,,,,,,",
",,,,,,,,,,,,,,,,,,,,,,,,,,,,,,,,,,,,,,,,",
",,,,,,,,,,,,,,,,,,,,,,,,,,,,,,,,,,,,,,,,",
",,,,,,,,,,,,,,,,,,,,,,,,,,,,,,,,,,,,,,,,",
",,,,,,,,,,,,,,,,,,,,,,,,,,,,,,,,,,,,,,,,",
",,,,,,,,,,,,,,,,,,,,,,,,,,,,,,,,,,,,,,,,",
",,,,,,,,,,,,,,,,,,,,,,,,,,,,,,,,,,,,,,,,",
",,,,,,,,,,,,,,,,,,,,,,,,,,,,,,,,,,,,,,,,",
",,,,,,,,,,,,,,,,,,,,,,,,,,,,,,,,,,,,,,,,",
",,,,,,,,,,,,,,,,,,,,,,,,,,,,,,,,,,,,,,,,",
",,,,,,,,,,,,,,,,,,,,,,,,,,,,,,,,,,,,,,,,"
};
