/* XPM */
static char *result[] = {
/* columns rows colors chars-per-pixel */
"16 10 3 1 ",
"  c #0000A8",
". c #5C94FC",
"X c None",
/* pixels */
"XXXXX  XX  XXXXX",
"XXXXX .  . XXXXX",
"XXXX  .  .  XXXX",
"XXXX        XXXX",
"XXX          XXX",
"XXX          XXX",
"XXX          XXX",
"XXXX   XX   XXXX",
"XXXX  XXXX  XXXX",
"XXXXX XXXX XXXXX"
};
