/* XPM */
static char *result[] = {
/* columns rows colors chars-per-pixel */
"60 60 8 1 ",
"  c #1B1B1B",
". c gray11",
"X c #409956",
"o c #449B59",
"O c #479D5D",
"+ c #5AD65C",
"@ c #99E673",
"# c None",
/* pixels */
"############################################################",
"############################################################",
"############################################################",
"############################################################",
"############################################################",
"############################################################",
"############################################################",
"############################################################",
"############################################################",
"############################################################",
"############################################################",
"############################################################",
"############################################################",
"############################################################",
"############################################################",
"############################################################",
"############################################################",
"############################################################",
"############################################################",
"############################################################",
"############################################################",
"############################################################",
"############################################################",
"############################################################",
"############################################################",
"############################################################",
"############################################################",
"############################################################",
"############################################################",
"############################################################",
"#########################...........########################",
"###################......O+++++++++O......##################",
"################...X+++++++++++++++++++++X..################",
"############# XXX+++++++++++++++++++@@@@++++XXX ############",
"########### XX++++++++++++++++++++++@@@@@@+++++XX ##########",
"##########XX++++++++++++++++++++++++@@@@@@@++++++XX#########",
"#########X+++++++++++++++++++++++++++++@@@@@+++++++X########",
"######## O++++++++++++++++++++++++++++++++@@+++++++O #######",
"####### X+++++++++++++++++++++++++++++++++++++++++++X ######",
"######XO+++++++++++++++++++++++++++++++++++++++++++++OX#####",
"##### X+++++++++++++++++OOOOOOOOOOOO++++++++++++++++++X ####",
"#####X++++++++++OXXOOOOOX...XXXXXXXXOOOOOOOO+++++++++++X####",
"#### X++++++++OOXXXXXXXXXXXXXXXXXXXXXXXXXXXXOO+++++++++X ###",
"#### X+++++++OXXXXXXXXXXXXXXXXXXXXXXXXXXXXXXXXO++++++++X ###",
"#####.X++++++OXXXXXXXXXXXXXXXXXXXXXXXXXXXXXXXXO+++++++X.####",
"##### X++++++OoXXXXXXXXXXXXXXXXXXXXXXXXXXXXXXoO+++++++X ####",
"######   O+++++OOOXXXXXXXXXXXXXXXXXXXXXXOOOOO++++++o   #####",
"######### O+++++++OOOOOOOoXXXXXXXXoOOOOO++++++++++o ########",
"##########    O++++++++++OOOOOOOOOO+++++++++++O    #########",
"############## .OOOOOOOOO+++++++++++OOOOOOOOO  #############",
"################         XOOOOOOOOOX         ###############",
"#########################           ########################",
"############################################################",
"############################################################",
"############################################################",
"############################################################",
"############################################################",
"############################################################",
"############################################################",
"############################################################"
};
