/* XPM */
static char *result[] = {
/* columns rows colors chars-per-pixel */
"60 60 8 1 ",
"  c #1B1B1B",
". c gray11",
"X c #409956",
"o c #449B59",
"O c #479D5D",
"+ c #5AD65C",
"@ c #99E673",
"# c None",
/* pixels */
"############################################################",
"############################################################",
"############################################################",
"############################################################",
"############################################################",
"############################################################",
"############################################################",
"############################################################",
"############################################################",
"############################################################",
"############################################################",
"############################################################",
"############################################################",
"############################################################",
"############################################################",
"############################################################",
"############################################################",
"############################################################",
"##########################        ##########################",
"#######################  XXXXXXXXXX  #######################",
"##################### XXX++++++++++XXX #####################",
"################### XXO++++++++++++++OXX ###################",
"################# .XO++++++++++++++++++OX. #################",
"################.OO+++++++++++++++@@@++++OO.################",
"###############.O+++++++++++++++++@@@@@@+++O.###############",
"############## O++++++++++++++++++@@@@@@@+++O ##############",
"#############.O++++++++++++++++++++@@@@@@++++O #############",
"############ O++++++++++++++++++++++@@@@@@++++O ############",
"############ +++++++++++++++++++++++@@@@@@+++++ ############",
"########### +++++++++++++++++++++++++++@@@++++++ ###########",
"###########.++++++++++++++++++++++++++++++++++++.###########",
"########## ++++++++++++++++++++++++++++++++++++++ ##########",
"##########.++++++++++++++++++++++++++++++++++++++.##########",
"######### O++++++++++++++++++++++++++++++++++++++O #########",
"######### O++++++O++++++++OO+++++++++++++++++++++O #########",
"#########X+++++++Xo++++++OXX++++++++++++++++++++++X#########",
"######## O++++++++++++++++++++++++++++++++++++++++O ########",
"######## O++++++++++++++++++++++++++++++++++++++++O ########",
"######## O++++++++++++++++++++++++++++++++++++++++O ########",
"######## O++++++++++++++++++++++++++++++++++++++++O ########",
"#########X+++++++++++++++OOOOOOOOOO+++++++++++++++X#########",
"######### O++++++++OOOOOOXXXXXXXXXXOOOOOO++++++++O #########",
"######### O++++++OOXXXXXXXXXXXXXXXXXXXXXXOO++++++O #########",
"##########.+++++OXXXXXXXXXXXXXXXXXXXXXXXXXXO+++++.##########",
"###########.++++XXXXXXXXXXXXXXXXXXXXXXXXXXXX++++.###########",
"############ +++ooXXXXXXXXXXXXXXXXXXXXXXXXoo+++ ############",
"############# ++++OOOXXXXXXXXXXXXXXXXXXOOO++++ #############",
"############## .+++++OOOOOoXXXXXXoOOOOO+++++. ##############",
"################ .++++++++OOOOOOOO++++++++. ################",
"##################   XOOO++++++++++OOOX   ##################",
"#####################    XOOOOOOOOX    #####################",
"#########################          #########################",
"############################################################",
"############################################################",
"############################################################",
"############################################################",
"############################################################",
"############################################################",
"############################################################",
"############################################################"
};
