/* XPM */
static char *result[] = {
/* columns rows colors chars-per-pixel */
"60 60 8 1 ",
"  c #1B1B1B",
". c gray11",
"X c #409956",
"o c #449B59",
"O c #479D5D",
"+ c #5AD65C",
"@ c #99E673",
"# c None",
/* pixels */
"############################################################",
"############################################################",
"############################################################",
"############################################################",
"############################################################",
"############################################################",
"############################################################",
"############################################################",
"############################################################",
"############################################################",
"############################################################",
"############################################################",
"###########################      ###########################",
"########################## O++++O ##########################",
"########################  O++++++O  ########################",
"######################..O++++++++++O..######################",
"#####################.O++++++++++++++O.#####################",
"####################.o+++++++++@@@@+++o.####################",
"###################.o++++++++++@@@@@@@+o.###################",
"##################.o+++++++++++@@@@@@@++o.##################",
"##################X+++++++++++++@@@@@@@++X##################",
"#################.O++++++++++++++@@@@@@++O.#################",
"################.O++++++++++++++++++@@@+++O.################",
"###############.O++++++++++++++++++++++++++O.###############",
"###############.++++++++++++++++++++++++++++.###############",
"###############.++++++++++++++++++++++++++++.###############",
"############## ++++++++++++++++++++++++++++++ ##############",
"############## ++++++++++++++++++++++++++++++ ##############",
"############## ++++++++++++++++++++++++++++++ ##############",
"############## ++++++++++++++++++++++++++++++ ##############",
"##############.++++++++++++++++++++++++++++++.##############",
"############# ++++++++++++++++++++++++++++++++ #############",
"############# ++++++++++++++++++++++++++++++++ #############",
"############# ++++XX++++++XXX+++++++++++++++++ #############",
"############ X++++++++++++++++++++++++++++++++X ############",
"############ ++++++++++++++++++++++++++++++++++ ############",
"############ ++++++++++++++++++++++++++++++++++ ############",
"############ ++++++++++++++++++++++++++++++++++ ############",
"############ ++++++++++++++++++++++++++++++++++ ############",
"############ ++++++++++++++++++++++++++++++++++ ############",
"############ X+++++++++++OOOOOOOOOO+++++++++++X ############",
"############# +++++++OOOOOXXXXXXXXOOOOO+++++++ #############",
"############# +++++OOXXXXXXXXXXXXXXXXXXOO+++++ #############",
"##############.+++OXXXXXXXXXXXXXXXXXXXXXXO+++.##############",
"############## +++XXXXXXXXXXXXXXXXXXXXXXXX+++ ##############",
"###############.++ooXXXXXXXXXXXXXXXXXXXXoo++.###############",
"################.+++OoXXXXXXXXXXXXXXXXoO+++.################",
"################# .+++OOOOOoXXXXoOOOOO+++. #################",
"###################X+++++++OOOOOO+++++++X###################",
"####################   XOO++++++++OOX   ####################",
"#######################   oOOOOOOo   #######################",
"##########################        ##########################",
"############################################################",
"############################################################",
"############################################################",
"############################################################",
"############################################################",
"############################################################",
"############################################################",
"############################################################"
};
