/* XPM */
static char *result[] = {
/* columns rows colors chars-per-pixel */
"60 60 233 2 ",
"   c #D62200",
".  c #D62300",
"X  c #D72300",
"o  c #D72400",
"O  c #D72500",
"+  c #D72600",
"@  c #D82600",
"#  c #D82700",
"$  c #D82800",
"%  c #D82900",
"&  c #D82901",
"*  c #D92A00",
"=  c #D82A01",
"-  c #D92A01",
";  c #D92B01",
":  c #D92C02",
">  c #D92D02",
",  c #DA2D03",
"<  c #DA2E03",
"1  c #DA2F03",
"2  c #DA2F04",
"3  c #DA3004",
"4  c #DB3004",
"5  c #DB3104",
"6  c #DB3205",
"7  c #DB3305",
"8  c #DC3305",
"9  c #DC3306",
"0  c #DC3406",
"q  c #DD3607",
"w  c #DD3707",
"e  c #DE3A07",
"r  c #DD3708",
"t  c #DD3808",
"y  c #DD3908",
"u  c #DE3909",
"i  c #DE3A09",
"p  c #DE3B0A",
"a  c #DF3D0A",
"s  c #DF3D0B",
"d  c #DF3E0B",
"f  c #DF3F0B",
"g  c #E03F0C",
"h  c #E0420D",
"j  c #E1430E",
"k  c #E2460C",
"l  c #E1450F",
"z  c #E2470E",
"x  c #E2460F",
"c  c #E2470F",
"v  c #E34911",
"b  c #E34A11",
"n  c #E34B11",
"m  c #E34B12",
"M  c #E44D10",
"N  c #E44D13",
"B  c #E44E13",
"V  c #E55014",
"C  c #E55115",
"Z  c #E55215",
"A  c #E65215",
"S  c #E65416",
"D  c #E65517",
"F  c #E75517",
"G  c #E75616",
"H  c #E75617",
"J  c #E85714",
"K  c #E75718",
"L  c #E85919",
"P  c #E85A18",
"I  c #E85A19",
"U  c #E85B19",
"Y  c #E95C1A",
"T  c #E95E1B",
"R  c #EA601C",
"E  c #EA611C",
"W  c #EA611D",
"Q  c #EB621D",
"!  c #EB631D",
"~  c #EB631E",
"^  c #ED661C",
"/  c #E85D21",
"(  c #E95F21",
")  c #EC6720",
"_  c #ED6820",
"`  c #ED6921",
"'  c #ED6A21",
"]  c #EE6B22",
"[  c #EE6C22",
"{  c #EE6C23",
"}  c #EE6E23",
"|  c #EF6F24",
" . c #EF7024",
".. c #F07125",
"X. c #F07225",
"o. c #F17426",
"O. c #F17527",
"+. c #F17627",
"@. c #F37A25",
"#. c #F27826",
"$. c #F37A27",
"%. c #F27828",
"&. c #F27929",
"*. c #F27A29",
"=. c #F37B2A",
"-. c #F37C2A",
";. c #F37D2B",
":. c #F47E28",
">. c #F47F2C",
",. c #F5802A",
"<. c #F5822A",
"1. c #F6822B",
"2. c #F4802C",
"3. c #F4812C",
"4. c #F5822D",
"5. c #F5832D",
"6. c #F7852C",
"7. c #F6842D",
"8. c #F6862E",
"9. c #F6872F",
"0. c #F7872F",
"q. c #F98A2C",
"w. c #F78730",
"e. c #F78830",
"r. c #F78931",
"t. c #F78A31",
"y. c #F88A31",
"u. c #F88B31",
"i. c #F88B32",
"p. c #F88C32",
"a. c #F88D33",
"s. c #F98F33",
"d. c #FB9231",
"f. c #FB9232",
"g. c #FB9332",
"h. c #FC9432",
"j. c #FC9633",
"k. c #F99034",
"l. c #F99035",
"z. c #FA9134",
"x. c #FA9234",
"c. c #FA9235",
"v. c #FA9335",
"b. c #FB9436",
"n. c #FB9536",
"m. c #FB9637",
"M. c #FC9736",
"N. c #FC9737",
"B. c #FF9A31",
"V. c #FD9833",
"C. c #FD9834",
"Z. c #FD9A36",
"A. c #FC9738",
"S. c #FC9838",
"D. c #FC9938",
"F. c #FC9839",
"G. c #FD9A38",
"H. c #FD9A39",
"J. c #FF9E38",
"K. c #FC9B3D",
"L. c #FD9D3D",
"P. c #FC9C3F",
"I. c #FFA03C",
"U. c #FA9741",
"Y. c #F89746",
"T. c #FC9C40",
"R. c #FC9D40",
"E. c #FC9E45",
"W. c #F2955F",
"Q. c #F59859",
"!. c #FDA246",
"~. c #FCA148",
"^. c #FDA54B",
"/. c #FDA54D",
"(. c #FCA44F",
"). c #FDA650",
"_. c #FCA754",
"`. c #FCA755",
"'. c #FCA756",
"]. c #FCA856",
"[. c #FCAC60",
"{. c #FCAD62",
"}. c #FCAE62",
"|. c #FEB466",
" X c #FCB169",
".X c #FDB469",
"XX c #FCB46D",
"oX c #FCB570",
"OX c #FDB770",
"+X c #FDB671",
"@X c #FDBA76",
"#X c #FCB979",
"$X c #FDBE7E",
"%X c #FCBE84",
"&X c #FDC080",
"*X c #FDC081",
"=X c #FEC282",
"-X c #FCCB9B",
";X c #FCCB9C",
":X c #FCCC9E",
">X c #FBCAA0",
",X c #FBCCA5",
"<X c #FCD2A9",
"1X c #FCD3AB",
"2X c #FCD5AF",
"3X c #FCD7B4",
"4X c #FCD8B6",
"5X c #FCD9B7",
"6X c #FCD9B8",
"7X c #FCDDBD",
"8X c #FCDEC2",
"9X c #FCE1C8",
"0X c #FCE3CB",
"qX c #FCE5D0",
"wX c #FCE6D0",
"eX c #FCE7D3",
"rX c #FCE9D7",
"tX c #FCECDD",
"yX c #FCEFE2",
"uX c #FCF1E5",
"iX c #FCF1E6",
"pX c #FCF1E7",
"aX c #FCF2E9",
"sX c #FCF3E9",
"dX c #FCF6F1",
"fX c #FCF9F6",
"gX c #FCF9F7",
"hX c #FCFAF9",
"jX c #FCFBFA",
"kX c #FCFBFB",
"lX c #FCFDFE",
"zX c #FCFFFF",
"xX c None",
/* pixels */
"xXxXxXxXxXxXxXxXxXxXxXxXxXxXxXxXxXxXxXxXxXxXxXxXxXxXxXxXxXxXxXxXxXxXxXxXxXxXxXxXxXxXxXxXxXxXxXxXxXxXxXxXxXxXxXxXxXxXxXxX",
"xXxXxXxXxXxXxXxXxXxXxXxXxXxXxXxXxXxXxXxXxXxXxXxXxXxXxXxXxXxXxXxXxXxXxXxXxXxXxXxXxXxXxXxXxXxXxXxXxXxXxXxXxXxXxXxXxXxXxXxX",
"xXxXxXxXxXxXxXxXxXxXxXxXxXxXxXxXxXxXxXxXxXxXxXxXxXxXxXxXxXxXxXxXxXxXxXxXxXxXxXxXxXxXxXxXxXxXxXxXxXxXxXxXxXxXxXxXxXxXxXxX",
"xXxXxXxXxXxXxXxXxXxXxXxXxXxXxXxXxXxXxXxXxXxXxXxXxXxXxXxXxXxXxXxXxXxXxXxXxXxXxXxXxXxXxXxXxXxXxXxXxXxXxXxXxXxXxXxXxXxXxXxX",
"xXxXxXxXxXxXxXxXxXxXxXxXxXxXxXxXxXxXxXxXxXxXxXxXxXxXxXxXxXxXxXxXxXxXxXxXxXxXxXxXxXxXxXxXxXxXxXxXxXxXxXxXxXxXxXxXxXxXxXxX",
"xXxXxXxXxXxXxXxXxXxXxXxXxXxXxXxXxXxXxXxXxXxXxXxXxXxXxXxXxXxXxXxXxXxXxXxXxXxXxXxXxXxXxXxXxXxXxXxXxXxXxXxXxXxXxXxXxXxXxXxX",
"xXxXxXxXxXxXxXxXxXxXxXxXxXxXxXxXxXxXxXxXxXxXxXxXxXxXxXxXxXxXxXxXxXxXxXxXxXxXxXxXxXxXxXxXxXxXxXxXxXxXxXxXxXxXxXxXxXxXxXxX",
"xXxXxXxXxXxXxXxXxXxXxXxXxXxXxXxXxXxXxXxXxXxXxXxXxXxXxXxXxXxXxXxXxXxXxXxXxXxXxXxXxXxXxXxXxXxXxXxXxXxXxXxXxXxXxXxXxXxXxXxX",
"xXxXxXxXxXxXxXxXxXxXxXxXxXxXxXxXxXxXxXxXxXxXxXxXxXxXxXxXxXxXxXxXxXxXxXxXxXxXxXxXxXxXxXxXxXxXxXxXxXxXxXxXxXxXxXxXxXxXxXxX",
"xXxXxXxXxXxXxXxXxXxXxXxXxXxXxXxXxXxXxXxXxXxXxXxXxXxXxXxXxXxXxXxXxXxXxXxXxXxXxXxXxXxXxXxXxXxXxXxXxXxXxXxXxXxXxXxXxXxXxXxX",
"xXxXxXxXxXxXxXxXxXxXxXxXxXxXxXxXxXxXxXxXxXxXxXxXxXxXxXxXxXxXxXxXxXxXxXxXxXxXxXxXxXxXxXxXxXxXxXxXxXxXxXxXxXxXxXxXxXxXxXxX",
"xXxXxXxXxXxXxXxXxXxXxXxXxXxXxXxXxXxXxXxXxXxXxXxXxXxXxXxXxXxXxXxXxXxXxXxXxXxXxXxXxXxXxXxXxXxXxXxXxXxXxXxXxXxXxXxXxXxXxXxX",
"xXxXxXxXxXxXxXxXxXxXxXxXxXxXxXxXxXxXxXxXxXxXxXxXxXxXxXxXxXxXxXxXxXxXxXxXxXxXxXxXxXxXxXxXxXxXxXxXxXxXxXxXxXxXxXxXxXxXxXxX",
"xXxXxXxXxXxXxXxXxXxXxXxXxXxXxXxXxXxXxXxXxXxXxXxXxXxXxXxXxXxXxXxXxXxXxXxXxXxXxXxXxXxXxXxXxXxXxXxXxXxXxXxXxXxXxXxXxXxXxXxX",
"xXxXxXxXxXxXxXxXxXxXxXxXxXxXxXxXxXxXxXxXxXxXxXxXxXxXxXxXxXxXxXxXxXxXxXxXxXxXxXxXxXxXxXxXxXxXxXxXxXxXxXxXxXxXxXxXxXxXxXxX",
"xXxXxXxXxXxXxXxXxXxXxXxXxXxXxXxXxXxXxX$ $ xXxXxXxXxX$ $ xXxXxXxXxXxXxXxXxXxXxXxXxXxXxXxXxXxXxXxXxXxXxXxXxXxXxXxXxXxXxXxX",
"xXxXxXxXxXxXxXxXxXxXxXxXxXxXxXxXxXxXxX$ $ xXxXxXxXxXxX$ xXxXxXxXxXxXxXxXxXxXxXxXxXxXxXxXxXxXxXxXxXxXxXxXxXxXxXxXxXxXxXxX",
"xXxXxXxXxXxXxXxXxXxXxXxXxXxXxXxXxXxXxX$ $ xXxXxXxXxXxXxX$ $ xXxXxXxX$ xXxXxXS.xXxXxXxXxXxXxXxXxXxXxXxXxXxXxXxXxXxXxXxXxX",
"xXxXxXxXxXxXxXxXxXxXxXxXxXxXxXxXxXxXxXX xXxXxXxXxXxXxXxX$ $ $ xXxXxX$ o xX+.z.] xXxXxXxXxXxXxXxXxXxXxXxXxXxXxXxXxXxXxXxX",
"xXxXxXxXxXxXxXxXxXxXxXxXxXxXxXxXxXxXxXxXxXxXxXxX$ $ xXxX$ $ $ $ xXxXxXxX% q xX7 $ xXxXxXxXxXxXxXxXxXxXxXxXxXxXxXxXxXxXxX",
"xXxXxXxXxXxXxXxXxXxXxXxXxXxXxXxXxXxXxXxXxXxXxXxX$ $ $ $ $ $ $ $ $ xXxXxX$ o xXO $ xXxXxXxXxXxXxXxXxXxXxXxXxXxXxXxXxXxXxX",
"xXxXxXxXxXxXxXxXxXxXxXxXxXxXxXxXxXxXxXS.b.xXxXxX$ $ $ $ $ $ $ $ $ $ xXxX$ $ xX$ $ xXxXxXxXxXxXxXxXxXxXxXxXxXxXxXxXxXxXxX",
"xXxXxXxXxXxXxXxXxXxXxXxXxXxXxXxXxXxXxXxX` xXxXxX$ $ $ $ $ $ $ # O O # $ $ $ xXxXxXxXxXxXxXxXxXxXxXxXxXxXxXxXxXxXxXxXxXxX",
"xXxXxXxXxXxXxXxXxXxXxXxXxXxXxXxXxXxXxXxXxX$ $ xX$ $ $ $ $ $ $ ; 1 < % $ $ xXxXxXxXxXxXxXxXxXxXxXxXxXxXxXxXxXxXxXxXxXxXxX",
"xXxXxXxXxXxXxXxXxXxXxXxXxXxXxXxXxXxXxXxXxX$ $ # xXxX+ $ $ # # s W S : . $ xXxXxXr O.xXxXxXxXxXxXxXxXxXxXxXxXxXxXxXxXxXxX",
"xXxXxXxXxXxXxXxXxXxXxXxXxXxXxXxXxX$ $ xXxX$ $ & xXxX3 $ $ # + x *.| f : % # xX  0 ) p.xXxXxXxXxXxXxXxXxXxXxXxXxXxXxXxXxX",
"xXxXxXxXxXxXxXxXxXxXxXxXxXxXxXxXxX$ $ $ $ $ O < ~ u.b $ # @ o 5 n E [ Z , O $ + , j A xXxXxXxXxXxXxXxXxXxXxXxXxXxXxXxXxX",
"xXxXxXxXxXxXxXxXxXxXxXxXxXxXxXxXxX$ $ $ $ $ O 1 E &.m # O > w 9 - A t.[ 3 o $ $ $ $ # xXxXxXxXxXxXxXxXxXxXxXxXxXxXxXxXxX",
"xXxXxXxXxXxXxXxXxXxXxXxXxXxXxX$ $ xX$ $ $ $ # ; a l 8 o o p ) R 9 V u.[ ,   $ $ $ # + xXxXxXxXxXxXxXxXxXxXxXxXxXxXxXxXxX",
"xXxXxXxXxXxXxXxXxXxXxXxXxXxXxX$ $ xXxX$ $ $ $ $ O $ y s : h 4.*.i N r.%.c 5 $ # $ $ $ xXxXxXxXxXxXxXxXxXxXxXxXxXxXxXxXxX",
"xXxXxXxXxXxXxXxXxXxXxXxXxXxXxX$ $ xXxX$ $ $ $ $   2 ! ..d g 3.&.u m y.b.;.C & o $ $ $ xXxXxXxXxXxXxXxXxXxXxXxXxXxXxXxXxX",
"xXxXxXxXxXxXxXxXxXxXxXxXxXxXxX$ $ xX$ $ $ $ + $ t B '  .D P 6.,.G Q s.I.H.o.v 9 $ # $ xXxXxXxXxXxXxXxXxXxXxXxXxXxXxXxXxX",
"xXxXxXxXxXxXxXxXxXxXxXxXxXxXxX$ $ $ $ $ $ $ o < R =.F c } u.n.x.e.i.m.H.D.v.>.B & xXxX$ $ xXxXxXxXxXxXxXxXxXxXxXxXxXxXxX",
"xXxXxXxXxXxXxXxXxXxXxXxXxXxXxX$ $ $ $ $ O # t S 2.z.^ J <.^.+XXX!.Z.j.1.X.w.c.I -   xX$ $ xXxXxXxXxXxXxXxXxXxXxXxXxXxXxX",
"xXxXxXxXxXxXxXxXxXxXxXxXxXxXxX$ $ $ $ $ + , I e.m.A.l.a.f.}.8X6X].C.F.{ h _ p.U = O $ $ $ xXxXxXxXxXxXxXxXxXxXxXxXxXxXxX",
"xXxXxXxXxXxXxXxXxXxXxXxXxXxXxX$ $ $ # % i K -.D.V.K.OX$X~.{.rX0X'.).%XW.( #.k.Y = O $ $ $ xXxXxXxXxXxXxXxXxXxXxXxXxXxXxX",
"xXxXxXxXxXxXxXxXxXxXxXxXxXxXxXxXxX$ O & S e.N.S.M._.4XwXoX XeX9X[.#XqX>XU.d.i.H & O $ $ $ xXxXxXxXxXxXxXxXxXxXxXxXxXxXxX",
"xXxXxXxXxXxXxXxXxXxXxXxXxXxXxXxXxX$ O - Y N.J.T.oX1XiXdX5X2XpXyX1X;X:X@XR.:.T d % # $ $ xXxXxXxXxXxXxXxXxXxXxXxXxXxXxXxX",
"xXxXxXxXxXxXxXxXxXxXxXxXxXxXxXxXxX$ O & S e.h.E.-XiXhXkXgXfXjXlXgX3X`.G.b.Q 4 # $ $ $ xXxXxXxXxXxXxXxXxXxXxXxXxXxXxXxXxX",
"xXxXxXxXxXxXxXxXxXxXxXxXxXxXxXxXxXxX+ % i K $.P..X:XtXzXzXzXzXzXzX7X/.B.N.R = . $ $ $ xXxXxXxXxXxXxXxXxXxXxXxXxXxXxXxXxX",
"xXxXxXxXxXxXxXxXxXxXxXxXxXxXxXxXxXxXxX$ + , I e.g.(.<XiXaXuXuXsXiX,XY.q.9.L : O $ $ $ xXxXxXxXxXxXxXxXxXxXxXxXxXxXxXxXxX",
"xXxXxXxXxXxXxXxXxXxXxXxXxXxXxXxXxXxXxX$ + # t S @.L.|.&X*X&X&X=X*XQ./ M N p = # $ $ xXxXxXxXxXxXxXxXxXxXxXxXxXxXxXxXxXxX",
"xXxXxXxXxXxXxXxXxXxXxXxXxXxXxXxXxXxXxX$ $ $ o < Y 5.0.7.7.7.7.8.7.! 6 o # $ $ $ $ xXxXxXxXxXxXxXxXxXxXxXxXxXxXxXxXxXxXxX",
"xXxXxXxXxXxXxXxXxXxXxXxXxXxXxXxXxXxXxXxXxXxXO $ y c z k k k k k k e * . xXxXxXxXxXxXxXxXxXxXxXxXxXxXxXxXxXxXxXxXxXxXxXxX",
"xXxXxXxXxXxXxXxXxXxXxXxXxXxXxXxXxXxXxXxXxXxXxX$ + O O O O O O O O + $ $ xXxXxXxXxXxXxXxXxXxXxXxXxXxXxXxXxXxXxXxXxXxXxXxX",
"xXxXxXxXxXxXxXxXxXxXxXxXxXxXxXxXxXxXxXxXxXxXxXxXxXxXxXxXxXxXxXxXxXxXxXxXxXxXxXxXxXxXxXxXxXxXxXxXxXxXxXxXxXxXxXxXxXxXxXxX",
"xXxXxXxXxXxXxXxXxXxXxXxXxXxXxXxXxXxXxXxXxXxXxXxXxXxXxXxXxXxXxXxXxXxXxXxXxXxXxXxXxXxXxXxXxXxXxXxXxXxXxXxXxXxXxXxXxXxXxXxX",
"xXxXxXxXxXxXxXxXxXxXxXxXxXxXxXxXxXxXxXxXxXxXxXxXxXxXxXxXxXxXxXxXxXxXxXxXxXxXxXxXxXxXxXxXxXxXxXxXxXxXxXxXxXxXxXxXxXxXxXxX",
"xXxXxXxXxXxXxXxXxXxXxXxXxXxXxXxXxXxXxXxXxXxXxXxXxXxXxXxXxXxXxXxXxXxXxXxXxXxXxXxXxXxXxXxXxXxXxXxXxXxXxXxXxXxXxXxXxXxXxXxX",
"xXxXxXxXxXxXxXxXxXxXxXxXxXxXxXxXxXxXxXxXxXxXxXxXxXxXxXxXxXxXxXxXxXxXxXxXxXxXxXxXxXxXxXxXxXxXxXxXxXxXxXxXxXxXxXxXxXxXxXxX",
"xXxXxXxXxXxXxXxXxXxXxXxXxXxXxXxXxXxXxXxXxXxXxXxXxXxXxXxXxXxXxXxXxXxXxXxXxXxXxXxXxXxXxXxXxXxXxXxXxXxXxXxXxXxXxXxXxXxXxXxX",
"xXxXxXxXxXxXxXxXxXxXxXxXxXxXxXxXxXxXxXxXxXxXxXxXxXxXxXxXxXxXxXxXxXxXxXxXxXxXxXxXxXxXxXxXxXxXxXxXxXxXxXxXxXxXxXxXxXxXxXxX",
"xXxXxXxXxXxXxXxXxXxXxXxXxXxXxXxXxXxXxXxXxXxXxXxXxXxXxXxXxXxXxXxXxXxXxXxXxXxXxXxXxXxXxXxXxXxXxXxXxXxXxXxXxXxXxXxXxXxXxXxX",
"xXxXxXxXxXxXxXxXxXxXxXxXxXxXxXxXxXxXxXxXxXxXxXxXxXxXxXxXxXxXxXxXxXxXxXxXxXxXxXxXxXxXxXxXxXxXxXxXxXxXxXxXxXxXxXxXxXxXxXxX",
"xXxXxXxXxXxXxXxXxXxXxXxXxXxXxXxXxXxXxXxXxXxXxXxXxXxXxXxXxXxXxXxXxXxXxXxXxXxXxXxXxXxXxXxXxXxXxXxXxXxXxXxXxXxXxXxXxXxXxXxX",
"xXxXxXxXxXxXxXxXxXxXxXxXxXxXxXxXxXxXxXxXxXxXxXxXxXxXxXxXxXxXxXxXxXxXxXxXxXxXxXxXxXxXxXxXxXxXxXxXxXxXxXxXxXxXxXxXxXxXxXxX",
"xXxXxXxXxXxXxXxXxXxXxXxXxXxXxXxXxXxXxXxXxXxXxXxXxXxXxXxXxXxXxXxXxXxXxXxXxXxXxXxXxXxXxXxXxXxXxXxXxXxXxXxXxXxXxXxXxXxXxXxX",
"xXxXxXxXxXxXxXxXxXxXxXxXxXxXxXxXxXxXxXxXxXxXxXxXxXxXxXxXxXxXxXxXxXxXxXxXxXxXxXxXxXxXxXxXxXxXxXxXxXxXxXxXxXxXxXxXxXxXxXxX",
"xXxXxXxXxXxXxXxXxXxXxXxXxXxXxXxXxXxXxXxXxXxXxXxXxXxXxXxXxXxXxXxXxXxXxXxXxXxXxXxXxXxXxXxXxXxXxXxXxXxXxXxXxXxXxXxXxXxXxXxX",
"xXxXxXxXxXxXxXxXxXxXxXxXxXxXxXxXxXxXxXxXxXxXxXxXxXxXxXxXxXxXxXxXxXxXxXxXxXxXxXxXxXxXxXxXxXxXxXxXxXxXxXxXxXxXxXxXxXxXxXxX"
};
