/* XPM */
static char *_cc01c5676744eb9a84ed895efb9f778mMh3yC9xHXjVH2LE[] = {
/* columns rows colors chars-per-pixel */
"40 40 160 2 ",
"   c None",
".  c #BE5C0C",
"X  c #BA640D",
"o  c #B46E0C",
"O  c #AE770C",
"+  c #AE7C0D",
"@  c #B4720D",
"#  c #B8710F",
"$  c #BC7111",
"%  c #B87B12",
"&  c #C5460A",
"*  c #CB440B",
"=  c #C64B0B",
"-  c #C94C0C",
";  c #C3530C",
":  c #CB510F",
">  c #C1590C",
",  c #CE4F10",
"<  c #CE5411",
"1  c #CB5911",
"2  c #D05412",
"3  c #D35A15",
"4  c #D95F19",
"5  c #C56411",
"6  c #C36C12",
"7  c #CA6A15",
"8  c #D26417",
"9  c #D76218",
"0  c #D9641A",
"q  c #D16E1A",
"w  c #DD6B1E",
"e  c #C67115",
"r  c #CD781A",
"t  c #D9761F",
"y  c #E0661E",
"u  c #E06A1F",
"i  c #DB7921",
"p  c #E16D20",
"a  c #E47423",
"s  c #E87525",
"d  c #E67A26",
"f  c #E87A27",
"g  c #E77E28",
"h  c #EA7E29",
"j  c #F37F2D",
"k  c #7DD20F",
"l  c #79D90F",
"z  c #7ED310",
"x  c #7BDB10",
"c  c #9E8F0C",
"v  c #979209",
"b  c #9F940D",
"n  c #9B9C0E",
"m  c #A7870E",
"M  c #AB820E",
"N  c #A48B0E",
"B  c #A2920E",
"V  c #AD8D12",
"C  c #B08A12",
"Z  c #AB9313",
"A  c #BB951A",
"S  c #B69C1A",
"D  c #B89E1B",
"F  c #8FAF0E",
"G  c #92A60D",
"H  c #99A20F",
"J  c #94AB0F",
"K  c #8DB50E",
"L  c #8BBB0F",
"P  c #90B20F",
"I  c #9DA712",
"U  c #9DA912",
"Y  c #96BB14",
"T  c #A2A413",
"R  c #ACA317",
"E  c #BDA01E",
"W  c #B6AF1F",
"Q  c #A9B51B",
"!  c #A3BF1B",
"~  c #BAB422",
"^  c #B6BB22",
"/  c #BCBA25",
"(  c #C5951E",
")  c #D48621",
"_  c #DB8323",
"`  c #DC8A26",
"'  c #C79720",
"]  c #CD9321",
"[  c #CD9B24",
"{  c #D19123",
"}  c #DF972B",
"|  c #E48629",
" . c #ED822C",
".. c #F1852E",
"X. c #F2882F",
"o. c #E39B2E",
"O. c #F68530",
"+. c #F48C31",
"@. c #FE8E36",
"#. c #EE9531",
"$. c #E59F30",
"%. c #ED9C33",
"&. c #F69134",
"*. c #FA9636",
"=. c #F39C35",
"-. c #F99937",
";. c #FE9639",
":. c #FF9839",
">. c #FD9A39",
",. c #FE9A39",
"<. c #FF993B",
"1. c #FE9B3A",
"2. c #FF9B3B",
"3. c #FC9838",
"4. c #F89E38",
"5. c #FF9C3A",
"6. c #FF9D3B",
"7. c #FF9C3B",
"8. c #FF9B3D",
"9. c #FF9D3C",
"0. c #FD9939",
"q. c #CAA224",
"w. c #C1A922",
"e. c #CBAD28",
"r. c #D6A42A",
"t. c #D8A62C",
"y. c #DAAB2E",
"u. c #DAA92D",
"i. c #C7B227",
"p. c #C4B326",
"a. c #C9B529",
"s. c #C3B928",
"d. c #D5B12D",
"f. c #E1A52F",
"g. c #E6A030",
"h. c #E6A331",
"j. c #E0A930",
"k. c #86C30F",
"l. c #82C70E",
"z. c #85C30F",
"x. c #82C80F",
"c. c #87C210",
"v. c #86C510",
"b. c #88C210",
"n. c #88C110",
"m. c #83CB10",
"M. c #81CE10",
"N. c #81CF10",
"B. c #80CF10",
"V. c #83CC10",
"C. c #8CCB14",
"Z. c #94C716",
"A. c #99C217",
"S. c #9BC319",
"D. c #80D010",
"F. c #80D110",
"G. c #80D010",
"H. c #88D314",
"J. c #A1C41B",
"K. c #B4C023",
/* pixels */
"                          D.D.D.D.D.D.D.D.D.D.D.D.D.D.D.D.                      ",
"                          D.D.D.D.D.D.D.D.D.D.D.D.D.D.D.D.D.                    ",
"                        z z z z z z z z z z z z z z z z z z D.                  ",
"                      D.D.N.N.N.N.N.N.N.N.N.N.N.N.N.N.N.N.N.D.D.                ",
"                      z m.L J J J J J J J J J J J J J J P b.N.z                 ",
"            3.        z c.n + o @ @ @ @ @ @ @ @ @ @ o @ m J m.l       :.3.      ",
"          3.3.:.      k.J M > - - - - - - - - - - - - - X B K l.      3.3.      ",
"          3.3.3.      N M X = * * * * * * * * * * * * * ; @ m b       3.3.      ",
"          3.3.3.      . > ; - - - - - - - - - - - - - - - ; > .       3.3.      ",
"          3.3.3.6.  3 - - 2 9 7 $ @ 6 8 0 0 9 7 $ @ 6 8 3 2 - ,     6.3.3.      ",
"          3.3.3.3.+.p 2 2 y g { R U S `  .j  .{ R U D ` a 4 < 3 f *.3.3.3.      ",
"          3.3.3.3.&.a 3 3 s &.t.Q Y W $.:.:.-.r.Q Y ~ g.X.u < 9 h *.3.3.3.      ",
"          3.3.3.3.&.a 2 3 a &.o.A Z ( %.3.8.>.} A Z ' %.+.w < 3 h *.6.3.3.      ",
"          3.3.3.3.&.a 3 3 d &. .q 5 t +.3.6.*. .q 5 t +.+.w < 9  .*.3.3.*.      ",
"            3.3.3.*.h u u  .*...p 0 a +.3.6.3...p 0 s +.+.f w a X.*.&... .      ",
"              3.3.*.+.....+.*.*.....+.*.3.6.3.*.....+.*.*.+...+.*.*. .w 9       ",
"                3.>.-.%.%.-.>.3.3.*.*.&.+.+.+.&.*.*.:.3.-.=.%.=.&.X.a 3 -       ",
"                    d.s.a.j.4.3.9.3.+.d p w a h +.3.3.:.=.y.i.q._ p 3 - &       ",
"                    A.Z.! e.=.:.3.&.f 9 < : 3 w  .*.3.3.g./ S.U % 1 - - -       ",
"                    v G T ( | ....h a 0 9 3 0 p ..*.=.f.i.J.m.K c @ 5 8 0       ",
"            - = & = . o # 6 8 0 9 0 a h  . ...O.@.-.y.^ S.C.N.l.K I A `  .      ",
"          = - - < < : - - - - - = < w  .&.=.%.%.=.g.~ Z.D.k D.k k C.~ g.:.      ",
"        = = = < 0 w 4 - * & = = = - 3 w _ [ p./ / ^ J.V.k k z k l H.^ h.3.      ",
"      - - = - 9 h ..a 3 - = - - - - - < 6 Z Y C.C.C.C.N.D.z D.k k C.~ g.:.      ",
"      - : < 0 a +.*. .p 3 < - = = - 2 3 7 C H J J F L m.z z z l.K I E o.3.      ",
"      = < w  .+.*.*.*.X.d 0 : = = : 0 a d r # o o + n k.z x z K N @ e           ",
"      = 3 a X.*.*.*.*.&. .w : = = < p +.+.i 5 > = > + J c.v.L H + X >           ",
"      - < 9 a  .+.*.+.h w 3 : = = < p +.%.[ V O . - X + m m m m m m m           ",
"      - - - < w ..&.h 9 < - - = = < p +.g.~ Y n o ; - > . > X + H L v.          ",
"      - = = - 0  .&.d 3 = = - = = < p +.%.w.I N X - ; X o o @ B K z x           ",
"      - = = - 0  .&.f 3 = = - = = < p +.#.) $ X ; ; @ B J J J L v.z z           ",
"      - - = - 9 h ..a 3 = = - = = < p +.+.i 5 . > X N L N.m.b.v.m.N.            ",
"      - = = = < 0 w 9 : = = = = & : p +.#.] V N N n K N.N.P n n P               ",
"      - - - - : < < < - - - - - = < p +.g.~ Y k.k.b.m.N.L N X .                 ",
"      - : 3 9 0 9 9 9 9 0 0 0 9 9 0 s +.h.K.C.x.L J J J b @ ; *                 ",
"          d  . . . . . . . . . . . ...        n M @ @ @ o > - *                 ",
"          *.*.*.*.*.*.*.*.*.*.*.*.*.*.          - - - - - - - -                 ",
"                                                * * - - - - - -                 ",
"                                                - - - - - - - -                 ",
"                                                - - - - - - - -                 "
};
