/* XPM */
static char *a13d81656732467c9165341774dfa855U7W0yJs8iygWK9AM[] = {
/* columns rows colors chars-per-pixel */
"40 40 180 2 ",
"   c None",
".  c #BF570B",
"X  c #BE5C0C",
"o  c #BB630D",
"O  c #B46E0C",
"+  c #B8680C",
"@  c #AF760C",
"#  c #AC7D0D",
"$  c #B3720D",
"%  c #BD7111",
"&  c #B67C11",
"*  c #C54609",
"=  c #CB440B",
"-  c #C64B0B",
";  c #C94D0C",
":  c #C4540C",
">  c #CB510F",
",  c #C15A0D",
"<  c #CF4F10",
"1  c #CE5411",
"2  c #CD5A12",
"3  c #D15512",
"4  c #D25A15",
"5  c #D75D18",
"6  c #DB5C19",
"7  c #C66512",
"8  c #CC6314",
"9  c #C16E12",
"0  c #CB6915",
"q  c #D36317",
"w  c #D66218",
"e  c #DA641A",
"r  c #D16E1A",
"t  c #DE6B1E",
"y  c #C57616",
"u  c #C17915",
"i  c #CB7719",
"p  c #D9761F",
"a  c #D57B1E",
"s  c #E0661E",
"d  c #E06A1F",
"f  c #DC7520",
"g  c #DD7A22",
"h  c #E26E21",
"j  c #E47423",
"k  c #E87626",
"l  c #E77A26",
"z  c #E87A27",
"x  c #E77E28",
"c  c #EB7E29",
"v  c #F2772B",
"b  c #F17F2C",
"n  c #7ECC0E",
"m  c #76D70D",
"M  c #7CD30F",
"N  c #77DA0F",
"B  c #79D90F",
"V  c #7ED410",
"C  c #7BDA10",
"Z  c #9F910C",
"A  c #9D9C0E",
"S  c #A7850D",
"D  c #AA820E",
"F  c #A48B0D",
"G  c #A2910E",
"H  c #B38312",
"J  c #BB8115",
"K  c #B58C15",
"L  c #AA9112",
"P  c #B59217",
"I  c #BA941A",
"U  c #B69C1A",
"Y  c #B89E1B",
"T  c #8EAE0D",
"R  c #96A50E",
"E  c #98A50F",
"W  c #94AA0F",
"Q  c #8DB60F",
"!  c #86BA0D",
"~  c #8BBA0F",
"^  c #90B30F",
"/  c #97AC10",
"(  c #9DA912",
")  c #97B111",
"_  c #9CB515",
"`  c #96BB14",
"'  c #9EB917",
"]  c #A2A413",
"[  c #ACA317",
"{  c #A7A917",
"}  c #B6AF1F",
"|  c #A9B51B",
" . c #A5BE1C",
".. c #ABBC1E",
"X. c #BDAE22",
"o. c #BBB523",
"O. c #B3BB21",
"+. c #BCBB25",
"@. c #C08719",
"#. c #C68D1D",
"$. c #C5941E",
"%. c #DC8B26",
"&. c #C79720",
"*. c #CA9922",
"=. c #D19123",
"-. c #DC972A",
";. c #D89A28",
":. c #E38227",
">. c #E58729",
",. c #ED832C",
"<. c #EF8B2E",
"1. c #F1842E",
"2. c #F2882F",
"3. c #EB942F",
"4. c #E19A2D",
"5. c #F68631",
"6. c #F58D32",
"7. c #FB8C34",
"8. c #EA9730",
"9. c #E59F30",
"0. c #ED9D33",
"q. c #F69133",
"w. c #FA9536",
"e. c #F39B35",
"r. c #F99937",
"t. c #FB9837",
"y. c #FC9738",
"u. c #FE9739",
"i. c #FF9539",
"p. c #FE9739",
"a. c #FB9A38",
"s. c #FC9838",
"d. c #FD9938",
"f. c #FF9839",
"g. c #FD9A39",
"h. c #FE9A39",
"j. c #FE9B3A",
"k. c #FF9B3A",
"l. c #FF993A",
"z. c #FF9D3B",
"x. c #FF9B3D",
"c. c #FD9A39",
"v. c #C6A323",
"b. c #C4AE25",
"n. c #CFA628",
"m. c #CCAD28",
"M. c #D5A42A",
"N. c #D8A62C",
"B. c #D9A62C",
"V. c #D2AE2B",
"C. c #DBA92E",
"Z. c #C4B426",
"A. c #C9B529",
"S. c #E1A52F",
"D. c #E6A030",
"F. c #E5A331",
"G. c #EEA134",
"H. c #E9A332",
"J. c #E2A931",
"K. c #86C30F",
"L. c #82C70E",
"P. c #86C20F",
"I. c #88C10F",
"U. c #81C80E",
"Y. c #87C210",
"T. c #86C410",
"R. c #88C210",
"E. c #83CB10",
"W. c #81CE10",
"Q. c #81CF10",
"!. c #82CE10",
"~. c #8CCB14",
"^. c #93C716",
"/. c #98C217",
"(. c #91C916",
"). c #9AC519",
"_. c #80D010",
"`. c #80D110",
"'. c #83D011",
"]. c #A2C21B",
/* pixels */
"                          _._._._._._._._._._._._._._._._.                      ",
"                          _._._._._._._._._._._._._._._._._.                    ",
"                        V V V V V V V V V V V V V V V V V V _.                  ",
"                      _._.Q.Q.Q.Q.Q.Q.Q.Q.Q.Q.Q.Q.Q.Q.Q.Q.Q._._.                ",
"                      V E.~ W R R R R R R R R R R R R R ^ R.Q.V                 ",
"            s.        V Y.A # O $ $ $ $ $ $ $ $ $ $ O $ S W E.B       u.s.      ",
"          s.s.u.      K.W D , - - ; ; ; ; ; ; ; ; ; - ; + G Q L.      s.s.      ",
"          s.s.s.      F D + - = = = = = = = = = = = = = : $ S Z       s.s.      ",
"          s.s.s.      X , : ; ; ; ; ; ; ; ; ; ; ; ; ; ; ; : , X       s.s.      ",
"          s.s.s.z.  5 ; ; 3 w 0 % $ 9 q e e w 0 % $ 9 q 5 3 ; <     z.s.s.      ",
"          s.s.s.s.6.h 3 3 s x =.[ ( U %.,.b ,.=.[ ( Y %.j 6 1 5 z w.s.s.s.      ",
"          s.s.s.s.q.j 4 4 k q.N.| ` } 9.u.u.r.M.| ` o.D.2.d 1 w c w.s.s.s.      ",
"          s.s.s.s.q.j 3 4 j q.4.I L $.8.s.x.a.-.I L &.8.6.t 1 5 c w.z.s.s.      ",
"          s.s.s.s.q.j 4 4 l q.,.r 7 p 6.s.z.w.>.r 7 p 6.6.t 1 w ,.w.s.s.w.      ",
"            s.s.s.w.c d d ,.w.1.h t j 6.s.z.s.1.h t k 6.6.z t j 1.w.7.1.,.      ",
"              s.u.u.7.1.1.6.w.w.1.1.6.w.s.z.s.w.1.1.6.w.w.6.1.5.w.w.,.t w       ",
"                0.0.0.0.e.e.a.s.u.w.w.q.6.6.6.q.w.w.u.s.r.e.0.G.G.8.g 2 ;       ",
"                +.+.+.+.A.J.a.s.s.w.2.j h t j c 6.s.s.u.e.C.Z.+.+.X.@., -       ",
"                (.~.~.~. .m.e.u.s.w.c w 1 > 4 t ,.w.s.s.D.o.).~.~.` L o -       ",
"              S R W T W ] $.>.6.w.w.,.t 5 5 e h 1.w.e.S.Z.].E.n ! R # X - =     ",
"      ; - - - X + $ @ $ $ 7 q j 6.w.w.1.c c b 5.7.e.C.O.).~.Q.Q Z $ X : ; - ; ; ",
"      ; ; > 1 1 > ; ; ; ; - ; w z 6.e.0.0.0.0.0.e.D.o.^.V B Q./ & 2 ; ; ; ; ; ; ",
"  - - - > w t e 3 = = = = * - 1 e f =.b.+.+.+.+.Z.o.].~.M m n _ #.t 6 ; - - ; ; ",
"; ; - ; 4 j 1.c w ; - - ; - ; ; < 8 K _ ~.~.~.(.~.~.~.Q.V M E. .M.<.j 4 ; - ; ; ",
"- ; 1 5 h ,.w.6.j e 3 > ; - ; 1 4 8 J A W W W ~ U.M B V '.(.].Z.J.w.1.t 5 1 ; - ",
"- > w l 2.w.w.w.6.,.t 1 - - ; 5 j x a % O O @ G ~ M B V ~.O.V.H.e.r.w.1.j w ; * ",
"- 1 e ,.q.w.w.w.w.2.j 4 - * ; e ,.q.:.0 , - : $ A ~ L.K._ v.3.w.w.s.s.s.6.j 4 1 ",
"- > 4 t c 6.w.6.,.j w 1 - - ; e 1.e.;.P D o : , $ S F S H i h v 7.u.s.s.w.,.j j ",
"; ; ; 1 w c q.1.t 1 ; ; - - ; e 1.e.m.' R # : ; : X X X , : 2 t ,.w.s.s.w.w.q.6.",
"; ; - - 4 l q.,.e ; - - - - ; e 1.e.n.{ A $ : : o O $ O O O $ J *.N.H.e.s.s.s.s.",
"; ; - - 4 z q.,.e ; - - - - ; e ,.q.%.u + : ; + S E R R W W R ) ' ..m.G.s.u.    ",
"; ; - - 4 j 1.c w ; - - - - ; e ,.q.:.0 X . X # W E.V _.Q.Q.Q.M M ~.o.D.u.      ",
"; ; - - > w t e 1 - - - - * ; e 1.e.;.K F F G W Y.V C C C C C B m E.  D.        ",
"; ; ; ; ; 1 1 1 > ; ; ; ; - ; e b e.m.' K.K.I.T.E.Q.Q.Q.Q.Q.Q.Q.                ",
"- ; 4 w e w w w w e e e e w e d k >.v./.C N V Y.^ R W R R R R W                 ",
"    j c ,.,.,.,.,.,.,.,.,.,.,.z t q y         A # $ $ $ $ $ $ $                 ",
"      w.w.w.w.w.y.w.w.6.6.q.6.l w ; -           ; ; ; ; ; ; ; ;                 ",
"                  w.,.j j j j e 1 - *               =     =                     ",
"                      3 1 1 1 1 ; ; -                                           ",
"                      - - - - - - ; ;                                           "
};
