/* XPM */
static char *result[] = {
/* columns rows colors chars-per-pixel */
"40 40 135 2 ",
"   c #BE5E0D",
".  c #AF6F0A",
"X  c #BC630D",
"o  c #B66C0D",
"O  c #B8680D",
"+  c #AF760D",
"@  c #AE7C0D",
"#  c #B3720D",
"$  c #BF6C11",
"%  c #B77510",
"&  c #BD7D15",
"*  c #C24307",
"=  c #CA450B",
"-  c #C74C0B",
";  c #C84C0C",
":  c #C4530C",
">  c #CC510F",
",  c #C05A0C",
"<  c #D34E12",
"1  c #CE5511",
"2  c #CC5D12",
"3  c #D35212",
"4  c #D35C15",
"5  c #DA5B18",
"6  c #C1630F",
"7  c #C56311",
"8  c #CB6414",
"9  c #CF6C18",
"0  c #D66118",
"q  c #D9641A",
"w  c #DC691D",
"e  c #C47115",
"r  c #C27B16",
"t  c #D1721A",
"y  c #DC721F",
"u  c #D27D1E",
"i  c #E1691F",
"p  c #DF7622",
"a  c #E26E21",
"s  c #E37222",
"d  c #EB7627",
"f  c #E57B26",
"g  c #E87A27",
"h  c #EA7D29",
"j  c #7FCC0E",
"k  c #77D70E",
"l  c #7CD30F",
"z  c #7ED310",
"x  c #7BD910",
"c  c #9F970E",
"v  c #9C9B0E",
"b  c #AB820E",
"n  c #A48D0E",
"m  c #A2920E",
"M  c #AF8811",
"N  c #B58213",
"B  c #B18913",
"V  c #BD8D19",
"C  c #AE9815",
"Z  c #B49D19",
"A  c #8FAD0D",
"S  c #96A40E",
"D  c #99A30F",
"F  c #92AB0E",
"G  c #8DB50E",
"H  c #86BF0E",
"J  c #8CBA0F",
"K  c #92B10F",
"L  c #99AD11",
"P  c #8BBF10",
"I  c #97B713",
"U  c #96BC14",
"Y  c #98B814",
"T  c #A3A414",
"R  c #AAA718",
"E  c #ACAF1B",
"W  c #A7B319",
"Q  c #ADB31C",
"!  c #A6BD1C",
"~  c #ADBD1F",
"^  c #BDA921",
"/  c #BEB525",
"(  c #B7BA23",
")  c #BBB924",
"_  c #D38721",
"`  c #DC8224",
"'  c #D98824",
"]  c #CF9122",
"[  c #CB9E24",
"{  c #D09223",
"}  c #D69E29",
"|  c #DB9E2B",
" . c #ED832B",
".. c #ED8A2D",
"X. c #F2842E",
"o. c #F2892F",
"O. c #E4972D",
"+. c #E9942E",
"@. c #E8992F",
"#. c #F68630",
"$. c #F58D32",
"%. c #FB8C34",
"&. c #EE9E33",
"*. c #F69133",
"=. c #FA9436",
"-. c #F39B35",
";. c #F89A37",
":. c #FE9639",
">. c #FE9B3A",
",. c #C0AF23",
"<. c #D5A22A",
"1. c #DCA42D",
"2. c #D7AE2D",
"3. c #C2B527",
"4. c #C6B428",
"5. c #CCB029",
"6. c #E7A432",
"7. c #EBA233",
"8. c #86C10F",
"9. c #88C00F",
"0. c #82CA0F",
"q. c #87C410",
"w. c #88C110",
"e. c #83CC10",
"r. c #8ECA14",
"t. c #97C417",
"y. c #93CA17",
"u. c #99C618",
"i. c #96C918",
"p. c #80D010",
"a. c #A4C21C",
"s. c #A8C31E",
"d. c #A0C91C",
"f. c #AEC221",
"g. c None",
/* pixels */
"g.g.g.g.g.g.g.g.; ; ; ; g.g.g.z z p.e.z z e.z z p.p.p.g.g.g.g.g.g.g.g.g.g.g.g.g.",
"g.g.g.g.g.g.1 q a q 3 : . I x x z z z z z z z z z z p.p.p.g.g.g.g.g.g.g.g.g.g.g.",
"g.g.g.g.g.- 1 s *...t % v q.e.q.P G P G G G I P H q.p.z p.p.g.g.g.g.g.g.g.g.g.g.",
"g.g.g.; - - 3 s $.1.Q P j j K @   ,           , @ K p.z p.p.p.p.g.g.g.g.g.g.g.g.",
"; ; - ; 1 w g X.*.2.d.e.G m # : = = = = = = = =   o n I e.z z p.g.g.g.g.g.g.g.g.",
"- - - ; q  .>.>.;.1.E L b 8 2 7 X 2 4 4 4 2 7 O   -   @ F w.e.e.y.g.g.=.>.>.g.g.",
"; ; - ; 0  .=.>.=...9 8 y ..} W Y ^ +.%.%.@.^ Y v o - ;   @ G r.( 7.=.>.=.g.g.g.",
"g s 0 ; 1 0 s #.*.X.5 < a $.O.V B ] -.>.>.-.{ B @ u a 5 ; . A r.) -.:.=.g.g.g.g.",
">.*.g q 1 ; 1 w h  .e $ ` *.#.a 5 a  .#.#.h a 0 a o.*.h q r R ~ 4.7.=.g.g.g.g.g.",
"g.g.=.*.h 0 ; ; 1 % S U / 7.=.=.#.s 2 > 1 4 p #.*.;.=.;.*.*.-.&.-.g.g.g.g.g.g.g.",
"g.g.g.g.*. .g 5 ; # A e.y.~ 5.7.*.s > *   = s *.>.>.;. .s w w a g.g.g.g.g.g.g.g.",
"g.g.g.g.g.>.$.d w N L p.k z u.3.| ` q 4 5 5 h *.=.%.h w 1 * - = ; g.g.g.g.g.g.g.",
"g.g.g.g.g.g.g.%.*.<.! e.j z e.e.t.,.&.$.*.=.;.;. .w 1 ; - ; ; - ; ; ; g.g.g.g.g.",
"g.g.g.g.g.g.g.g.g.' & b S e.x x p.i.f.f.~ f.f.~ Z $ - = - ; ; ; ; ; = g.g.g.g.g.",
"g.g.g.g.g.g.g.g.g.g.o o n D G q.e.q.A A F A A A c O - ; ; ; ; ; , o # g.g.g.g.g.",
"g.g.g.g.g.g.g.g.g.g.e.P n O @ F P c X : : , , : : - ; ; ; ; ;   n J e.g.g.g.g.g.",
"g.g.g.g.g.g.g.g.g.g.x p.H D m b o   -   n m + - = - - = - X n S 9.p.x g.g.g.g.g.",
"g.g.g.g.g.g.g.g.g.b v F w.e.P n o   - O m D B t 0 0 0 < ; % F z x z q.m g.g.g.g.",
"g.g.g.g.g.g.g.g.; ; ; X m w.z p.P n   - : 2 p $.=.:.$.a 2 + F e.p.q.D # : g.g.g.",
"g.g.g.g.g.g.; ; ; ; ; ; X g.g.x e.H A C ' h #.;.>.>.-.[ T G j q.F b O : ; ; ; ; ",
"g.g.g.g.g.; ; ; ; ; ; : g.g.g.l e.t.! 3.6.>.:.:.:.:.&./ r.j G v # : ; ; ; - ; ; ",
"g.g.g.g.g.g.g.g.g.g.g.g.e.e.z g.g.7.&.&.-.-.-.-.;.;.6.( r.A @ : ; ; ; ; ; ; ; ; ",
"g.g.g.g.g.g.g.g.g.g.g.g.z p.z p.e.t.a.s.s.a.a.a.s.! u.i.e.q.c g.g.g.g.g.g.g.g.g.",
"g.g.g.g.g.g.g.g.g.g.g.g.g.p.p.z q.P F S S S S S A 8.z z p.g.g.g.g.g.g.g.g.g.g.g.",
"g.g.g.g.g.g.g.g.g.g.g.g.g.g.g.g.g.: : - : - : : : g.g.g.g.g.g.g.g.g.g.g.g.g.g.g.",
"g.g.g.g.g.g.g.g.g.g.g.g.g.g.g.g.g.g.; ; ; ; ; ; ; g.g.g.g.g.g.g.g.g.g.g.g.g.g.g.",
"g.g.g.g.g.g.g.g.g.g.g.g.g.g.g.g.g.; ; ; ; ; ; ; ; g.g.g.g.g.g.g.g.g.g.g.g.g.g.g.",
"g.g.g.g.g.g.g.g.g.g.g.g.g.g.g.g.g.; ; ; ; ; - ; ; g.g.g.g.g.g.g.g.g.g.g.g.g.g.g.",
"g.g.g.g.g.g.g.g.g.g.g.g.g.g.g.g.g.; ; ; - ; ; ; ; g.g.g.g.g.g.g.g.g.g.g.g.g.g.g.",
"g.g.g.g.g.g.g.g.g.g.g.g.g.g.g.g.g.; ; ; ; ; ; ; ; g.g.g.g.g.g.g.g.g.g.g.g.g.g.g.",
"g.g.g.g.g.g.g.g.g.g.g.g.g.g.g.g.g.; ; ; ; ; ; ; ; g.g.g.g.g.g.g.g.g.g.g.g.g.g.g.",
"g.g.g.g.g.g.g.g.g.g.g.g.g.g.g.g.g.; ; ; ; ; - ; ; g.g.g.g.g.g.g.g.g.g.g.g.g.g.g.",
"g.g.g.g.g.g.g.g.g.g.g.g.g.g.g.g.g.; ; : ; ; ; ; ; g.g.g.g.g.g.g.g.g.g.g.g.g.g.g.",
"g.g.g.g.g.g.g.g.g.g.g.g.g.g.g.g.g.; ; ; ; ; ; ; ; g.g.g.g.g.g.g.g.g.g.g.g.g.g.g.",
"g.g.g.g.g.g.g.g.g.g.g.g.g.g.g.g.g.; ; ; ; ; ; ; ; g.g.g.g.g.g.g.g.g.g.g.g.g.g.g.",
"g.g.g.g.g.g.g.g.g.g.g.g.g.g.g.g.g.; ; ; ; ; ; ; ; g.g.g.g.g.g.g.g.g.g.g.g.g.g.g.",
"g.g.g.g.g.g.g.g.g.g.g.g.g.g.g.g.g.; ; - ; ; ; ; ; g.g.g.g.g.g.g.g.g.g.g.g.g.g.g.",
"g.g.g.g.g.g.g.g.g.g.g.g.g.g.g.g.g.; ; ; ; ; ; ; ; g.g.g.g.g.g.g.g.g.g.g.g.g.g.g.",
"g.g.g.g.g.g.g.g.g.g.g.g.g.g.g.g.g.g.g.; ; ; ; ; g.g.g.g.g.g.g.g.g.g.g.g.g.g.g.g.",
"g.g.g.g.g.g.g.g.g.g.g.g.g.g.g.g.g.g.g.g.; ; ; g.g.g.g.g.g.g.g.g.g.g.g.g.g.g.g.g."
};
