/* XPM */
static char *_4231f8ff9a54066ddbca9336f54d018l2X9fhjGAvuhl8kn[] = {
/* columns rows colors chars-per-pixel */
"120 60 233 2 ",
"   c None",
".  c #D62200",
"X  c #D62300",
"o  c #D72300",
"O  c #D72400",
"+  c #D72500",
"@  c #D72600",
"#  c #D82600",
"$  c #D82700",
"%  c #D82800",
"&  c #D82900",
"*  c #D82901",
"=  c #D92A00",
"-  c #D82A01",
";  c #D92A01",
":  c #D92B01",
">  c #D92C02",
",  c #D92D02",
"<  c #DA2D03",
"1  c #DA2E03",
"2  c #DA2F03",
"3  c #DA2F04",
"4  c #DA3004",
"5  c #DB3004",
"6  c #DB3104",
"7  c #DB3205",
"8  c #DB3305",
"9  c #DC3305",
"0  c #DC3306",
"q  c #DC3406",
"w  c #DD3607",
"e  c #DD3707",
"r  c #DE3A07",
"t  c #DD3708",
"y  c #DD3808",
"u  c #DD3908",
"i  c #DE3909",
"p  c #DE3A09",
"a  c #DE3B0A",
"s  c #DF3D0A",
"d  c #DF3D0B",
"f  c #DF3E0B",
"g  c #DF3F0B",
"h  c #E03F0C",
"j  c #E0420D",
"k  c #E1430E",
"l  c #E2460C",
"z  c #E1450F",
"x  c #E2470E",
"c  c #E2460F",
"v  c #E2470F",
"b  c #E34911",
"n  c #E34A11",
"m  c #E34B11",
"M  c #E34B12",
"N  c #E44D10",
"B  c #E44D13",
"V  c #E44E13",
"C  c #E55014",
"Z  c #E55115",
"A  c #E55215",
"S  c #E65215",
"D  c #E65416",
"F  c #E65517",
"G  c #E75517",
"H  c #E75616",
"J  c #E75617",
"K  c #E85714",
"L  c #E75718",
"P  c #E85919",
"I  c #E85A18",
"U  c #E85A19",
"Y  c #E85B19",
"T  c #E95C1A",
"R  c #E95E1B",
"E  c #EA601C",
"W  c #EA611C",
"Q  c #EA611D",
"!  c #EB621D",
"~  c #EB631D",
"^  c #EB631E",
"/  c #ED661C",
"(  c #E85D21",
")  c #E95F21",
"_  c #EC6720",
"`  c #ED6820",
"'  c #ED6921",
"]  c #ED6A21",
"[  c #EE6B22",
"{  c #EE6C22",
"}  c #EE6C23",
"|  c #EE6E23",
" . c #EF6F24",
".. c #EF7024",
"X. c #F07125",
"o. c #F07225",
"O. c #F17426",
"+. c #F17527",
"@. c #F17627",
"#. c #F37A25",
"$. c #F27826",
"%. c #F37A27",
"&. c #F27828",
"*. c #F27929",
"=. c #F27A29",
"-. c #F37B2A",
";. c #F37C2A",
":. c #F37D2B",
">. c #F47E28",
",. c #F47F2C",
"<. c #F5802A",
"1. c #F5822A",
"2. c #F6822B",
"3. c #F4802C",
"4. c #F4812C",
"5. c #F5822D",
"6. c #F5832D",
"7. c #F7852C",
"8. c #F6842D",
"9. c #F6862E",
"0. c #F6872F",
"q. c #F7872F",
"w. c #F98A2C",
"e. c #F78730",
"r. c #F78830",
"t. c #F78931",
"y. c #F78A31",
"u. c #F88A31",
"i. c #F88B31",
"p. c #F88B32",
"a. c #F88C32",
"s. c #F88D33",
"d. c #F98F33",
"f. c #FB9231",
"g. c #FB9232",
"h. c #FB9332",
"j. c #FC9432",
"k. c #FC9633",
"l. c #F99034",
"z. c #F99035",
"x. c #FA9134",
"c. c #FA9234",
"v. c #FA9235",
"b. c #FA9335",
"n. c #FB9436",
"m. c #FB9536",
"M. c #FB9637",
"N. c #FC9736",
"B. c #FC9737",
"V. c #FF9A31",
"C. c #FD9833",
"Z. c #FD9834",
"A. c #FD9A36",
"S. c #FC9738",
"D. c #FC9838",
"F. c #FC9938",
"G. c #FC9839",
"H. c #FD9A38",
"J. c #FD9A39",
"K. c #FF9E38",
"L. c #FC9B3D",
"P. c #FD9D3D",
"I. c #FC9C3F",
"U. c #FFA03C",
"Y. c #FA9741",
"T. c #F89746",
"R. c #FC9C40",
"E. c #FC9D40",
"W. c #FC9E45",
"Q. c #F2955F",
"!. c #F59859",
"~. c #FDA246",
"^. c #FCA148",
"/. c #FDA54B",
"(. c #FDA54D",
"). c #FCA44F",
"_. c #FDA650",
"`. c #FCA754",
"'. c #FCA755",
"]. c #FCA756",
"[. c #FCA856",
"{. c #FCAC60",
"}. c #FCAD62",
"|. c #FCAE62",
" X c #FEB466",
".X c #FCB169",
"XX c #FDB469",
"oX c #FCB46D",
"OX c #FCB570",
"+X c #FDB770",
"@X c #FDB671",
"#X c #FDBA76",
"$X c #FCB979",
"%X c #FDBE7E",
"&X c #FCBE84",
"*X c #FDC080",
"=X c #FDC081",
"-X c #FEC282",
";X c #FCCB9B",
":X c #FCCB9C",
">X c #FCCC9E",
",X c #FBCAA0",
"<X c #FBCCA5",
"1X c #FCD2A9",
"2X c #FCD3AB",
"3X c #FCD5AF",
"4X c #FCD7B4",
"5X c #FCD8B6",
"6X c #FCD9B7",
"7X c #FCD9B8",
"8X c #FCDDBD",
"9X c #FCDEC2",
"0X c #FCE1C8",
"qX c #FCE3CB",
"wX c #FCE5D0",
"eX c #FCE6D0",
"rX c #FCE7D3",
"tX c #FCE9D7",
"yX c #FCECDD",
"uX c #FCEFE2",
"iX c #FCF1E5",
"pX c #FCF1E6",
"aX c #FCF1E7",
"sX c #FCF2E9",
"dX c #FCF3E9",
"fX c #FCF6F1",
"gX c #FCF9F6",
"hX c #FCF9F7",
"jX c #FCFAF9",
"kX c #FCFBFA",
"lX c #FCFBFB",
"zX c #FCFDFE",
"xX c #FCFFFF",
/* pixels */
"                                                                                                                                                                                                                                                ",
"                                                                                                                                                                                                                                                ",
"                                                                                                                                                                                                                                                ",
"                                                                                                                                                                                                                                                ",
"                                                                                                                                                                                                                                                ",
"                                                                                                                                                                                                                                                ",
"                                                                                                                                                                                                                                                ",
"                                                                                                                                                                                                                                                ",
"                                                                                                                                                                                                                                                ",
"                                                                                                                                                                                                                                                ",
"                                                                                                                                                                                                                                                ",
"                                                                                                                                                                                                                                                ",
"                                                                                                                                                                                                                                                ",
"                                                                                                                                                                                                                                                ",
"                                                                                                                                                                                                                                                ",
"                                      % %           % %                                                                                                                                 % %           % %                                       ",
"                                      % %             %                                                                                                                                 %             % %                                       ",
"                                      % %               % %         %       D.                                                                                    D.      %         % %               % %                                       ",
"                                      o                 % % %       % @   +.x.'                                                                                 ' x.+.  @ %       % % %                 o                                       ",
"                                                % %     % % % %         % e   4 %                                                                             % 4   e %         % % % %     % %                                                 ",
"                                                % % % % % % % % %       % @   @ %                                                                             % @   @ %       % % % % % % % % %                                                 ",
"                                      D.n.      % % % % % % % % % %     % %   % %                                                                             % %   % %     % % % % % % % % % %       n.D.                                      ",
"                                        '       % % % % % % % $ @ @ $ % % %                                                                                         % % % $ @ @ $ % % % % % % %       '                                         ",
"                                          % %   % % % % % % % % 2 2 % % %                                                                                             % % % 2 2 % % % % % % % %   % %                                           ",
"                                          % % $     @ % % $ $ s ^ F 2 o %       t +.                                                                        +.t       % o 2 F ^ s $ $ % % @     $ % %                                           ",
"                                  % %     % % %     4 % % $ @ z *. .s 2 % $   o e _ a.                                                                    a._ e o   $ % 2 s  .*.z @ $ % % 4     % % %     % %                                   ",
"                                  % % % % % @ 2 ^ i.n % $ $ @ 4 n ^ { S 2 @ % @ 2 j S                                                                     S j 2 @ % @ 2 S { ^ n 4 @ $ $ % n i.^ 2 @ % % % % %                                   ",
"                                  % % % % % @ 2 ^ *.n $ @ 2 e 9 % S y.{ 4 @ % % % % $                                                                     $ % % % % @ 4 { y.S % 9 e 2 @ $ n *.^ 2 @ % % % % %                                   ",
"                              % %   % % % % $ % s z 9 @ @ y _ ^ 9 S i.{ 2 o % % % $ @                                                                     @ $ % % % o 2 { i.S 9 ^ _ y @ @ 9 z s % $ % % % %   % %                               ",
"                              % %     % % % % % @ % y s 2 j 4.*.y V y.*.z 4 % $ % % %                                                                     % % % $ % 4 z *.y.V y *.4.j 2 s y % @ % % % % %     % %                               ",
"                              % %     % % % % % o 3 ^ X.s h 4.*.y n i.n.:.S % @ % % %                                                                     % % % @ % S :.n.i.n y *.4.h s X.^ 3 o % % % % %     % %                               ",
"                              % %   % % % % @ % y V ' ..F I 7.<.F ^ a.U.D.+.n 9 % $ %                                                                     % $ % 9 n +.D.U.a.^ F <.7.I F ..' V y % @ % % % %   % %                               ",
"                              % % % % % % % @ 2 ^ *.F z { i.n.x.y.i.n.D.D.x.,.V %     % %                                                             % %     % V ,.x.D.D.n.i.y.x.n.i.{ z F *.^ 2 @ % % % % % % %                               ",
"                              % % % % % @ $ y F 4.x./ K <./.OXoX~.A.k.<.X.e.x.I % o   % %                                                             % %   o % I x.e.X.<.k.A.~.oXOX/.<.K / x.4.F y $ @ % % % % %                               ",
"                              % % % % % @ 2 I y.n.S.x.a.f.{.9X7X[.A.D.{ j ' a.I % @ % % %                                                             % % % @ % I a.' j { D.A.[.7X9X{.f.a.x.S.n.y.I 2 @ % % % % %                               ",
"                              % % % $ % y L :.D.V.L.OX%X^.{.tX0X]._.&XQ.) $.x.T % @ % % %                                                             % % % @ % T x.$.) Q.&X_.].0XtX{.^.%XOXL.V.D.:.L y % $ % % %                               ",
"                                  % @ % F y.B.D.B.].6XwXOX.XwX0X{.$XwX,XY.f.i.F % @ % % %                                                             % % % @ % F i.f.Y.,XwX$X{.0XwX.XOXwX6X].B.D.B.y.F % @ %                                   ",
"                                  % @ % T B.K.E.OX2XpXfX6X3XpXuX2X:X>X#XE.>.T s % $ % %                                                                 % % $ % s T >.E.#X>X:X2XuXpX3X6XfXpX2XOXE.K.B.T % @ %                                   ",
"                                  % @ % F y.k.W.;XpXkXkXhXhXkXxXhX4X].D.n.^ 4 $ % % %                                                                     % % % $ 4 ^ n.D.].4XhXxXkXhXhXkXkXpX;XW.k.y.F % @ %                                   ",
"                                    @ % y L $.P.XX>XyXxXxXxXxXxXxX8X(.V.B.^ % o % % %                                                                     % % % o % ^ B.V.(.8XxXxXxXxXxXxXyX>XXXP.$.L y % @                                     ",
"                                      % @ 2 I y.f.(.2XpXsXpXpXsXpX<XT.w.7.I 2 @ % % %                                                                     % % % @ 2 I 7.w.T.<XpXsXpXpXsXpX2X(.f.y.I 2 @ %                                       ",
"                                      % @ $ y F $.P. X=X=X=X=X=X=X!.) V V y % $ % %                                                                         % % $ % y V V ) !.=X=X=X=X=X=X XP.$.F y $ @ %                                       ",
"                                      % % % @ 2 T 4.7.7.7.7.7.7.7.^ 4 @ $ % % % %                                                                             % % % % $ @ 4 ^ 7.7.7.7.7.7.7.4.T 2 @ % % %                                       ",
"                                            @ % y z z z z z z z z r % o                                                                                                 o % r z z z z z z z z y % @                                             ",
"                                              % @ @ @ @ @ @ @ @ @ @ % %                                                                                                 % % @ @ @ @ @ @ @ @ @ @ %                                               ",
"                                                                                                                                                                                                                                                ",
"                                                                                                                                                                                                                                                ",
"                                                                                                                                                                                                                                                ",
"                                                                                                                                                                                                                                                ",
"                                                                                                                                                                                                                                                ",
"                                                                                                                                                                                                                                                ",
"                                                                                                                                                                                                                                                ",
"                                                                                                                                                                                                                                                ",
"                                                                                                                                                                                                                                                ",
"                                                                                                                                                                                                                                                ",
"                                                                                                                                                                                                                                                ",
"                                                                                                                                                                                                                                                ",
"                                                                                                                                                                                                                                                ",
"                                                                                                                                                                                                                                                ",
"                                                                                                                                                                                                                                                "
};
