/* XPM */
static char *result[] = {
/* columns rows colors chars-per-pixel */
"60 60 35 1 ",
"  c #35261F",
". c #38271F",
"X c #3C291F",
"o c #342620",
"O c #382720",
"+ c #372821",
"@ c #3C2A21",
"# c #442D1F",
"$ c #482F1F",
"% c #47301F",
"& c #4C311F",
"* c #53351F",
"= c #58371F",
"- c #57381F",
"; c #5B3A1F",
": c #633D1E",
"> c #432D21",
", c #482F21",
"< c #473021",
"1 c #4C3221",
"2 c #533622",
"3 c #583722",
"4 c #573822",
"5 c #5C3B22",
"6 c #623E22",
"7 c #67401F",
"8 c #6B421E",
"9 c #73461E",
"0 c #76481F",
"q c #79491E",
"w c #664122",
"e c #6A4322",
"r c #724720",
"t c #744821",
"y c #794B21",
/* pixels */
"-;;%w61w6ww53@eeeeew51+5eeeeeeee6>0eee:3@*@1wwew4<<@+oo<2*-;",
"wee@@<X#$&&#+@4we54<++o<eeeeweew3#teeee>300-#221#erre+-qrqee",
"we4 8qq0qqrr82X<1@O1we1o6ee52111@5rewe5<reer-+<+7qeerXreeeee",
"53X&=qeeerewer8o<wtyye4<@56<++oo<reeee5<eee5>wq6;eeee<256wee",
"3$rr$1weeeeeeq0+0eeeeew4@@@@ett&>6eeee5<eew1:eee-eeer1oO$256",
"X6e6< >6eeeeee8Oqeeeeeee2o+:tee7 2we5e3<ww2;ree52eweeO;8-#X>",
"=ree1+ >3w666w<+weeeeeee2Oe9eeerXX2341> <<<qeee4<<ww4 88qqq*",
"5666,:8&#>>X>>+o46ewwww5>6eeeweee<+@&2*&oo<qee64@<5<XX8ere89",
"#,$<O8etqqqqy9&o<5342122>1wee6ewe2 3rerr5>#qeew3>++&qq0eeee0",
"9q3OOreeeeeeee01O&*-542>+>3w6364>X 9eeeeew>35ww3#O*qqeeeeeee",
"ee6>;eeweeeeeee-5qrerrrr#o>,>>>5et*teeewe6>o><>#8w*qeeeeeeee",
"ee6<<565weewew3>0eeeeeeer@o2;3eeet27eeee5>+83+*eew$:weeeeeee",
"wee2@><26e6344>&0eweeeewe1&9rteeer,2ww6w>o>e3Xewee4>4wweeeee",
"2222e61#4w521O+&224eeeeee5Oeeeeeeee2>12<o>yee1#2wee<>4weeww5",
"#++eeww1<42<6ttr;@@5eeeew5>3eeeeeee96+2=<>5<<w5#&53<o@<1<#$*",
"w5,156e6>o28eeerrr1@11451<+O6eeeee65>6tre<>1>+<w3<-;o>8009q9",
"6ew2<41@+*reweeee6>o#&<#&70;&w6eew417qee666e6>1>5ee6#q0eeeee",
"we5&;qrr-%5wweeee6@o09r00eee8&<3e5>ereeeeeee61r6Oww#0qeewwew",
"w4%8q0eer7@5weeee5@;9eeeeeee51o@52X9eeeeewee5=e6@w3X0966556w",
"1<2eeeweee2 <2652<&reee6424<@%*>>>+,22254666>e5>oX=#X$221<>>",
"-7@2weeeee5&07*@O 42wee2#%&;9qq0 #::&>>#25>+X5@89qeq*+o=9997",
"093@1weeee2*8re9qq&<5e5-900eeew0#qre9:#w55=:;@*qeeeee3.qeeee",
"wew1+4weew1*eeeeerr-<2<tweeeeee1-9eee98222e9e2<teeeee5O=qeee",
"weew<<wew5<*eeeeeeer6 60eeeweee1;reeeee9>reee6,*reeee2 &:q0e",
"weew2>362<o9eeeeeeee61:tweeeeww<:eeeeeee47eeee52-wee5>=e;8ee",
"45534O>133#qeeeeweee52#1126eeew<7e63eeew<5reeee5><6e2o5ee>>2",
"o1<1<+60ere<8reeeeew51X;6#13ee3@-2<<<253Xreeee51 o25$51><5<+",
"<q98,o9eeee6@7eeeee3@>rre9#22<>3795Oo<-& w64242O:=O>5e9:<rr2",
"3ere7Oreeeew11eeee6><yeee0e@O;q9eew2Oqr09e8eeO 7tee5eee25ee<",
"2eee4Oteeeew2@6e6511teeeeee:-yeeeee61&qeeeree8Xqeeee6221ree1",
"5eww4oreeeew2@562@+5weweeee2*qewewee5<8eeeeeee22wee6<:=>255<",
"&eeww>&e5ww4<O<>>2@+16eeeeew<e3355ww5<9eeeeee6O1333,:ry7--2O",
"*7eee3<@>,1>oo+5trr;O26eeeee5+<<52<2<4eeeeee5>o+<<X eeeee8qq",
"w&reeww54@@r2o2eeeee5+2weee6w22yeee@o5eeeee5<5yy0rw#rweeeeer",
"6>7re6eee3+ee1@weeeee&@256ww41wweeew@5eeee614teeew1;eeeeewee",
"w2-qee6we3@ewe<16eeee1.#2;3$@2<oeeee1211211<yeeeee-*tw666www",
":2#weee34@e4@<o@6e663X9r9er6o+56y6ew@4re3;-29weeeeq%3&<<@<15",
"<<O36632+54@we5@eew2X:reeee4@1e5e+@4<teer8w@wwweeee;X;qt9* @",
"*75#,@+O56+eeew@666>98eeee63O1ew442+2teeeew<X<23554#80eee94 ",
"-e9@+e66e@weee5@>,>o66eeew2@>+<5<+2<1eeeeew2 XXXX@ -09eeee5<",
"#ree<eee4Owee6>er6rr>,222>>9re2>&eee18eeeee2%0r0t7,2eeeewew1",
"&yee1<5ee@5ew12eeeeey63>@8yeererteee5>45w54>8reeee2>6eeeeew1",
"&eee4+>65+5ee>eeeeeertr229eeeeeeeeee6>+O@@+;0eew652@3eeeeee1",
" reew@1Xoo@22O1eeeeeee63>6eeeeeeee6e5@;:-@&qeeee64<X>5wew65>",
"<7eew<ye-&&222X>6e666e62>3eeeeeee656>:9rr6 0wwew41#:=#><41><",
"e-ee5%9errrrrr0&,22,1,>Oo>3e6666642>1qeeet%=weee6<qrr08=15qq",
"w1ee<5eeeeeeweeqX#;:99009,>we622#$O,yeeeeee<1www2*qeewer9rre",
"4Xw4Oeewweeeeee6#0qeeeeee02>2,>-rr56eweeeeee<<1>.4eeeeeeeeee",
"X-<Oo<435eew6661O0eeeeeeee4+<;8re65,666eweeew@oooO25eeeewee5",
":8;+4w1>2ee4432#er6eeeeeew5>qeeeee6>O2366w556>@ett425eeeee61",
"8er%+5qe,3641@O,22446eeeeew1:eeeeeee2Oo@>>><+>yeeey<<555321,",
"0eer12e9e><X2ee;=*,>4366ww312reeeeeee,,rtrtw+teeewowo111153>",
"0eee&6eer7O:teeere6>O,211<&@+0eeew652;qrewew@yery215<tttrr52",
"weewO>11<5>weeeeeee4+6:538rr6&2342,O39eeeeew1rw@5ew<1eeee6@6",
"wew3 =wrw1X<wwweee62=terreeeer-#5ee>r6ewewee5@31w5w6@eeew<4e",
"we6>#yeeeee2<2<5w3,#tewewweeee5-ee6>>>>14554<o.1<ew1>rew42ee",
"ww1oX456w655X*X+21@#2211112121<4ee61 =9=>>>$::;:21<+5we5<eee",
"w3@1w*%  %*:re2o@6q0;<+oo1:2@o+>663,8qrre@9tee9et5++14e4<wew",
"e3*ree6;9rree4%89eeeew@O:qe0qq7=#>>eeeer3#reeeeeeee2o1w@@2we",
">@*w77&9ewwew%7wwwwww6>79wwww888:>;66e662 :566e6w55w+@@oo+>>"
};
