/* XPM */
static char *result[] = {
/* columns rows colors chars-per-pixel */
"40 40 71 1 ",
"  c #050202",
". c #0C0502",
"X c #0F0806",
"o c #110702",
"O c #140A04",
"+ c #1A0D04",
"@ c #150D09",
"# c #190F09",
"$ c #1E1006",
"% c #1D120B",
"& c #1D1310",
"* c #231306",
"= c #2A1606",
"- c #2E1907",
"; c #23140B",
": c #291708",
"> c #27180E",
", c #2C1A0B",
"< c #321B07",
"1 c #331E0B",
"2 c #211611",
"3 c #261A14",
"4 c #2B1C14",
"5 c #271C19",
"6 c #2C1F19",
"7 c #311F12",
"8 c #36200D",
"9 c #3A220E",
"0 c #2E211C",
"q c #342114",
"w c #3C2513",
"e c #3F2817",
"r c #33241C",
"t c #3A261A",
"y c #3D291D",
"u c #332621",
"i c #372820",
"p c #3C2A21",
"a c #40260E",
"s c #45280F",
"d c #412712",
"f c #442A14",
"g c #4A2E15",
"h c #442C1D",
"j c #492F1B",
"k c #4E3117",
"l c #4C311D",
"z c #523215",
"x c #5B3716",
"c c #5D3817",
"v c #54351B",
"b c #58371B",
"n c #5C3A1C",
"m c #633B16",
"M c #623D1D",
"N c #442D20",
"B c #4C3221",
"V c #533521",
"C c #583721",
"Z c #563821",
"A c #5C3B21",
"S c #633F21",
"D c #67401E",
"F c #6C421D",
"G c #74461E",
"H c #76481F",
"J c #79491F",
"K c #654121",
"L c #6A4322",
"P c #714721",
"I c #764920",
/* pixels */
"LLSZpVpBKLLLZNNpiuuBvVZAbAnhKKBKKKKAZpLL",
"LLKNAIGVNBVBNLPLFiAIPGLLLLLppNpNllBNipAK",
"LLANPLLLAuNiKHLLLpFLLLLLKLVuFJIIIJPPLVpN",
"LLABLLLAhLJAALLLLhBAAKKLAVyBbILLLLLLLLFi",
"KKABLLKBMLLLvLSLFl0tNBbAVhFLlBKLLLLKLHIi",
"ALANKLVAFLLZBFSSKivDvyttrMLSNuNALLKLLLLi",
"ZBNiNBNISLSVyhAbl0cnDDFkkSSMNruyAKKKKKBu",
"BVVBu0BHLSCVrhvi0rcbcncDvbvAhnDlpNppNNiu",
"PLPPANhGSSAvt0rfmmczbvvmttyhrMMFFHHHIHlu",
"LLLLLANvvbvjq6wmczkkkkkvccf66nnMSKDKKLIB",
"LKLKSAt0tttrbk9mkkkgggkggzj7jbbbAMSKKKKZ",
"LLKKCyrMl6fzkf7dgdfdfddgfggrqjlvnnMMDKAN",
"KKSAi6ynl6zggfq34ww9w9dwdffq47tfvnbVVZpV",
"NBBNrymbvw4qddw3;,88188117q7gft6hvllNirl",
"Auvlhtjrqfd347,;@%;;%%%:%%&wdfftqhhynDFF",
"NnFMvtqt424w1;,:X#=-<-<,,,;,8wffq0eMMMKD",
"MGSnbgggf33%,1-*@==******,,:;7,30wbbnnSK",
"FSnbbvggd,91O-;O**$$++$**=;;:asf9qfknnMS",
"Snnbbjgf711,@;$o*$++O++++#@=119dggqevnMM",
"BlBjfffq>13OXoOo.......ooO+*-119wfw0rjvV",
"fttrft3;;3#=**$$.  oOOOOo+X#=-11wfewxzjy",
"Lbtkfdq9,#$=$+OOO. OoooOO+@o+;119w9wbbMD",
"MMcwwqda1;#=$+OOo.  o.ooOOOoo#,18wqwzbnn",
"nbbb4gd91=@O++Ooo   .ooooO+@O@:1810ezznn",
"nnbkwdd9,:$@OOOo.  .. ooooO+Oo;>>;&zkzbn",
"nbbj4wa91:*+..oo   ..   .ooO+o@;,14zzvnn",
"Njjf,gw81=$@  oo .       ..ooX*<8ssqkbnn",
"6tjq3fq,;;+X+o  .o.. .o  OO+o.1<8wffqkxn",
"qDcxzfa91OX#$Ooooo.  o. .O++$X1,8wffwtbA",
"hhmvzfd911O:$+Ooo . oo...O+$#X<19wfkerbn",
"Ztcvggdw1<$+$+OO.o. ..o oO++#X11wwfktrvV",
"vycbzgfa71O+$OOooOOO.o. o+$$;#;1wdddr0hy",
"Nlcbzggwq%#@@O..++ooOO++O+**-;;;377656rv",
"0Vbbvkgw319<<=$.$++++++++O==1177744ch6NL",
"yAnbbkgqqs11,=+$$$$$++*$+@=111adfd5vbNtA",
"hBNNherqza991,*%=*$$$$****=111wdgh7bbnpB",
"pvDnkjgqzdd9988$*$@%@+%;,:;1wwdtf5vjtpup",
"NFDDMnlqggfww98,%=<<<%@%;%%7wdwt6ggrbSvp",
"vLDncnvt6qwwwq1;898888,#,q1,4>35gv6MSSSp",
"BLLKSnnh364333&8ss99998>1fg33kgvVrbSSDCp"
};
