/* XPM */
static char *result[] = {
/* columns rows colors chars-per-pixel */
"60 60 61 1 ",
"  c #1E1112",
". c #231414",
"X c #291617",
"o c #271816",
"O c #291816",
"+ c #261618",
"@ c #291718",
"# c #2C1A1A",
"$ c #321C1C",
"% c #381F1F",
"& c #36211D",
"* c #3A241F",
"= c #351F20",
"- c #381F20",
"; c #3B2222",
": c #3E2820",
"> c #422625",
", c #452926",
"< c #4A2C26",
"1 c #462A28",
"2 c #4C2D29",
"3 c #502F2A",
"4 c #4D3127",
"5 c #4D312A",
"6 c #503327",
"7 c #53332C",
"8 c #59362C",
"9 c #57392B",
"0 c #5C3A2E",
"q c #553431",
"w c #583732",
"e c #5C3B33",
"r c #613D2E",
"t c #683F2F",
"y c #613E33",
"u c #623E38",
"i c #64402E",
"p c #654133",
"a c #6A4433",
"s c #6E4834",
"d c #6E4A39",
"f c #724C36",
"g c #744E39",
"h c #765136",
"j c #795437",
"k c #76513A",
"l c #7B543C",
"z c #7E583D",
"x c #7D5741",
"c c #7E5842",
"v c #845D3E",
"b c #86603F",
"n c #835D44",
"m c #865F48",
"M c #876144",
"N c #896245",
"B c #876148",
"V c #8D664B",
"C c #8F684E",
"Z c #90694B",
"A c None",
/* pixels */
"AAAAAAAAAAAAAAAAAAAAAAAAAAAAAAAAAAAAAAAAAAAAAAAAAAAAAAAAAAAA",
"AAAAAAAAAAAAAAAAAAAAAAAAAAAAAAAAAAAAAAAAAAAAAAAAAAAAAAAAAAAA",
"AAAAAAAAAAAAAAAAAAAAAAAAAAAAAAAAAAAAAAAAAAAAAAAAAAAAAAAAAAAA",
"AAAAAAAAAAAAAAAAAAAAAAAAAAAAAAAAAAAAAAAAAAAAAAAAAAAAAAAAAAAA",
"AAAAAAAAAAAAAAAAAAAAAAAAAAAAAAAAAAAAAAAAAAAAAAAAAAAAAAAAAAAA",
"AAAAAAAAAAAAAAAAAAAAAAAAAAAAAAAAAAAA.ooAAAAAAAAAAAAAAAAAAAAA",
"AAAAAAAAAAAAAAAAAAAAAAAAAAAAAAAAAA..9pw #AAAAAAAAAAAAAAAAAAA",
"AAAAAAAAAAAAAAAAAAAAAAAAAAAAAAOOO5eeVBBd0oAAAAAAAAAAAAAAAAAA",
"AAAAAAAAAAAAAAAAAAAAAAAAAAAAA >pucCCCCCCc4 AAAAAAAAAAAAAAAAA",
"AAAAAAAAAAAAAAAAAA$&AAAAAA:o4snCCCCCCCCc0dyOAAAAAAAAAAAAAAAA",
"AAAAAAAAAAAAAAAAAOsh,AAAAA:snCCCCCCCCCCuCCB0&AAAAAAAAAAAAAAA",
"AAAAAAAAAAAAAAAA&kCCk<AAAA*kCCCCCCCCCCCCCCCBi*AAAAAAAAAAAAAA",
"AAAAAAAAAAAAAAA:pNVCZv*AAA$0hVCCCCCCCCCCCCCCBp5AAAAAAAAAAAAA",
"AAAAAAAAAAAAAA*yNVCCCCs*. .#9gBCCCCCCCCCCCCCVBp#AAAAAAAAAAAA",
"AAAAAAAAAAAAA>aVCZCCCCfl,.X#,acCCCCCxBCCCCCCCVM9&AAAAAAAAAAA",
"AAAAAAAAAAAAO:cCZCCCCCMCz<X$;0sBCCCddCCCCCCCCCCMa$AAAAAAAAAA",
"AAAAAAAAAAAA>gZZVZVCZVCZVM4O$>0aBZdrnZCCCCCCCCCVNa:AAAAAAAAA",
"AAAAAAAAAAA ;anZCZZCZCCZCVn9<*7aap8nCCCCCCCCCVVMNf*AAAAAAAAA",
"AAAAAAAAAAA.&pamVZZVZZCCNVCVn8,7atvvNZCCCCCCZVbZja*AAAAAAAAA",
"AAAAAAAAAAA.o,yazZCCCCCNhvVCVle<0rvvnNCCCCVBNbnhay*AAAAAAAAA",
"AAAAAAAA#O##O%3tacVCCCCMsvZZVVv028plvvVZCBvvjhaaiy&AAAAAAAAA",
"AAAAAAA*kMg9%%,7papzZCZatnVZVVVxr<8avvvvvvlasirryy&AAAAAAAAA",
"AAAAAA5lZVlr<$-19paszvMsvvvnvnnng6<7ivlaaap0r87eyy&AAAAAAAAA",
"AAAAAodmVnt82<770pppiaashvjjjlfai036rtaaapy8raayye$AAAAAAAAA",
"AAAAA.#0lku3rgccxsyxncnnvnfraffaglxlxllllyyyfnxay5#.  AAAAAA",
"AAAAA #&7wuegVCCCnxCCCCCmviyamnnVCVBNmvNvaydnVmdp7<,5<oAAAAA",
"AAAAA.O$,2upxCCCCCCCCCCCnrilmCZZCCZNNvggtutgVVZkw,9kxs.AAAAA",
"AAAAAA.$;,waxVCCCCCCCCVc0tmZCCCCCCCNnaaa7yfmVZZx62xCcp.AAAAA",
"AAAAAAA.$>7acCCCCCCCCCnaxVCCCCCCZCBgsat3<tfnvvyy70sgpuoAAAAA",
"AAAAAAAA.$,axCCCCCCCCCCVCCCCCCCCZNkay3,1<yhvNVnkq,eppe.AAAAA",
"AAAAAAAAA.X<pnCCCCCCCCCCCCCCCVCBnhty3y<,1rfvbZZl2>12e,.AAAAA",
"AAAAAAAAAA -qucCCCCCCCCCCCCCCZNnft7euu1,,<fvnVZl,:1,>$.AAAAA",
"AAAAAAAAAA.=>2yvCCCCCCCCCCCCVmvft3,eyw,1,>tfnZZv<#*,# AAAAAA",
"AAAAAAAAAA.-118rnCCCCCZZCCVVmvfa<,,,u11,>$3tfnVf,o##.AAAAAAA",
"AAAAAAAAAA.$,,,exmCCCCCZZNnvvft3,,,,q11;$$3tafmk,.#+AAAAAAAA",
"AAAAAAAAAA.#-,,3tvBBmBNnhffvft3,,,,,11;$$$>3tfvk,A#AAAAAAAAA",
"AAAAAAAAAA $-,113tfnnvkkatastw,,<,,,;;$>XX133ysa1AAAAAAAAAAA",
"AAAAAAAAAA.$;,,,1utgfstutauuu31,,,,;$8qx<X-173yq;AAAAAAAAAAA",
"AAAAAAAAAA $$>,113tftsuq8uuuuq11,;%#8gnmt.=1uuy>.AAAAAAAAAAA",
"AAAAAAAAAA $$-111wuutuuq3uuuu31;%$ttvVCCn3+=quu1.AAAAAAAAAAA",
"AAAAAAAAAA#@=->11euuuuuw2ueuw,;%<9kmCCVZmr.o%5u1.AAAAAAAAAAA",
"AAAAAAAAAAA@+$>11wuuuuuueupuq;7acg8mCZZVvl<..$q;.AAAAAAAAAAA",
"AAAAAAAAAAAA@#-11qeuuuuuuue7;<xVZZkBCCZnbmr> #==AAAAAAAAAAAA",
"AAAAAAAAAAAAA+=;11eeuuuwwq>,7nCCCCCCCCNbZai< A#+AAAAAAAAAAAA",
"AAAAAAAAAAAAA+@#;1qeeqq;;;1dxVCCCCCBnNNVBaq; AAAAAAAAAAAAAAA",
"AAAAAAAAAAAAAA+@#;;qw;;o@5nVCVCVVVZNxxlaa7>; AAAAAAAAAAAAAAA",
"AAAAAAAAAAAAAAAA#++#;+o$<kVVVNnnvlllsaaae11= AAAAAAAAAAAAAAA",
"AAAAAAAAAAAAAAAAA    A $0kkkkhlxaapppppue1=@AAAAAAAAAAAAAAAA",
"AAAAAAAAAAAAAAAAAAAAAA.=17aaaappppuuxuuuw=@AAAAAAAAAAAAAAAAA",
"AAAAAAAAAAAAAAAAAAAAAA.$-137papuupuuwuue>@AAAAAAAAAAAAAAAAAA",
"AAAAAAAAAAAAAAAAAAAAAAA+=113uuuuupueuuq;@AAAAAAAAAAAAAAAAAAA",
"AAAAAAAAAAAAAAAAAAAAAAAA@=12uuupuuuq11+#AAAAAAAAAAAAAAAAAAAA",
"AAAAAAAAAAAAAAAAAAAAAAAAA#=1qeuw121#++AAAAAAAAAAAAAAAAAAAAAA",
"AAAAAAAAAAAAAAAAAAAAAAAAAA$##;;=+++AAAAAAAAAAAAAAAAAAAAAAAAA",
"AAAAAAAAAAAAAAAAAAAAAAAAAAA.. .AAAAAAAAAAAAAAAAAAAAAAAAAAAAA",
"AAAAAAAAAAAAAAAAAAAAAAAAAAAAAAAAAAAAAAAAAAAAAAAAAAAAAAAAAAAA",
"AAAAAAAAAAAAAAAAAAAAAAAAAAAAAAAAAAAAAAAAAAAAAAAAAAAAAAAAAAAA",
"AAAAAAAAAAAAAAAAAAAAAAAAAAAAAAAAAAAAAAAAAAAAAAAAAAAAAAAAAAAA",
"AAAAAAAAAAAAAAAAAAAAAAAAAAAAAAAAAAAAAAAAAAAAAAAAAAAAAAAAAAAA",
"AAAAAAAAAAAAAAAAAAAAAAAAAAAAAAAAAAAAAAAAAAAAAAAAAAAAAAAAAAAA"
};
