/* XPM */
static char *result[] = {
/* columns rows colors chars-per-pixel */
"30 30 3 1 ",
"  c #030303",
"O c blue",
"+ c None",
/* pixels */
"++++++++++++++++++++++++++++++",
"+++++++++++++    +++++++++++++",
"++++++++++++ OOOO ++++++++++++",
"+++++++++++ OOOOOO +++++++++++",
"++++++++++ OOOOOOOO ++++++++++",
"+++++++++ OOOOOOOOOO +++++++++",
"++++++++ OOOOOOOOOOOO ++++++++",
"+++++++ OOOOOOOOOOOOOO +++++++",
"++++++ O OOOOOOOOOOOO O ++++++",
"++++++ OO OOO    OOO OO ++++++",
"++++++ OOO O OOOO O OOO ++++++",
"++++++ OOOO OOOOOO OOOO ++++++",
"++++++ OOOO OOOOOO OOOO ++++++",
"++++++ OOOO OOOOOO OOOO ++++++",
"++++++ OOOO OOOOOO OOOO ++++++",
"++++++ OOOO OOOOOO OOOO ++++++",
"++++++ OOOO OOOOOO OOOO ++++++",
"++++++ OOOO OOOOOO OOOO ++++++",
"++++++ OOOO OOOOOO OOOO ++++++",
"++++++ OOOO OOOOOO OOOO ++++++",
"++++++ OOO O OOOO O OOO ++++++",
"++++++ OO OOO    OOO OO ++++++",
"+++++++  OOOOOOOOOOOO  +++++++",
"++++++++ OOOOOOOOOOOO ++++++++",
"+++++++++ OOOOOOOOOO +++++++++",
"++++++++++ OOOOOOOO ++++++++++",
"+++++++++++ OOOOOO +++++++++++",
"++++++++++++ OOOO ++++++++++++",
"+++++++++++++    +++++++++++++",
"++++++++++++++++++++++++++++++"
};
